<?xml version="1.0" encoding="UTF-8" standalone="no"?>
<svg
   xmlns:dc="http://purl.org/dc/elements/1.1/"
   xmlns:cc="http://creativecommons.org/ns#"
   xmlns:rdf="http://www.w3.org/1999/02/22-rdf-syntax-ns#"
   xmlns:svg="http://www.w3.org/2000/svg"
   xmlns="http://www.w3.org/2000/svg"
   width="37.131763mm"
   height="45.10144mm"
   viewBox="0 0 37.131763 45.10144"
   version="1.1"
   id="svg2254">
  <defs
     id="defs2248" />
  <metadata
     id="metadata2251">
    <rdf:RDF>
      <cc:Work
         rdf:about="">
        <dc:format>image/svg+xml</dc:format>
        <dc:type
           rdf:resource="http://purl.org/dc/dcmitype/StillImage" />
        <dc:title></dc:title>
      </cc:Work>
    </rdf:RDF>
  </metadata>
  <g
     transform="translate(87.738141,155.46335)"
     style="display:inline"
     id="g2826">
    <path
       id="path958"
       d="m -77.731518,-116.28605 v 0.72399 h 0.819073 v -0.72399 l -0.41031,0.44235 z"
       style="display:inline;opacity:1;fill:none;fill-opacity:1;stroke:#100000;stroke-width:0.01;stroke-linecap:butt;stroke-linejoin:miter;stroke-miterlimit:4;stroke-dasharray:none;stroke-opacity:1" />
    <path
       id="path956"
       d="m -74.306402,-116.45245 -0.418063,0.89039 h 0.834575 z"
       style="display:inline;opacity:1;fill:none;fill-opacity:1;stroke:#100000;stroke-width:0.01;stroke-linecap:butt;stroke-linejoin:miter;stroke-miterlimit:4;stroke-dasharray:none;stroke-opacity:1" />
    <path
       id="path954"
       d="m -77.799212,-121.47591 -1.44849,1.01596 v 4.89789 h 0.993219 c 0,0 -0.05413,-4.6507 0.0057,-4.6607 0.05978,-0.01 0.182041,1.14484 0.223242,1.15704 0.04119,0.0122 1.009756,-1.08304 1.009756,-1.26246 0,-0.17941 -0.449493,-0.71747 -0.783413,-1.14773 z"
       style="display:inline;opacity:1;fill:none;fill-opacity:1;stroke:#100000;stroke-width:0.01;stroke-linecap:butt;stroke-linejoin:miter;stroke-miterlimit:4;stroke-dasharray:none;stroke-opacity:1" />
    <path
       id="path952"
       d="m -60.545487,-121.47891 c -0.300109,0.39429 -0.792715,0.99307 -0.792715,1.14412 0,0.15104 0.989025,1.28381 1.018026,1.27021 0.02905,-0.0136 0.171109,-1.17882 0.222208,-1.16272 0.0511,0.0161 0.0115,2.05405 0.0155,3.07785 h -0.812353 v 1.58698 h 1.798341 v -4.89996 z"
       style="display:inline;opacity:1;fill:none;fill-opacity:1;stroke:#100000;stroke-width:0.01;stroke-linecap:butt;stroke-linejoin:miter;stroke-miterlimit:4;stroke-dasharray:none;stroke-opacity:1" />
    <path
       id="path950"
       d="m -55.41815,-124.21517 v 1.46761 l -0.820105,0.61236 h -1.267624 l -0.452684,0.72606 h 5.165058 l 1.265555,-1.7694 v -1.03663 z"
       style="display:inline;opacity:1;fill:none;fill-opacity:1;stroke:#100000;stroke-width:0.01;stroke-linecap:butt;stroke-linejoin:miter;stroke-miterlimit:4;stroke-dasharray:none;stroke-opacity:1" />
    <path
       id="path948"
       d="m -86.815717,-124.21517 v 1.03663 l 1.265555,1.7694 h 5.165061 l -0.452686,-0.72606 h -1.267622 l -0.820105,-0.61236 v -1.46761 z"
       style="display:inline;opacity:1;fill:none;fill-opacity:1;stroke:#100000;stroke-width:0.01;stroke-linecap:butt;stroke-linejoin:miter;stroke-miterlimit:4;stroke-dasharray:none;stroke-opacity:1" />
    <path
       id="path946"
       d="m -56.620144,-124.28647 v 1.43506 h 0.175183 c 0.166013,0 0.165341,0.0167 0.220141,-0.1018 0.0548,-0.11846 0.100132,-0.80696 0.04289,-1.05782 -0.0555,-0.24318 -0.07113,-0.25868 -0.265618,-0.26768 z"
       style="display:inline;opacity:1;fill:none;fill-opacity:1;stroke:#100000;stroke-width:0.01;stroke-linecap:butt;stroke-linejoin:miter;stroke-miterlimit:4;stroke-dasharray:none;stroke-opacity:1" />
    <path
       id="path944"
       d="m -81.723522,-124.28647 -0.172599,0.008 c -0.194487,0.009 -0.210116,0.0245 -0.265617,0.26768 -0.05723,0.25086 -0.01191,0.93937 0.04289,1.05782 0.05481,0.11851 0.05413,0.1018 0.220141,0.1018 h 0.175184 z"
       style="display:inline;opacity:1;fill:none;fill-opacity:1;stroke:#100000;stroke-width:0.01;stroke-linecap:butt;stroke-linejoin:miter;stroke-miterlimit:4;stroke-dasharray:none;stroke-opacity:1" />
    <path
       id="path942"
       d="m -55.315315,-126.68942 v 1.12603 h 3.608049 c 0.131355,0 0.128159,-0.2614 0.128159,-0.56224 0,-0.30084 0.0021,-0.56379 -0.118341,-0.56379 z"
       style="display:inline;opacity:1;fill:none;fill-opacity:1;stroke:#100000;stroke-width:0.01;stroke-linecap:butt;stroke-linejoin:miter;stroke-miterlimit:4;stroke-dasharray:none;stroke-opacity:1" />
    <path
       id="path940"
       d="m -86.646217,-126.68942 c -0.120441,0 -0.11834,0.26295 -0.11834,0.56379 0,0.30084 -0.0032,0.56224 0.128159,0.56224 h 3.608046 v -1.12603 z"
       style="display:inline;opacity:1;fill:none;fill-opacity:1;stroke:#100000;stroke-width:0.01;stroke-linecap:butt;stroke-linejoin:miter;stroke-miterlimit:4;stroke-dasharray:none;stroke-opacity:1" />
    <path
       id="path938"
       d="m -56.625312,-127.73845 v 3.22254 l 0.851628,-0.4439 v -2.36626 z"
       style="display:inline;opacity:1;fill:none;fill-opacity:1;stroke:#100000;stroke-width:0.01;stroke-linecap:butt;stroke-linejoin:miter;stroke-miterlimit:4;stroke-dasharray:none;stroke-opacity:1" />
    <path
       id="path936"
       d="m -81.718352,-127.73845 -0.851628,0.41238 v 2.36626 l 0.851628,0.4439 z"
       style="display:inline;opacity:1;fill:none;fill-opacity:1;stroke:#100000;stroke-width:0.01;stroke-linecap:butt;stroke-linejoin:miter;stroke-miterlimit:4;stroke-dasharray:none;stroke-opacity:1" />
    <path
       id="path934"
       d="m -57.64282,-129.63188 -0.01344,1.17874 h -1.177705 v 0.98082 h 1.161687 l 0.0155,1.39888 h -1.177189 v 0.98392 h 1.177189 v 1.43299 h -1.177189 v 1.00614 h 1.586468 l 0.322461,-0.3452 v -6.32416 l -0.3452,-0.31213 z"
       style="display:inline;opacity:1;fill:none;fill-opacity:1;stroke:#100000;stroke-width:0.01;stroke-linecap:butt;stroke-linejoin:miter;stroke-miterlimit:4;stroke-dasharray:none;stroke-opacity:1" />
    <path
       id="path932"
       d="m -81.073431,-129.63188 -0.345199,0.31213 v 6.32416 l 0.321945,0.3452 h 1.586982 v -1.00614 h -1.17719 v -1.43299 h 1.17719 v -0.98392 h -1.17719 l 0.0155,-1.39888 h 1.161685 v -0.98082 h -1.177706 l -0.01344,-1.17874 z"
       style="display:inline;opacity:1;fill:none;fill-opacity:1;stroke:#100000;stroke-width:0.01;stroke-linecap:butt;stroke-linejoin:miter;stroke-miterlimit:4;stroke-dasharray:none;stroke-opacity:1" />
    <path
       id="path930"
       d="m -54.253365,-130.74395 -1.215429,1.36322 v 1.27124 l 0.343133,0.33073 h 3.394625 v -2.96519 z"
       style="display:inline;opacity:1;fill:none;fill-opacity:1;stroke:#100000;stroke-width:0.01;stroke-linecap:butt;stroke-linejoin:miter;stroke-miterlimit:4;stroke-dasharray:none;stroke-opacity:1" />
    <path
       id="path928"
       d="m -86.612628,-130.74395 v 2.96519 h 3.394107 l 0.343648,-0.33073 v -1.27124 l -1.215429,-1.36322 z"
       style="display:inline;opacity:1;fill:none;fill-opacity:1;stroke:#100000;stroke-width:0.01;stroke-linecap:butt;stroke-linejoin:miter;stroke-miterlimit:4;stroke-dasharray:none;stroke-opacity:1" />
    <path
       id="path926"
       d="m -69.206971,-134.53494 c -4.03256,0.0194 -7.29125,3.29409 -7.291031,7.32669 1.12e-4,4.04609 3.280085,7.32606 7.32617,7.32617 4.046085,-1.1e-4 7.326056,-3.28008 7.326167,-7.32617 1.77e-4,-4.04628 -3.279881,-7.32658 -7.326167,-7.32669 -0.01171,-3e-5 -0.02343,-3e-5 -0.03514,0 z"
       style="display:inline;opacity:1;fill:none;fill-opacity:1;stroke:#100000;stroke-width:0.01;stroke-linecap:butt;stroke-linejoin:miter;stroke-miterlimit:4;stroke-dasharray:none;stroke-opacity:1" />
    <path
       id="path924"
       d="m -69.171831,-136.3586 c 5.038082,4e-5 9.122164,4.08435 9.121923,9.12244 -4.5e-5,5.03788 -4.084042,9.12188 -9.121923,9.12193 -5.037881,-5e-5 -9.121878,-4.08405 -9.121926,-9.12193 -2.4e-4,-5.03809 4.083841,-9.1224 9.121926,-9.12244 z"
       style="display:inline;opacity:1;fill:none;fill-opacity:1;stroke:#100000;stroke-width:0.01;stroke-linecap:butt;stroke-linejoin:miter;stroke-miterlimit:4;stroke-dasharray:none;stroke-opacity:1" />
    <path
       id="path922"
       d="m -75.441734,-139.86639 -2.942455,2.80913 c -0.345239,-0.40183 -1.095316,-1.24432 -1.185457,-1.17202 -0.102984,0.0826 0.01881,0.33764 0.07752,0.45165 0.477311,0.92624 0.0469,1.79519 -0.703834,2.49855 -0.09111,0.0853 -0.249407,1.52687 -0.07752,1.57097 0.0671,0.0172 1.173085,-0.7904 1.272275,-0.8909 0.075,-0.076 0.0961,-1.24206 0.211355,-1.25006 0.115281,-0.008 0.14796,0.75142 0.20774,1.26607 0.003,0.0259 0.01069,0.0958 -0.205155,0.27854 -0.43787,0.37085 -1.313614,1.11259 -1.313614,1.11259 0.229179,0.89906 0.512841,1.6352 0.923972,2.4226 0.0181,-1.85797 0.800037,-2.88393 1.273826,-3.04891 0.45742,-0.15928 0.72848,0.0813 1.08934,0.53743 -0.883404,1.11625 -1.511848,2.4123 -1.841233,3.79719 l -0.110069,-0.15297 h -1.690854 v 0.9648 h 1.190109 v 1.41594 h -1.190109 v 0.95911 h 1.190109 v 1.43299 h -1.190109 v 0.94723 h 1.190109 v 1.26607 h 0.500745 l 0.369485,-0.48421 v -0.95084 c 0.116671,0.33719 0.251749,0.66773 0.404627,0.99012 l -1.064019,1.74408 1.523939,-0.87954 c 0.550297,0.91357 1.246659,1.73074 2.061372,2.41898 -1.09116,0.005 -1.764432,0.4106 -2.463933,1.33221 v 0.47491 c -1.8e-5,0.3812 -0.0021,0.50085 0.04238,0.58395 0.17331,0.32627 0.354222,0.55344 0.568442,0.86764 0.267779,-0.34927 0.658669,-0.95747 0.755509,-1.01337 0.0351,-0.0199 0.142627,-0.014 0.142627,-0.014 v 2.01797 h 1.18804 c 0,0 0.784275,-2.1146 0.930177,-2.1146 0.145891,0 0.929658,2.1146 0.929658,2.1146 h 1.65313 c -0.378124,-0.33671 -0.518316,-0.52768 -0.518316,-0.95395 0,-0.68672 0.510611,-1.05433 1.057301,-1.05833 0.467728,-0.004 0.51453,0.1057 0.76481,0.29456 l -0.290938,0.31522 c -0.0978,-0.0691 -0.212614,-0.1664 -0.469223,-0.1664 -0.411292,0 -0.607965,0.37443 -0.609264,0.63924 -0.0011,0.32982 0.355732,0.59221 0.614434,0.59221 0.258699,0 0.390771,-0.18559 0.429429,-0.32349 h -0.383439 v -0.4346 h 0.895554 c 0.0021,0.43371 -0.0437,0.7505 -0.436666,1.09554 h 1.741495 v -2.01693 l 0.57516,5.1e-4 h 0.575675 l 5.16e-4,0.4346 h -0.690396 l -5.19e-4,0.48576 h 0.616501 v 0.44804 h -0.615466 v 0.64802 h 1.868104 v -2.01693 h 1.15135 v 0.43511 h -0.68988 v 0.48576 h 0.640786 v 0.44804 h -0.640786 v 0.31936 h 0.690914 v 0.32866 h 1.417484 c -0.0976,-0.10048 -0.160985,-0.15173 -0.240297,-0.29249 l 0.336931,-0.26613 c 0.12174,0.12373 0.313886,0.30787 0.452686,0.17673 0.138801,-0.13114 -0.0944,-0.30859 -0.25528,-0.45682 -0.4171,-0.38427 -0.577144,-0.7456 -0.181385,-1.08831 0.219821,-0.19034 0.788072,-0.0787 0.898652,0.14625 l -0.34313,0.27492 c -0.0734,-0.0489 -0.193776,-0.0991 -0.262517,-0.0419 -0.0687,0.0572 -0.0378,0.14569 0.295589,0.43615 0.3277,0.28549 0.375172,0.44188 0.375172,0.64596 0,0.22413 -0.120507,0.35056 -0.216009,0.4656 h 1.790589 v -1.58233 h -0.486275 v -0.43512 h 1.407149 v -0.90124 c 0,-0.27865 -1.271767,-1.32695 -2.118217,-1.32395 h -0.318328 c 0.820243,-0.69047 1.521066,-1.51141 2.074294,-2.42982 l 1.530138,0.88367 -1.068668,-1.75235 c 0.154615,-0.32212 0.29142,-0.65249 0.409795,-0.98961 v 0.9586 l 0.368969,0.48421 h 0.501261 v -1.26607 h 1.189591 v -0.94723 h -1.189591 v -1.43299 h 1.189591 v -0.95911 h -1.189591 v -1.41594 h 1.189591 v -0.9648 h -1.690852 l -0.109556,0.15245 c -0.333036,-1.38208 -0.964083,-2.6747 -1.848982,-3.78737 0.364852,-0.46274 0.635833,-0.70717 1.096573,-0.54673 0.4738,0.16498 1.255726,1.19094 1.273826,3.04891 0.411112,-0.7874 0.694796,-1.52354 0.923975,-2.4226 0,0 -0.875744,-0.74173 -1.313616,-1.11259 -0.215815,-0.18283 -0.208156,-0.25263 -0.205155,-0.27854 0.0598,-0.51465 0.0925,-1.27407 0.20774,-1.26607 0.115276,0.008 0.136385,1.17406 0.211354,1.25006 0.0992,0.10049 1.205214,0.9081 1.272276,0.8909 0.171876,-0.0441 0.01358,-1.48567 -0.07752,-1.57097 -0.750755,-0.70337 -1.181132,-1.57231 -0.703834,-2.49855 0.0588,-0.11403 0.18053,-0.36905 0.07752,-0.45165 -0.0901,-0.0723 -0.840219,0.77019 -1.185458,1.17202 l -2.942455,-2.80913 -3.578077,3.27887 c -0.578924,-0.17104 -1.172477,-0.28804 -1.773018,-0.34934 -0.11049,-0.38856 -0.460422,-0.37827 -0.61805,-0.37827 l -0.300239,-1.22421 -0.300241,1.22421 c -0.15621,0 -0.501193,-0.01 -0.61495,0.36846 -0.606047,0.0597 -1.20518,0.17591 -1.789554,0.34726 z"
       style="display:inline;opacity:1;fill:none;fill-opacity:1;stroke:#100000;stroke-width:0.01;stroke-linecap:butt;stroke-linejoin:miter;stroke-miterlimit:4;stroke-dasharray:none;stroke-opacity:1" />
    <path
       id="path920"
       d="m -61.026075,-140.4307 -0.942578,0.9462 1.919261,1.89187 0.919324,-0.90175 z"
       style="display:inline;opacity:1;fill:none;fill-opacity:1;stroke:#100000;stroke-width:0.01;stroke-linecap:butt;stroke-linejoin:miter;stroke-miterlimit:4;stroke-dasharray:none;stroke-opacity:1" />
    <path
       id="path918"
       d="m -77.317587,-140.4307 -1.89601,1.93632 0.918808,0.90175 1.919261,-1.89187 z"
       style="display:inline;opacity:1;fill:none;fill-opacity:1;stroke:#100000;stroke-width:0.01;stroke-linecap:butt;stroke-linejoin:miter;stroke-miterlimit:4;stroke-dasharray:none;stroke-opacity:1" />
    <path
       id="path916"
       d="m -58.024192,-145.03352 v 0.77463 c 1.379434,-2e-5 2.497773,1.11808 2.49804,2.49752 h 0.774112 c 8.5e-5,-1.8072 -1.464958,-3.27223 -3.272152,-3.27215 z"
       style="display:inline;opacity:1;fill:none;fill-opacity:1;stroke:#100000;stroke-width:0.01;stroke-linecap:butt;stroke-linejoin:miter;stroke-miterlimit:4;stroke-dasharray:none;stroke-opacity:1" />
    <path
       id="path914"
       d="m -80.319989,-145.03352 c -1.807194,-8e-5 -3.272234,1.46495 -3.272152,3.27215 h 0.774115 c 2.62e-4,-1.37944 1.118603,-2.49754 2.498037,-2.49752 z"
       style="display:inline;opacity:1;fill:none;fill-opacity:1;stroke:#100000;stroke-width:0.01;stroke-linecap:butt;stroke-linejoin:miter;stroke-miterlimit:4;stroke-dasharray:none;stroke-opacity:1" />
    <path
       id="path912"
       d="m -60.767693,-145.48879 v 4.19303 l 2.44843,2.49752 h 4.254002 z"
       style="display:inline;opacity:1;fill:none;fill-opacity:1;stroke:#100000;stroke-width:0.01;stroke-linecap:butt;stroke-linejoin:miter;stroke-miterlimit:4;stroke-dasharray:none;stroke-opacity:1" />
    <path
       id="path910"
       d="m -77.576487,-145.48879 -6.701917,6.69055 h 4.253489 l 2.448428,-2.49752 z"
       style="display:inline;opacity:1;fill:none;fill-opacity:1;stroke:#100000;stroke-width:0.01;stroke-linecap:butt;stroke-linejoin:miter;stroke-miterlimit:4;stroke-dasharray:none;stroke-opacity:1" />
    <path
       id="path908"
       d="m -58.024192,-146.58123 v 0.7736 c 2.234549,1.3e-4 4.045892,1.81171 4.045749,4.04626 h 0.774629 c -7.7e-5,-2.66211 -2.158273,-4.82006 -4.820378,-4.81986 z"
       style="display:inline;opacity:1;fill:none;fill-opacity:1;stroke:#100000;stroke-width:0.01;stroke-linecap:butt;stroke-linejoin:miter;stroke-miterlimit:4;stroke-dasharray:none;stroke-opacity:1" />
    <path
       id="path906"
       d="m -80.319989,-146.58123 c -2.662105,-2e-4 -4.820301,2.15775 -4.820377,4.81986 h 0.774631 c -1.48e-4,-2.23455 1.811197,-4.04612 4.045746,-4.04626 z"
       style="display:inline;opacity:1;fill:none;fill-opacity:1;stroke:#100000;stroke-width:0.01;stroke-linecap:butt;stroke-linejoin:miter;stroke-miterlimit:4;stroke-dasharray:none;stroke-opacity:1" />
    <path
       id="path904"
       d="m -58.024192,-148.12945 v 0.77411 c 3.089431,9e-5 5.593887,2.50453 5.593974,5.59397 h 0.774113 c 4.7e-5,-3.51702 -2.851071,-6.36813 -6.368087,-6.36808 z"
       style="display:inline;opacity:1;fill:none;fill-opacity:1;stroke:#100000;stroke-width:0.01;stroke-linecap:butt;stroke-linejoin:miter;stroke-miterlimit:4;stroke-dasharray:none;stroke-opacity:1" />
    <path
       id="path902"
       d="m -80.319989,-148.12945 c -3.517016,-6e-5 -6.368134,2.85106 -6.368087,6.36808 h 0.774113 c 8.7e-5,-3.08944 2.504543,-5.59388 5.593974,-5.59397 z"
       style="display:inline;opacity:1;fill:none;fill-opacity:1;stroke:#100000;stroke-width:0.01;stroke-linecap:butt;stroke-linejoin:miter;stroke-miterlimit:4;stroke-dasharray:none;stroke-opacity:1" />
    <path
       id="path857-8-0-9"
       d="m -69.24004,-154.85928 c -0.056,0 -0.154625,0.0693 -0.289907,0.18862 l -0.168465,0.14883 -0.29042,0.0176 c -0.15956,0.01 -0.326528,0.0326 -0.371039,0.0517 -0.139401,0.0598 -0.437602,0.27348 -0.472321,0.33848 l -0.03307,0.062 -0.151929,-0.10904 c -0.0836,-0.0602 -0.188531,-0.13573 -0.23306,-0.16743 -0.0445,-0.0317 -0.108599,-0.0574 -0.142627,-0.0574 -0.034,0 -0.0845,-0.0123 -0.111622,-0.0269 -0.10496,-0.0562 -0.164542,0.0352 -0.34313,0.52296 -0.0734,0.20063 -0.08511,0.20623 -0.500745,0.24443 -0.203261,0.0187 -0.38961,0.0444 -0.413928,0.0568 -0.02429,0.0125 -0.118647,0.0783 -0.209806,0.14727 -0.0912,0.069 -0.241195,0.16761 -0.333315,0.21911 -0.14343,0.0803 -0.167431,0.10415 -0.167431,0.16485 0,0.0866 -0.281455,1.10481 -0.380854,1.37769 -0.0395,0.10846 -0.11003,0.30032 -0.15658,0.42582 l -0.08475,0.22789 0.03307,0.24546 c 0.0181,0.13487 0.04959,0.27416 0.07028,0.31006 0.051,0.0886 0.818441,0.58757 0.903822,0.58756 0.09,0 0.177766,-0.0876 0.177766,-0.17725 0,-0.0481 -0.065,-0.17058 -0.19172,-0.36018 -0.235841,-0.35299 -0.239479,-0.38648 -0.06253,-0.55397 0.198689,-0.18816 0.235247,-0.20496 0.480076,-0.22376 0.1221,-0.009 0.314248,-0.0274 0.426847,-0.0403 0.112591,-0.0128 0.293534,-0.0287 0.402042,-0.0367 l 0.197403,-0.0139 0.09199,0.16433 c 0.0506,0.0904 0.177848,0.26295 0.283187,0.38344 l 0.191719,0.21911 h 0.200504 c 0.142735,0 0.209405,-0.0107 0.230995,-0.0367 0.0259,-0.0312 0.0546,-0.0261 0.194304,0.0367 0.09,0.0404 0.276138,0.11151 0.413928,0.15761 0.244459,0.0818 0.263019,0.084 0.768429,0.093 0.0553,0.001 0.06599,-0.001 0.111104,-5.2e-4 0.0451,-4.7e-4 0.0559,0.001 0.111104,5.2e-4 0.50541,-0.009 0.52397,-0.0112 0.768429,-0.093 0.137779,-0.0461 0.323927,-0.11721 0.413928,-0.15761 0.139731,-0.0628 0.168402,-0.0679 0.194302,-0.0367 0.02159,0.026 0.0883,0.0367 0.230994,0.0367 h 0.200504 l 0.19172,-0.21911 c 0.105338,-0.1205 0.232587,-0.29304 0.283189,-0.38344 l 0.09198,-0.16433 0.197406,0.0139 c 0.108518,0.008 0.289451,0.0239 0.402042,0.0367 0.112596,0.0129 0.304747,0.0313 0.426847,0.0403 0.24484,0.0188 0.281384,0.0356 0.480073,0.22376 0.176922,0.16749 0.173281,0.20098 -0.06253,0.55397 -0.126719,0.1896 -0.19172,0.31208 -0.19172,0.36018 0,0.0896 0.0878,0.17726 0.177769,0.17725 0.0854,0 0.85282,-0.49896 0.903819,-0.58756 0.02069,-0.0359 0.05218,-0.17519 0.07028,-0.31006 l 0.03307,-0.24546 -0.08475,-0.22789 c -0.0465,-0.1255 -0.11708,-0.31736 -0.15658,-0.42582 -0.0994,-0.27288 -0.380854,-1.29109 -0.380854,-1.37769 0,-0.0607 -0.024,-0.0846 -0.167434,-0.16485 -0.0921,-0.0515 -0.242112,-0.15011 -0.333312,-0.21911 -0.0912,-0.069 -0.185517,-0.13477 -0.209806,-0.14727 -0.02429,-0.0124 -0.210667,-0.0383 -0.413928,-0.0568 -0.415676,-0.0382 -0.427344,-0.0438 -0.500745,-0.24443 -0.178588,-0.48776 -0.238172,-0.57916 -0.343133,-0.52296 -0.0272,0.0146 -0.0776,0.0269 -0.111619,0.0269 -0.034,0 -0.0981,0.0257 -0.142627,0.0574 -0.0445,0.0317 -0.14946,0.10723 -0.23306,0.16743 l -0.15193,0.10904 -0.03307,-0.062 c -0.0347,-0.065 -0.332934,-0.27868 -0.472324,-0.33848 -0.0445,-0.0191 -0.211476,-0.0417 -0.371036,-0.0517 l -0.290422,-0.0176 -0.168466,-0.14883 c -0.135281,-0.11931 -0.234635,-0.18862 -0.289904,-0.18862 z"
       style="display:inline;opacity:1;fill:none;fill-opacity:1;stroke:#100000;stroke-width:0.01;stroke-linecap:butt;stroke-linejoin:miter;stroke-miterlimit:4;stroke-dasharray:none;stroke-opacity:1" />
  </g>
</svg>
