<?xml version="1.0" encoding="UTF-8" standalone="no"?>
<svg
   xmlns:dc="http://purl.org/dc/elements/1.1/"
   xmlns:cc="http://creativecommons.org/ns#"
   xmlns:rdf="http://www.w3.org/1999/02/22-rdf-syntax-ns#"
   xmlns:svg="http://www.w3.org/2000/svg"
   xmlns="http://www.w3.org/2000/svg"
   xmlns:sodipodi="http://sodipodi.sourceforge.net/DTD/sodipodi-0.dtd"
   xmlns:inkscape="http://www.inkscape.org/namespaces/inkscape"
   width="210mm"
   height="297mm"
   viewBox="0 0 210 297"
   version="1.1"
   id="svg8"
   inkscape:version="1.0 (4035a4fb49, 2020-05-01)"
   sodipodi:docname="scrollwheel.svg">
  <defs
     id="defs2">
    <inkscape:path-effect
       effect="skeletal"
       id="path-effect1013"
       is_visible="true"
       lpeversion="1"
       pattern="#rect1026-62-3-7-6"
       copytype="single_stretched"
       prop_scale="1"
       scale_y_rel="false"
       spacing="0"
       normal_offset="0"
       tang_offset="0"
       prop_units="false"
       vertical_pattern="false"
       hide_knot="false"
       fuse_tolerance="0" />
    <inkscape:path-effect
       effect="skeletal"
       id="path-effect973"
       is_visible="true"
       lpeversion="1"
       pattern="#rect1026-62-3-7-6"
       copytype="single_stretched"
       prop_scale="1.4632385"
       scale_y_rel="false"
       spacing="0"
       normal_offset="0"
       tang_offset="0"
       prop_units="false"
       vertical_pattern="false"
       hide_knot="false"
       fuse_tolerance="0" />
    <inkscape:path-effect
       effect="skeletal"
       id="path-effect2946"
       is_visible="true"
       lpeversion="1"
       pattern="m -2.1093355,73.943835 v 7.663187 H 10.289505 V 74.671004 H 3.0826843 v 5.618967 H 8.927196 V 75.851523 H 4.4419791 v 3.258684 H 7.5671465 V 77.028269 H 5.8050444 v 0.904436 H 6.2070991 V 77.48162 L 6.3436256,77.342072 H 7.025535 l 0.1395481,0.139548 v 1.177501 L 7.025535,78.799428 H 4.9865947 L 4.8470466,78.659121 v -2.357267 l 0.1395481,-0.140307 h 3.398235 l 0.1403072,0.140307 V 79.83964 L 8.3848297,79.976166 H 3.6242842 L 3.483977,79.836618 v -4.712265 l 0.1403072,-0.139548 h 6.1236122 l 0.1365265,0.139548 v 5.892788 L 9.7478964,81.156689 H 2.2642362 L 2.1246881,81.017141 v -7.073306 z m 4.5131271,0 v 6.936773 H 9.6083512 V 75.260887 H 3.7638395 v 4.439202 H 8.2483003 V 76.441404 H 5.123889 v 2.081183 H 6.8882538 V 77.618905 H 6.4831825 v 0.450333 L 6.3436344,78.208787 H 5.6654963 L 5.5282108,78.069238 v -1.177501 l 0.1372855,-0.139548 h 2.0412041 l 0.1395481,0.139548 v 2.35802 L 7.7067004,79.389305 H 4.3054482 L 4.1659001,79.249757 v -3.538538 l 0.1395481,-0.136527 h 4.7612973 l 0.1395481,0.139548 v 4.713023 L 9.0667455,80.566811 H 2.9454002 L 2.8058521,80.427263 v -5.893546 l 0.1395481,-0.139548 h 7.4813958 l 0.139549,0.139548 v 7.073305 h 4.234779 12.398841 v -6.936018 h -7.206822 v 5.618967 h 5.844508 v -4.438448 h -4.485217 v 3.258684 h 3.125171 V 77.028269 H 22.7155 v 0.904436 h 0.402054 V 77.48162 l 0.136541,-0.139548 H 23.936 l 0.139548,0.139548 v 1.177501 L 23.936,78.799428 h -2.038937 l -0.139549,-0.140307 v -2.357267 l 0.139549,-0.140307 h 3.398235 l 0.140307,0.140307 v 3.537786 l -0.140307,0.136526 h -4.760553 l -0.140307,-0.139548 v -4.712265 l 0.140307,-0.139548 h 6.12361 l 0.136541,0.139548 v 5.892788 l -0.136541,0.139548 H 19.174698 L 19.03515,81.017141 v -7.073306 h -4.234026 z m 16.9104594,0 v 6.936773 h 7.204554 v -5.619721 h -5.844508 v 4.439202 h 4.484463 v -3.258685 h -3.124413 v 2.081183 h 1.764366 V 77.618905 H 23.39364 v 0.450333 l -0.139548,0.139549 h -0.678138 l -0.137286,-0.139549 v -1.177501 l 0.137286,-0.139548 h 2.041205 l 0.139548,0.139548 v 2.35802 l -0.139548,0.139548 h -3.401252 l -0.139548,-0.139548 v -3.538538 l 0.139548,-0.136527 h 4.761298 l 0.139548,0.139548 v 4.713023 l -0.139548,0.139548 H 19.855858 L 19.71631,80.427263 v -5.893546 l 0.139548,-0.139548 h 7.481397 l 0.139548,0.139548 v 7.073305 h 4.234784 12.398839 v -6.936018 h -7.20682 v 5.618967 h 5.844509 v -4.438448 h -4.485214 v 3.258684 h 3.125162 v -2.081938 h -1.762104 v 0.904436 h 0.402058 V 77.48162 l 0.136541,-0.139548 h 0.681908 l 0.139548,0.139548 v 1.177501 l -0.139548,0.140307 h -2.038942 l -0.139548,-0.140307 v -2.357267 l 0.139548,-0.140307 h 3.398235 l 0.140308,0.140307 v 3.537786 l -0.140308,0.136526 h -4.760544 l -0.140307,-0.139548 v -4.712265 l 0.140307,-0.139548 h 6.123611 l 0.136527,0.139548 v 5.892788 l -0.136527,0.139548 h -7.483659 l -0.139548,-0.139548 v -7.073306 h -4.234025 z m 16.910455,0 v 6.936773 h 7.20456 v -5.619721 h -5.844509 v 4.439202 h 4.484463 v -3.258685 h -3.124416 v 2.081183 h 1.764365 v -0.903682 h -0.405071 v 0.450333 l -0.139548,0.139549 h -0.678136 l -0.137286,-0.139549 v -1.177501 l 0.137286,-0.139548 h 2.041202 l 0.139548,0.139548 v 2.35802 l -0.139548,0.139548 h -3.401253 l -0.139548,-0.139548 v -3.538538 l 0.139548,-0.136527 h 4.761301 l 0.139548,0.139548 v 4.713023 l -0.139548,0.139548 h -6.121348 l -0.139548,-0.139548 v -5.893546 l 0.139548,-0.139548 h 7.481394 l 0.139548,0.139548 v 7.073305 h 4.234783 12.398842 v -6.936018 h -7.206824 v 5.618967 h 5.844514 v -4.438448 h -4.485222 v 3.258684 h 3.125171 V 77.028269 H 56.53642 v 0.904436 h 0.402057 V 77.48162 l 0.136526,-0.139548 h 0.681913 l 0.139548,0.139548 v 1.177501 l -0.139548,0.140307 h -2.038941 l -0.139548,-0.140307 v -2.357267 l 0.139548,-0.140307 h 3.398234 l 0.140307,0.140307 v 3.537786 l -0.140307,0.136526 h -4.760543 l -0.140307,-0.139548 v -4.712265 l 0.140307,-0.139548 h 6.123611 l 0.136527,0.139548 v 5.892788 l -0.136527,0.139548 h -7.483662 l -0.139548,-0.139548 v -7.073306 h -4.234025 z m 16.910462,0 v 6.936773 h 7.204558 v -5.619721 h -5.844513 v 4.439202 h 4.484465 v -3.258685 h -3.124414 v 2.081183 h 1.764368 v -0.903682 h -0.405075 v 0.450333 l -0.139548,0.139549 h -0.678141 l -0.137286,-0.139549 v -1.177501 l 0.137286,-0.139548 h 2.041205 l 0.139548,0.139548 v 2.35802 l -0.139548,0.139548 h -3.401252 l -0.139548,-0.139548 v -3.538538 l 0.139548,-0.136527 h 4.761298 l 0.139548,0.139548 v 4.713023 l -0.139548,0.139548 h -6.121348 l -0.139549,-0.139548 v -5.893546 l 0.139549,-0.139548 h 7.481398 l 0.139548,0.139548 v 7.073305 h 4.234779 v -7.663187 z"
       copytype="single_stretched"
       prop_scale="1"
       scale_y_rel="false"
       spacing="0"
       normal_offset="0"
       tang_offset="0"
       prop_units="false"
       vertical_pattern="false"
       hide_knot="false"
       fuse_tolerance="0" />
    <inkscape:path-effect
       effect="skeletal"
       id="path-effect2045"
       is_visible="true"
       lpeversion="1"
       pattern="m 0,18 v 5.249808 H 8.4940547 V 18.498161 H 3.556889 v 3.849377 H 7.5607797 V 19.306897 H 4.488099 v 2.232422 h 2.1409537 v -1.42627 H 5.4218921 v 0.6196 h 0.275435 v -0.309024 l 0.09353,-0.0956 h 0.4671546 l 0.0956,0.0956 v 0.806669 l -0.0956,0.09612 H 4.861198 l -0.0956,-0.09612 v -1.614889 l 0.0956,-0.09612 h 2.3280237 l 0.09612,0.09612 v 2.423625 l -0.09612,0.09353 H 3.927922 l -0.09612,-0.0956 v -3.228224 l 0.09612,-0.0956 h 4.1950937 l 0.09353,0.0956 v 4.036963 l -0.09353,0.0956 H 2.996196 l -0.0956,-0.0956 V 18 Z m 3.091801,0 v 4.752165 H 8.0274177 V 18.902271 H 4.023527 v 3.041157 H 7.0956897 V 19.711006 H 4.955254 v 1.425753 H 6.1639647 V 20.517675 H 5.8864631 v 0.308509 l -0.0956,0.0956 h -0.464571 l -0.09405,-0.0956 v -0.806669 l 0.09405,-0.0956 h 1.3983646 l 0.0956,0.0956 v 1.615405 l -0.0956,0.0956 H 4.394566 l -0.0956,-0.0956 v -2.424141 l 0.0956,-0.09353 h 3.2618147 l 0.0956,0.0956 v 3.228743 l -0.0956,0.0956 H 3.46284 l -0.0956,-0.0956 V 18.40411 l 0.0956,-0.0956 h 5.1252687 l 0.0956,0.0956 v 4.845698 h 2.9011143 8.494055 v -4.751647 h -4.937166 v 3.849377 H 19.1456 v -3.040641 h -3.072681 v 2.232422 h 2.140956 v -1.42627 h -1.207162 v 0.6196 h 0.275434 v -0.309024 l 0.09354,-0.0956 h 0.467152 l 0.0956,0.0956 v 0.806669 l -0.0956,0.09612 h -1.396812 l -0.0956,-0.09612 v -1.614889 l 0.0956,-0.09612 h 2.328024 l 0.09612,0.09612 v 2.423625 l -0.09612,0.09353 h -3.261305 l -0.09612,-0.0956 v -3.228224 l 0.09612,-0.0956 h 4.195092 l 0.09354,0.0956 v 4.036963 l -0.09354,0.0956 h -5.126817 l -0.0956,-0.0956 V 18 h -2.900598 z m 11.584823,0 v 4.752165 h 4.935613 v -3.849894 h -4.003888 v 3.041157 h 3.072164 v -2.232422 h -2.140437 v 1.425753 h 1.208712 v -0.619084 h -0.277503 v 0.308509 l -0.0956,0.0956 h -0.464571 l -0.09405,-0.0956 v -0.806669 l 0.09405,-0.0956 h 1.398365 l 0.0956,0.0956 v 1.615405 l -0.0956,0.0956 h -2.33009 l -0.0956,-0.0956 v -2.424141 l 0.0956,-0.09353 h 3.261815 l 0.0956,0.0956 v 3.228743 l -0.0956,0.0956 h -4.193542 l -0.0956,-0.0956 V 18.40411 l 0.0956,-0.0956 h 5.125269 l 0.0956,0.0956 v 4.845698 h 2.901117 8.494054 v -4.751647 h -4.937165 v 3.849377 h 4.003889 v -3.040641 h -3.072679 v 2.232422 h 2.14095 v -1.42627 h -1.207162 v 0.6196 h 0.275437 v -0.309024 l 0.09354,-0.0956 h 0.467154 l 0.0956,0.0956 v 0.806669 l -0.0956,0.09612 h -1.396815 l -0.0956,-0.09612 v -1.614889 l 0.0956,-0.09612 h 2.328024 l 0.09612,0.09612 v 2.423625 l -0.09612,0.09353 h -3.261299 l -0.09612,-0.0956 v -3.228224 l 0.09612,-0.0956 h 4.195093 l 0.09353,0.0956 v 4.036963 l -0.09353,0.0956 H 26.16585 l -0.0956,-0.0956 V 18 h -2.900597 z m 11.58482,0 v 4.752165 h 4.935617 v -3.849894 h -4.003889 v 3.041157 h 3.072164 v -2.232422 h -2.140439 v 1.425753 h 1.208711 v -0.619084 h -0.277501 v 0.308509 l -0.0956,0.0956 h -0.46457 l -0.09405,-0.0956 v -0.806669 l 0.09405,-0.0956 H 29.8943 l 0.0956,0.0956 v 1.615405 l -0.0956,0.0956 h -2.330091 l -0.0956,-0.0956 v -2.424141 l 0.0956,-0.09353 h 3.261817 l 0.0956,0.0956 v 3.228743 l -0.0956,0.0956 h -4.193542 l -0.0956,-0.0956 V 18.40411 l 0.0956,-0.0956 h 5.125267 l 0.0956,0.0956 v 4.845698 h 2.901116 8.494056 v -4.751647 h -4.937168 v 3.849377 h 4.003892 v -3.040641 h -3.072684 v 2.232422 h 2.140956 v -1.42627 h -1.20716 v 0.6196 h 0.275436 v -0.309024 l 0.09353,-0.0956 h 0.467157 l 0.0956,0.0956 v 0.806669 l -0.0956,0.09612 h -1.396814 l -0.0956,-0.09612 v -1.614889 l 0.0956,-0.09612 h 2.328023 l 0.09612,0.09612 v 2.423625 l -0.09612,0.09353 h -3.261298 l -0.09612,-0.0956 v -3.228224 l 0.09612,-0.0956 h 4.195093 l 0.09353,0.0956 v 4.036963 l -0.09353,0.0956 h -5.126821 l -0.0956,-0.0956 V 18 h -2.900597 z m 11.584824,0 v 4.752165 h 4.935616 v -3.849894 h -4.003892 v 3.041157 h 3.072166 V 19.711006 H 39.70972 v 1.425753 h 1.208713 v -0.619084 h -0.277504 v 0.308509 l -0.0956,0.0956 h -0.464573 l -0.09405,-0.0956 v -0.806669 l 0.09405,-0.0956 h 1.398365 l 0.0956,0.0956 v 1.615405 l -0.0956,0.0956 h -2.33009 l -0.0956,-0.0956 v -2.424141 l 0.0956,-0.09353 h 3.261815 l 0.0956,0.0956 v 3.228743 l -0.0956,0.0956 h -4.193543 l -0.0956,-0.0956 V 18.40411 l 0.0956,-0.0956 h 5.12527 l 0.0956,0.0956 v 4.845698 h 2.901114 V 18 Z"
       copytype="single_stretched"
       prop_scale="1"
       scale_y_rel="false"
       spacing="0"
       normal_offset="0"
       tang_offset="0"
       prop_units="false"
       vertical_pattern="false"
       hide_knot="false"
       fuse_tolerance="0" />
    <inkscape:path-effect
       fuse_tolerance="0"
       hide_knot="false"
       vertical_pattern="false"
       prop_units="false"
       tang_offset="0"
       normal_offset="0"
       spacing="0"
       scale_y_rel="false"
       prop_scale="1"
       copytype="single_stretched"
       pattern="M -5.8467689,-3.1323581 V 4.5308292 H 6.5520716 V -2.4051885 H -0.65474913 V 3.2137783 H 5.1897626 V -1.22467 H 0.70454565 V 2.0340145 H 3.8297131 V -0.04792336 H 2.067611 V 0.85651178 H 2.4696657 V 0.40542694 L 2.6061922,0.26587885 H 3.2881016 L 3.4276497,0.40542694 V 1.5829282 L 3.2881016,1.7232354 H 1.2491613 L 1.1096132,1.5829282 v -2.35726654 l 0.1395481,-0.14030714 h 3.398235 l 0.1403072,0.14030714 V 2.7634467 L 4.6473963,2.8999732 H -0.11314925 L -0.25345639,2.7604251 v -4.7122647 l 0.14030714,-0.1395481 H 6.010463 l 0.1365265,0.1395481 V 3.940948 L 6.010463,4.0804961 H -1.4731972 L -1.6127453,3.940948 v -7.0733061 z m 4.5131271,0 V 3.8044156 H 5.8709178 V -1.8153058 H 0.02640614 V 2.6238957 H 4.5108669 V -0.63478878 H 1.3864556 V 1.4463944 H 3.1508204 V 0.54271249 H 2.7457491 V 0.99304558 L 2.606201,1.1325937 H 1.9280629 L 1.7907774,0.99304558 V -0.1844557 L 1.9280629,-0.32400379 H 3.969267 L 4.1088151,-0.1844557 V 2.1735641 L 3.969267,2.3131122 H 0.56801478 L 0.42846668,2.1735641 v -3.5385383 l 0.1395481,-0.1365265 H 5.3293121 l 0.1395481,0.1395481 V 3.3510697 L 5.3293121,3.4906178 h -6.12134531 l -0.1395481,-0.1395481 v -5.8935452 l 0.1395481,-0.1395481 H 6.689363 l 0.1395481,0.1395481 V 4.5308292 H 11.063691 23.462532 V -2.4051885 H 16.25571 v 5.6189668 h 5.844508 V -1.22467 h -4.485217 v 3.2586845 h 3.125171 v -2.08193786 h -1.762105 v 0.90443514 h 0.402054 V 0.40542694 l 0.136541,-0.13954809 h 0.681905 l 0.139548,0.13954809 V 1.5829282 L 20.198567,1.7232354 H 18.15963 L 18.020081,1.5829282 v -2.35726654 l 0.139549,-0.14030714 h 3.398235 l 0.140307,0.14030714 V 2.7634467 L 21.557865,2.8999732 H 16.797312 L 16.657005,2.7604251 v -4.7122647 l 0.140307,-0.1395481 h 6.12361 l 0.136541,0.1395481 V 3.940948 L 22.920922,4.0804961 H 15.437265 L 15.297717,3.940948 v -7.0733061 h -4.234026 z m 16.9104598,0 v 6.9367737 h 7.204554 v -5.6197214 h -5.844508 v 4.4392015 h 4.484463 V -0.63478878 H 18.296914 V 1.4463944 H 20.06128 V 0.54271249 H 19.656207 V 0.99304558 L 19.516659,1.1325937 H 18.838521 L 18.701235,0.99304558 V -0.1844557 l 0.137286,-0.13954809 h 2.041205 l 0.139548,0.13954809 V 2.1735641 L 20.879726,2.3131122 H 17.478474 L 17.338926,2.1735641 v -3.5385383 l 0.139548,-0.1365265 h 4.761298 l 0.139548,0.1395481 V 3.3510697 L 22.239772,3.4906178 H 16.118425 L 15.978877,3.3510697 v -5.8935452 l 0.139548,-0.1395481 h 7.481397 l 0.139548,0.1395481 v 7.0733047 h 4.234784 12.398839 v -6.9360177 h -7.20682 v 5.6189668 h 5.844509 V -1.22467 h -4.485214 v 3.2586845 h 3.125162 v -2.08193786 h -1.762104 v 0.90443514 h 0.402058 V 0.40542694 l 0.136541,-0.13954809 h 0.681908 l 0.139548,0.13954809 V 1.5829282 L 37.109033,1.7232354 H 35.070091 L 34.930543,1.5829282 v -2.35726654 l 0.139548,-0.14030714 h 3.398235 l 0.140308,0.14030714 V 2.7634467 L 38.468326,2.8999732 H 33.707782 L 33.567475,2.7604251 v -4.7122647 l 0.140307,-0.1395481 h 6.123611 l 0.136527,0.1395481 V 3.940948 L 39.831393,4.0804961 H 32.347734 L 32.208186,3.940948 v -7.0733061 h -4.234025 z m 16.910455,0 v 6.9367737 h 7.20456 v -5.6197214 h -5.844509 v 4.4392015 h 4.484463 V -0.63478878 H 35.207371 V 1.4463944 h 1.764365 V 0.54271249 H 36.566665 V 0.99304558 L 36.427117,1.1325937 H 35.748981 L 35.611695,0.99304558 V -0.1844557 l 0.137286,-0.13954809 h 2.041202 l 0.139548,0.13954809 V 2.1735641 L 37.790183,2.3131122 H 34.38893 L 34.249382,2.1735641 v -3.5385383 l 0.139548,-0.1365265 h 4.761301 l 0.139548,0.1395481 V 3.3510697 L 39.150231,3.4906178 H 33.028883 L 32.889335,3.3510697 v -5.8935452 l 0.139548,-0.1395481 h 7.481394 l 0.139548,0.1395481 V 4.5308292 H 44.884608 57.28345 V -2.4051885 H 50.076626 V 3.2137783 H 55.92114 V -1.22467 h -4.485222 v 3.2586845 h 3.125171 v -2.08193786 h -1.762102 v 0.90443514 h 0.402057 V 0.40542694 L 53.33757,0.26587885 h 0.681913 l 0.139548,0.13954809 V 1.5829282 L 54.019483,1.7232354 H 51.980542 L 51.840994,1.5829282 v -2.35726654 l 0.139548,-0.14030714 h 3.398234 l 0.140307,0.14030714 V 2.7634467 L 55.378776,2.8999732 H 50.618233 L 50.477926,2.7604251 v -4.7122647 l 0.140307,-0.1395481 h 6.123611 l 0.136527,0.1395481 V 3.940948 L 56.741844,4.0804961 H 49.258182 L 49.118634,3.940948 v -7.0733061 h -4.234025 z m 16.910462,0 v 6.9367737 h 7.204558 V -1.8153058 H 50.75778 v 4.4392015 h 4.484465 V -0.63478878 H 52.117831 V 1.4463944 h 1.764368 V 0.54271249 H 53.477124 V 0.99304558 L 53.337576,1.1325937 H 52.659435 L 52.522149,0.99304558 V -0.1844557 l 0.137286,-0.13954809 h 2.041205 l 0.139548,0.13954809 V 2.1735641 L 54.70064,2.3131122 H 51.299388 L 51.15984,2.1735641 v -3.5385383 l 0.139548,-0.1365265 h 4.761298 l 0.139548,0.1395481 V 3.3510697 L 56.060686,3.4906178 H 49.939338 L 49.799789,3.3510697 v -5.8935452 l 0.139549,-0.1395481 h 7.481398 l 0.139548,0.1395481 v 7.0733047 h 4.234779 v -7.6631873 z"
       lpeversion="1"
       is_visible="true"
       id="path-effect951"
       effect="skeletal" />
    <inkscape:path-effect
       effect="skeletal"
       id="path-effect1386"
       is_visible="true"
       lpeversion="1"
       pattern="m 53.484375,131.90039 v 19.8418 h 11.193359 a 0.37799055,0.37799055 0 0 1 0.08008,-0.72266 l 18.234376,-2.36133 -18.234376,-2.36328 a 0.37799055,0.37799055 0 0 1 0,-0.74609 l 18.234376,-2.36133 -18.234376,-2.35547 a 0.37799055,0.37799055 0 0 1 0,-0.75195 l 18.25586,-2.36328 -18.25586,-2.35352 a 0.37799055,0.37799055 0 0 1 0,-0.7539 l 18.25586,-2.35547 -2.732422,-0.35352 z m 32.587891,0 a 0.37799055,0.37799055 0 0 1 -0.07617,0.72266 l -18.226563,2.36328 18.226563,2.36133 a 0.37799055,0.37799055 0 0 1 0,0.74609 l -18.226563,2.36133 18.226563,2.35547 a 0.37799055,0.37799055 0 0 1 0,0.7539 l -18.248047,2.36133 18.248047,2.35547 a 0.37799055,0.37799055 0 0 1 0,0.75195 l -18.248047,2.35547 2.732422,0.35352 h 26.791015 11.193356 a 0.37799055,0.37799055 0 0 1 0.0801,-0.72266 l 18.23438,-2.36133 -18.23438,-2.36328 a 0.37799055,0.37799055 0 0 1 0,-0.74609 l 18.23438,-2.36133 -18.23438,-2.35547 a 0.37799055,0.37799055 0 0 1 0,-0.75195 l 18.25586,-2.36328 -18.25586,-2.35352 a 0.37799055,0.37799055 0 0 1 0,-0.7539 l 18.25586,-2.35547 -2.73242,-0.35352 H 97.271484 Z m 43.787114,0 a 0.37799055,0.37799055 0 0 1 -0.0762,0.72266 l -18.22656,2.36328 18.22656,2.36133 a 0.37799055,0.37799055 0 0 1 0,0.74609 l -18.22656,2.36133 18.22656,2.35547 a 0.37799055,0.37799055 0 0 1 0,0.7539 l -18.24804,2.36133 18.24804,2.35547 a 0.37799055,0.37799055 0 0 1 0,0.75195 l -18.24804,2.35547 2.73242,0.35352 h 26.79101 11.19336 a 0.37799055,0.37799055 0 0 1 0.0801,-0.72266 l 18.23438,-2.36133 -18.23438,-2.36328 a 0.37799055,0.37799055 0 0 1 0,-0.74609 l 18.23438,-2.36133 -18.23438,-2.35547 a 0.37799055,0.37799055 0 0 1 0,-0.75195 l 18.25586,-2.36328 -18.25586,-2.35352 a 0.37799055,0.37799055 0 0 1 0,-0.7539 l 18.25586,-2.35547 -2.73242,-0.35352 h -26.79688 z m 43.7871,0 a 0.37799055,0.37799055 0 0 1 -0.0762,0.72266 l -18.22656,2.36328 18.22656,2.36133 a 0.37799055,0.37799055 0 0 1 0,0.74609 l -18.22656,2.36133 18.22656,2.35547 a 0.37799055,0.37799055 0 0 1 0,0.7539 l -18.24804,2.36133 18.24804,2.35547 a 0.37799055,0.37799055 0 0 1 0,0.75195 l -18.24804,2.35547 2.73242,0.35352 h 26.79101 11.19336 a 0.37799055,0.37799055 0 0 1 0.0801,-0.72266 l 18.23438,-2.36133 -18.23438,-2.36328 a 0.37799055,0.37799055 0 0 1 0,-0.74609 l 18.23438,-2.36133 -18.23438,-2.35547 a 0.37799055,0.37799055 0 0 1 0,-0.75195 l 18.25586,-2.36328 -18.25586,-2.35352 a 0.37799055,0.37799055 0 0 1 0,-0.7539 l 18.25586,-2.35547 -2.73242,-0.35352 H 184.8457 Z m 43.78711,0 a 0.37799055,0.37799055 0 0 1 -0.0762,0.72266 l -18.22656,2.36328 18.22656,2.36133 a 0.37799055,0.37799055 0 0 1 0,0.74609 l -18.22656,2.36133 18.22656,2.35547 a 0.37799055,0.37799055 0 0 1 0,0.7539 l -18.24804,2.36133 18.24804,2.35547 a 0.37799055,0.37799055 0 0 1 0,0.75195 l -18.24804,2.35547 2.73242,0.35352 h 26.79101 v -19.8418 z"
       copytype="single_stretched"
       prop_scale="0.26435757"
       scale_y_rel="false"
       spacing="0"
       normal_offset="0"
       tang_offset="0"
       prop_units="false"
       vertical_pattern="false"
       hide_knot="false"
       fuse_tolerance="0" />
    <inkscape:path-effect
       effect="skeletal"
       id="path-effect1144"
       is_visible="true"
       lpeversion="1"
       pattern="m 53.484375,131.90039 v 19.8418 h 11.193359 a 0.37799055,0.37799055 0 0 1 0.08008,-0.72266 l 18.234376,-2.36133 -18.234376,-2.36328 a 0.37799055,0.37799055 0 0 1 0,-0.74609 l 18.234376,-2.36133 -18.234376,-2.35547 a 0.37799055,0.37799055 0 0 1 0,-0.75195 l 18.25586,-2.36328 -18.25586,-2.35352 a 0.37799055,0.37799055 0 0 1 0,-0.7539 l 18.25586,-2.35547 -2.732422,-0.35352 z m 32.587891,0 a 0.37799055,0.37799055 0 0 1 -0.07617,0.72266 l -18.226563,2.36328 18.226563,2.36133 a 0.37799055,0.37799055 0 0 1 0,0.74609 l -18.226563,2.36133 18.226563,2.35547 a 0.37799055,0.37799055 0 0 1 0,0.7539 l -18.248047,2.36133 18.248047,2.35547 a 0.37799055,0.37799055 0 0 1 0,0.75195 l -18.248047,2.35547 2.732422,0.35352 h 26.791015 11.193356 a 0.37799055,0.37799055 0 0 1 0.0801,-0.72266 l 18.23438,-2.36133 -18.23438,-2.36328 a 0.37799055,0.37799055 0 0 1 0,-0.74609 l 18.23438,-2.36133 -18.23438,-2.35547 a 0.37799055,0.37799055 0 0 1 0,-0.75195 l 18.25586,-2.36328 -18.25586,-2.35352 a 0.37799055,0.37799055 0 0 1 0,-0.7539 l 18.25586,-2.35547 -2.73242,-0.35352 H 97.271484 Z m 43.787114,0 a 0.37799055,0.37799055 0 0 1 -0.0762,0.72266 l -18.22656,2.36328 18.22656,2.36133 a 0.37799055,0.37799055 0 0 1 0,0.74609 l -18.22656,2.36133 18.22656,2.35547 a 0.37799055,0.37799055 0 0 1 0,0.7539 l -18.24804,2.36133 18.24804,2.35547 a 0.37799055,0.37799055 0 0 1 0,0.75195 l -18.24804,2.35547 2.73242,0.35352 h 26.79101 11.19336 a 0.37799055,0.37799055 0 0 1 0.0801,-0.72266 l 18.23438,-2.36133 -18.23438,-2.36328 a 0.37799055,0.37799055 0 0 1 0,-0.74609 l 18.23438,-2.36133 -18.23438,-2.35547 a 0.37799055,0.37799055 0 0 1 0,-0.75195 l 18.25586,-2.36328 -18.25586,-2.35352 a 0.37799055,0.37799055 0 0 1 0,-0.7539 l 18.25586,-2.35547 -2.73242,-0.35352 h -26.79688 z m 43.7871,0 a 0.37799055,0.37799055 0 0 1 -0.0762,0.72266 l -18.22656,2.36328 18.22656,2.36133 a 0.37799055,0.37799055 0 0 1 0,0.74609 l -18.22656,2.36133 18.22656,2.35547 a 0.37799055,0.37799055 0 0 1 0,0.7539 l -18.24804,2.36133 18.24804,2.35547 a 0.37799055,0.37799055 0 0 1 0,0.75195 l -18.24804,2.35547 2.73242,0.35352 h 26.79101 11.19336 a 0.37799055,0.37799055 0 0 1 0.0801,-0.72266 l 18.23438,-2.36133 -18.23438,-2.36328 a 0.37799055,0.37799055 0 0 1 0,-0.74609 l 18.23438,-2.36133 -18.23438,-2.35547 a 0.37799055,0.37799055 0 0 1 0,-0.75195 l 18.25586,-2.36328 -18.25586,-2.35352 a 0.37799055,0.37799055 0 0 1 0,-0.7539 l 18.25586,-2.35547 -2.73242,-0.35352 H 184.8457 Z m 43.78711,0 a 0.37799055,0.37799055 0 0 1 -0.0762,0.72266 l -18.22656,2.36328 18.22656,2.36133 a 0.37799055,0.37799055 0 0 1 0,0.74609 l -18.22656,2.36133 18.22656,2.35547 a 0.37799055,0.37799055 0 0 1 0,0.7539 l -18.24804,2.36133 18.24804,2.35547 a 0.37799055,0.37799055 0 0 1 0,0.75195 l -18.24804,2.35547 2.73242,0.35352 h 26.79101 v -19.8418 z"
       copytype="single_stretched"
       prop_scale="0.92133787"
       scale_y_rel="false"
       spacing="0"
       normal_offset="0"
       tang_offset="0"
       prop_units="false"
       vertical_pattern="false"
       hide_knot="false"
       fuse_tolerance="0" />
    <inkscape:path-effect
       effect="skeletal"
       id="path-effect1137"
       is_visible="true"
       lpeversion="1"
       pattern="M 0,0 H 1"
       copytype="single_stretched"
       prop_scale="1"
       scale_y_rel="false"
       spacing="0"
       normal_offset="0"
       tang_offset="0"
       prop_units="false"
       vertical_pattern="false"
       hide_knot="false"
       fuse_tolerance="0" />
    <inkscape:path-effect
       effect="skeletal"
       id="path-effect1133"
       is_visible="true"
       lpeversion="1"
       pattern="m 25.431717,44.231745 v 4.58693 h 2.775712 l 2.946313,-0.755694 h -2.513218 l -0.03197,-0.227133 2.443955,-0.628013 h -2.490132 l -0.03074,-0.228434 2.705964,-0.694748 h -3.165446 l 2.495308,-1.385562 c 0.401648,-0.222645 0.803541,-0.445055 1.205434,-0.667228 z m 6.826649,0 c -0.03933,0.02243 -0.07869,0.0437 -0.118027,0.06496 -0.484265,0.267174 -0.968161,0.535411 -1.451956,0.803649 l -1.720558,0.954009 h 3.186651 l 0.03074,0.227016 -2.7055,0.694393 h 2.493906 l 0.03074,0.227135 -2.443953,0.628013 h 2.509922 l 0.03074,0.228434 -2.95904,0.759354 h 6.85634 2.775723 l 2.946302,-0.755813 h -2.513215 l -0.03197,-0.227133 2.443941,-0.628013 h -2.490129 l -0.03074,-0.228434 2.705966,-0.694746 h -3.165445 l 2.495319,-1.385564 c 0.401648,-0.222645 0.803541,-0.445055 1.205434,-0.667227 h -6.341205 z m 10.565147,0 c -0.03933,0.02243 -0.07869,0.0437 -0.118027,0.06496 -0.484261,0.267174 -0.968158,0.535411 -1.451942,0.803649 l -1.720572,0.954009 h 3.186655 l 0.03073,0.227016 -2.705486,0.694393 h 2.493895 l 0.03074,0.227135 -2.443942,0.628013 h 2.509926 l 0.03074,0.228434 -2.959041,0.759354 h 6.856351 2.77571 l 2.946305,-0.755813 h -2.514781 l -0.03197,-0.227133 2.443942,-0.628013 h -2.490119 l -0.03073,-0.228434 2.705966,-0.694746 h -3.165446 l 2.495305,-1.385564 c 0.401649,-0.222645 0.803544,-0.445055 1.205437,-0.667227 h -6.341255 z m 10.565145,0 c -0.03933,0.02243 -0.07869,0.0437 -0.118027,0.06496 -0.484264,0.267174 -0.968161,0.535411 -1.451945,0.803649 l -1.720569,0.954009 h 3.186652 l 0.03074,0.227016 -2.705501,0.694393 h 2.493906 l 0.03074,0.227135 -2.443956,0.628013 h 2.509926 l 0.03074,0.228434 -2.959041,0.759354 h 6.85634 2.775724 l 2.946313,-0.755813 h -2.513229 l -0.03197,-0.227133 2.443952,-0.628013 h -2.490132 l -0.03074,-0.228434 2.705978,-0.694746 h -3.165457 l 2.495316,-1.385564 c 0.401648,-0.222645 0.803544,-0.445055 1.205437,-0.667227 H 57.12859 Z m 10.565159,0 c -0.03933,0.02243 -0.07869,0.0437 -0.118027,0.06496 -0.484264,0.267174 -0.968161,0.535411 -1.451945,0.803649 l -1.720569,0.954009 h 3.186652 l 0.03073,0.227016 -2.7055,0.694393 h 2.493895 l 0.03074,0.227135 -2.443942,0.628013 h 2.509925 l 0.03074,0.228434 -2.959026,0.759354 h 6.85634 v -4.58693 z"
       copytype="single_stretched"
       prop_scale="1"
       scale_y_rel="false"
       spacing="0"
       normal_offset="0"
       tang_offset="0"
       prop_units="false"
       vertical_pattern="false"
       hide_knot="false"
       fuse_tolerance="0" />
    <inkscape:path-effect
       effect="skeletal"
       id="path-effect1123"
       is_visible="true"
       lpeversion="1"
       pattern="m 23.107633,39.827025 v 5.250326 h 3.043742 l 3.23081,-0.865063 h -2.755902 l -0.03514,-0.259932 2.67994,-0.71882 h -2.730582 l -0.03359,-0.261483 2.967262,-0.7953 h -3.471106 l 2.736266,-1.58595 c 0.440481,-0.254886 0.881107,-0.509465 1.321885,-0.763778 z m 7.485849,0 c -0.04306,0.0249 -0.08606,0.04958 -0.129193,0.07441 -0.530974,0.305867 -1.061657,0.612865 -1.592149,0.919843 L 26.985433,41.9132 h 3.49436 l 0.03307,0.259932 -2.966743,0.794785 h 2.734717 l 0.03307,0.259932 -2.679941,0.71882 h 2.752286 l 0.03307,0.261482 -3.244763,0.869196 h 7.518405 3.04374 l 3.230811,-0.865063 h -2.755902 l -0.03514,-0.259932 2.679941,-0.71882 H 38.12583 l -0.03359,-0.261483 2.967263,-0.7953 h -3.471106 l 2.736265,-1.58595 c 0.440481,-0.254886 0.881105,-0.509463 1.321885,-0.763778 h -6.953581 z m 11.585339,0 c -0.04306,0.0249 -0.08606,0.04958 -0.129193,0.07441 -0.530974,0.305864 -1.061657,0.612863 -1.592149,0.919843 L 38.570773,41.9132 h 3.49436 l 0.03307,0.259932 -2.966743,0.794785 h 2.734717 l 0.03307,0.259932 -2.679941,0.71882 h 2.752286 l 0.03307,0.261482 -3.244763,0.869196 h 7.518406 3.04374 l 3.23081,-0.865063 H 49.79695 l -0.03514,-0.259932 2.679941,-0.71882 h -2.730573 l -0.03359,-0.261483 2.967262,-0.7953 h -3.471105 l 2.736265,-1.58595 c 0.440481,-0.254886 0.881107,-0.509465 1.321885,-0.763778 h -6.95358 z m 11.585337,0 c -0.04306,0.0249 -0.08606,0.04958 -0.129191,0.07441 -0.530974,0.305867 -1.061657,0.612863 -1.592149,0.919843 L 50.156112,41.9132 h 3.49436 l 0.03307,0.259932 -2.966743,0.794785 h 2.734714 l 0.03307,0.259932 -2.679938,0.71882 h 2.752286 l 0.03307,0.261482 -3.244763,0.869196 h 7.518406 3.04374 l 3.230819,-0.865063 h -2.755905 l -0.03514,-0.259932 2.679941,-0.71882 h -2.730582 l -0.03359,-0.261483 2.967262,-0.7953 H 60.75908 l 2.736267,-1.58595 c 0.440481,-0.254886 0.881108,-0.509463 1.321885,-0.763778 h -6.95358 z m 11.585339,0 c -0.04306,0.0249 -0.08606,0.04957 -0.129191,0.07441 -0.530973,0.305864 -1.061656,0.612863 -1.592148,0.919843 L 61.741451,41.9132 h 3.49436 l 0.03307,0.259932 -2.966744,0.794785 h 2.734715 l 0.03307,0.259932 -2.679938,0.71882 h 2.752286 l 0.03307,0.261482 -3.244762,0.869196 h 7.518405 v -5.250326 z"
       copytype="single_stretched"
       prop_scale="1"
       scale_y_rel="false"
       spacing="0"
       normal_offset="0"
       tang_offset="0"
       prop_units="false"
       vertical_pattern="false"
       hide_knot="false"
       fuse_tolerance="0" />
    <inkscape:path-effect
       effect="skeletal"
       id="path-effect1052"
       is_visible="true"
       lpeversion="1"
       pattern="m 25.664583,36.777084 h 11.585 v 5.25 h -11.585 z"
       copytype="single_stretched"
       prop_scale="1"
       scale_y_rel="false"
       spacing="0"
       normal_offset="0"
       tang_offset="0"
       prop_units="false"
       vertical_pattern="false"
       hide_knot="false"
       fuse_tolerance="0" />
    <inkscape:path-effect
       effect="skeletal"
       id="path-effect1024"
       is_visible="true"
       lpeversion="1"
       pattern="m -921.01316,-73.850004 v 68.6134853 h 345.03275 l 77.01125,-12.4522403 -171.41063,-9.190724 0.005,-0.245163 c 0,0 49.38971,-2.499257 99.72044,-5.281271 25.16535,-1.391005 50.571,-2.852866 70.14267,-4.106732 9.78584,-0.626951 18.1142,-1.202507 24.22284,-1.690475 3.05434,-0.243966 5.55398,-0.466444 7.39569,-0.661485 1.84169,-0.195013 3.04598,-0.377938 3.38187,-0.478712 0.0616,-0.01835 0.0395,-0.01356 0.0418,-0.0076 0.002,0.0056 -0.003,-0.0076 -0.0964,-0.03272 -0.18683,-0.05139 -0.67829,-0.130302 -1.40724,-0.20794 -1.45799,-0.155197 -3.87525,-0.324197 -7.09261,-0.499015 -6.43484,-0.349572 -16.08421,-0.726392 -27.9337,-1.113095 -23.69892,-0.773395 -56.20726,-1.585636 -89.55223,-2.304572 -33.34499,-0.718939 -67.52795,-1.34514 -94.56703,-1.74366 -13.51954,-0.199242 -25.25201,-0.341712 -34.20246,-0.411012 -8.9505,-0.06934 -15.1525,-0.0628 -17.46072,0.02753 -0.3226,0.01277 -0.58482,0.01556 -0.82216,0.0037 -0.23746,-0.01237 -0.51329,-0.04967 -0.62219,-0.131538 -0.10922,-0.08187 -0.0197,-0.156075 0.0985,-0.219071 0.11603,-0.06296 0.28179,-0.125434 0.50457,-0.195851 0.89199,-0.281708 2.68994,-0.690107 5.32587,-1.2282 5.27197,-1.076188 13.86684,-2.654466 24.83222,-4.585448 21.93093,-3.861908 53.32608,-9.12938 86.41556,-14.569127 14.81543,-2.435579 29.92372,-4.895143 44.71729,-7.288464 z m 345.42447,0 c -15.21737,2.460574 -30.80137,4.997872 -46.05842,7.506054 -33.08552,5.439093 -64.47931,10.706305 -86.39603,14.565808 -10.95834,1.929745 -19.553,3.507157 -24.79025,4.576259 -2.61866,0.534555 -4.40574,0.947063 -5.18567,1.193391 -0.17583,0.05557 -0.28064,0.0993 -0.34664,0.131538 0.10922,0.0028 0.24621,0.0048 0.47554,-0.0037 2.48558,-0.09727 8.627,-0.09842 17.58808,-0.02913 8.96105,0.06942 20.70464,0.21169 34.22827,0.411012 27.04725,0.398644 61.22724,1.02459 94.57834,1.743661 33.35104,0.719067 65.87148,1.530559 89.58927,2.304571 11.85889,0.386994 21.51379,0.764713 27.98841,1.116507 3.2373,0.175902 5.67684,0.345183 7.22643,0.510142 0.77479,0.08243 1.32584,0.15771 1.68769,0.257251 0.18093,0.04979 0.32724,0.113067 0.35302,0.191942 0.0243,0.07888 -0.0999,0.154438 -0.27405,0.206463 -0.602,0.180571 -1.816,0.338919 -3.69296,0.537699 -1.87699,0.198763 -4.39038,0.421859 -7.45692,0.666811 -6.13308,0.489919 -14.47329,1.066927 -24.26641,1.694337 -19.5862,1.254811 -44.99107,2.715032 -70.16035,4.106253 -49.1857,2.718723 -95.26786,5.052003 -97.45409,5.162803 l 171.45899,9.193138 -77.74627,12.5707122 h 318.20177 V -73.850004 Z"
       copytype="single_stretched"
       prop_scale="1"
       scale_y_rel="false"
       spacing="0"
       normal_offset="0"
       tang_offset="0"
       prop_units="false"
       vertical_pattern="false"
       hide_knot="false"
       fuse_tolerance="0" />
    <inkscape:path-effect
       effect="skeletal"
       id="path-effect995"
       is_visible="true"
       lpeversion="1"
       pattern="M 0,0 H 1"
       copytype="single_stretched"
       prop_scale="1"
       scale_y_rel="false"
       spacing="0"
       normal_offset="0"
       tang_offset="0"
       prop_units="false"
       vertical_pattern="false"
       hide_knot="false"
       fuse_tolerance="0" />
    <inkscape:path-effect
       effect="skeletal"
       id="path-effect960"
       is_visible="true"
       lpeversion="1"
       pattern="M 0,0 H 1"
       copytype="single_stretched"
       prop_scale="1"
       scale_y_rel="false"
       spacing="0"
       normal_offset="0"
       tang_offset="0"
       prop_units="false"
       vertical_pattern="false"
       hide_knot="false"
       fuse_tolerance="0" />
    <inkscape:path-effect
       effect="skeletal"
       id="path-effect954"
       is_visible="true"
       lpeversion="1"
       pattern="m -4.770761,3.7417734 h 1"
       copytype="repeated"
       prop_scale="1"
       scale_y_rel="false"
       spacing="0"
       normal_offset="0"
       tang_offset="0"
       prop_units="false"
       vertical_pattern="false"
       hide_knot="false"
       fuse_tolerance="0" />
    <inkscape:path-effect
       effect="skeletal"
       id="path-effect894"
       is_visible="true"
       lpeversion="1"
       pattern="m -4.770761,3.7417734 h 1"
       copytype="single_stretched"
       prop_scale="1"
       scale_y_rel="false"
       spacing="0"
       normal_offset="0"
       tang_offset="0"
       prop_units="false"
       vertical_pattern="false"
       hide_knot="false"
       fuse_tolerance="0" />
    <inkscape:path-effect
       effect="skeletal"
       id="path-effect863"
       is_visible="true"
       lpeversion="1"
       pattern="M 0,0 H 1"
       copytype="single_stretched"
       prop_scale="1"
       scale_y_rel="false"
       spacing="0"
       normal_offset="0"
       tang_offset="0"
       prop_units="false"
       vertical_pattern="false"
       hide_knot="false"
       fuse_tolerance="0" />
  </defs>
  <sodipodi:namedview
     id="base"
     pagecolor="#ffffff"
     bordercolor="#666666"
     borderopacity="1.0"
     inkscape:pageopacity="0.0"
     inkscape:pageshadow="2"
     inkscape:zoom="2"
     inkscape:cx="386.57375"
     inkscape:cy="422.80519"
     inkscape:document-units="mm"
     inkscape:current-layer="layer1"
     inkscape:document-rotation="0"
     showgrid="false"
     inkscape:window-width="1858"
     inkscape:window-height="1177"
     inkscape:window-x="54"
     inkscape:window-y="-8"
     inkscape:window-maximized="1" />
  <metadata
     id="metadata5">
    <rdf:RDF>
      <cc:Work
         rdf:about="">
        <dc:format>image/svg+xml</dc:format>
        <dc:type
           rdf:resource="http://purl.org/dc/dcmitype/StillImage" />
        <dc:title />
      </cc:Work>
    </rdf:RDF>
  </metadata>
  <g
     inkscape:label="Layer 1"
     inkscape:groupmode="layer"
     id="layer1">
    <path
       d="m 44.310009,39.928429 a 7.375,7.375 0 0 1 -7.375,7.375 7.375,7.375 0 0 1 -7.375,-7.375 7.375,7.375 0 0 1 7.375,-7.375 7.375,7.375 0 0 1 7.375,7.375 z"
       style="fill:#ff00ff;fill-opacity:0.373494;stroke:none;stroke-width:0.2;stroke-linecap:round;stroke-linejoin:bevel;stroke-miterlimit:4;stroke-dasharray:none"
       id="path2649" />
    <path
       id="path1393"
       style="fill:#707100;fill-opacity:0.449799;stroke:none;stroke-width:0.2;stroke-linecap:round;stroke-linejoin:round;stroke-miterlimit:4;stroke-dasharray:none;stroke-opacity:1"
       d="m 13.578009,26.376195 a 10,10 0 0 0 -9.9999053,9.999906 10,10 0 0 0 9.9999053,9.999905 10,10 0 0 0 9.999906,-9.999905 10,10 0 0 0 -9.999906,-9.999906 z m -0.01395,5.249809 a 4.75,4.75 0 0 1 0.01395,0 4.75,4.75 0 0 1 4.750098,4.750097 4.75,4.75 0 0 1 -4.750098,4.750099 4.75,4.75 0 0 1 -4.7500963,-4.750099 4.75,4.75 0 0 1 4.7361443,-4.750097 z" />
    <rect
       y="5.6495929"
       x="-1.3877788e-17"
       height="5.25"
       width="11.585"
       id="rect1026-62"
       style="fill:#ff0000;fill-opacity:1;stroke:none;stroke-width:0.2;stroke-linecap:round;stroke-linejoin:round;stroke-miterlimit:4;stroke-dasharray:none;stroke-opacity:1" />
    <path
       style="fill:none;stroke:#000000;stroke-width:0.202;stroke-linecap:butt;stroke-linejoin:bevel;stroke-miterlimit:4;stroke-dasharray:none;stroke-opacity:1"
       d="M 0,0 V 4.8460002 H 5.1261372 V 0.808 H 0.931586 v 3.2299997 l 3.2619997,5.027e-4 V 1.6155 L 1.864138,1.615 V 3.2309999 H 3.2619997 V 2.423 H 2.795724 V 2.827 H 2.330414 V 2.019 H 3.7282754 V 3.6349999 L 1.397862,3.6344972 V 1.2115 l 3.2619994,5e-4 V 4.4420002 H 0.466276 V 0.404 h 5.1260488 l 1.757e-4,4.8460002"
       id="path875-7"
       sodipodi:nodetypes="cccccccccccccccccccccccccc" />
    <path
       d="m 28.647043,62.384384 h -7.663187 c 0.168824,2.428926 -1.856708,5.147523 -4.255294,6.334485 l 2.962671,6.197716 c 2.756213,-1.298528 5.042173,-3.458736 6.50022,-6.122964 l -4.873752,-2.705173 c -0.73989,1.308482 -1.840879,2.468879 -3.11221,3.290432 l 2.366508,3.721531 c 1.46626,-0.924687 2.746882,-2.134247 3.755651,-3.542467 l -2.63017,-1.896395 c -0.539192,0.74341 -1.179955,1.420784 -1.893124,2.002957 l 1.308362,1.609075 c 0.482992,-0.392006 0.936787,-0.820455 1.356157,-1.280119 l -0.665731,-0.607879 c -0.08889,0.09734 -0.179442,0.193189 -0.271579,0.287493 l 0.32166,0.314256 c 6.85e-4,0.06566 8.07e-4,0.131513 3.63e-4,0.197551 -0.166028,0.166091 -0.336833,0.327408 -0.512111,0.483647 -0.06673,-0.0026 -0.133236,-0.0058 -0.199511,-0.0096 l -0.770748,-0.884832 c 0.0017,-0.06336 0.0029,-0.126545 0.0034,-0.189561 0.461658,-0.412449 0.88911,-0.864505 1.274256,-1.348068 0.06284,-0.0041 0.125817,-0.0089 0.188921,-0.01416 l 1.855461,1.437593 c 0.005,0.06978 0.0094,0.139809 0.0132,0.210079 -0.795323,1.005922 -1.737269,1.895218 -2.788341,2.63039 -0.07017,-0.0077 -0.14006,-0.01597 -0.209662,-0.02481 l -1.989813,-2.901643 c 0.0058,-0.05913 0.01113,-0.118155 0.01584,-0.177069 1.043719,-0.742695 1.955882,-1.705251 2.633402,-2.78458 0.05926,-0.0075 0.118595,-0.01558 0.178003,-0.02426 l 4.008679,2.41368 c 0.01032,0.07298 0.02006,0.146261 0.02922,0.219835 -1.315032,2.149829 -3.197155,3.9276 -5.426955,5.113901 -0.0716,-0.01416 -0.142879,-0.02886 -0.213819,-0.0441 l -2.709419,-5.17557 c 0.0069,-0.05605 0.01317,-0.112038 0.0189,-0.167961 1.514304,-0.839612 2.839621,-2.232322 3.575469,-3.77765 0.05552,-0.0095 0.111063,-0.01954 0.166625,-0.03019 l 6.390543,2.859256 c 0.759433,-1.725778 1.204238,-3.621568 1.261889,-5.614844 z m -1.416153,5.953892 -6.198005,-2.963859 c -0.753659,1.536273 -2.060409,2.910485 -3.562927,3.765314 l 2.705858,4.87424 c 2.071072,-1.136106 3.829894,-2.797429 5.085706,-4.793212 l -3.722306,-2.366668 c -0.669398,1.040714 -1.549637,1.96982 -2.554543,2.701146 l 1.896736,2.629937 c 0.937847,-0.673208 1.784782,-1.472818 2.511662,-2.369686 L 21.7845,68.507701 c -0.346666,0.425509 -0.725426,0.826193 -1.131031,1.196805 l 0.607286,0.665254 c 0.100716,-0.09192 0.199875,-0.185573 0.297414,-0.280886 l -0.313772,-0.321085 c -6.4e-5,-0.06478 -7e-4,-0.129369 -0.0019,-0.193758 0.153527,-0.153584 0.30271,-0.31151 0.447253,-0.473479 0.06386,-0.0019 0.127888,-0.0044 0.192065,-0.0075 l 0.884735,0.770863 c 0.0028,0.06742 0.005,0.135055 0.0067,0.202904 -0.489817,0.550001 -1.027482,1.057572 -1.604867,1.514587 -0.06827,-0.005 -0.136299,-0.01065 -0.204064,-0.01683 l -1.437809,-1.856235 c 0.0036,-0.06152 0.0066,-0.122896 0.0091,-0.18413 0.761966,-0.608043 1.442796,-1.327309 2.004891,-2.120199 0.06091,-0.0059 0.121928,-0.0124 0.183043,-0.01948 l 2.902382,1.990051 c 0.0067,0.07063 0.01281,0.141517 0.01836,0.212663 -1.07405,1.538775 -2.463405,2.850643 -4.064927,3.832469 -0.07126,-0.01051 -0.142212,-0.02159 -0.212854,-0.03323 l -2.414602,-4.009021 c 0.0064,-0.05813 0.01226,-0.116174 0.01753,-0.174128 1.29774,-0.818814 2.423527,-2.004415 3.158193,-3.337635 0.05735,-0.0085 0.114756,-0.01758 0.172204,-0.02726 l 5.176578,2.709067 c 0.01362,0.07422 0.02667,0.148764 0.03914,0.223629 -1.508086,2.839817 -3.93052,5.129013 -6.867184,6.467471 -0.07412,-0.01683 -0.147886,-0.03422 -0.221283,-0.05217 l -2.859689,-6.39036 c -0.824605,0.381731 -1.687983,0.580048 -2.517571,0.522387 -3e-6,0 -7e-6,0 -10e-6,1e-6 C 11.62085,69.48727 8.9022557,67.461734 7.7152979,65.063147 l -6.1977206,2.96266 c 1.2985233,2.756215 3.4587282,5.042179 6.1229545,6.500231 L 10.345712,69.65229 C 9.0372321,68.912399 7.8768373,67.811409 7.0552862,66.540078 l -3.7215331,2.366503 c 0.9246845,1.466261 2.134244,2.746885 3.5424619,3.755656 L 8.772614,70.032068 C 8.0292036,69.492875 7.3518296,68.852111 6.7696567,68.13894 L 5.1605799,69.4473 c 0.392006,0.482992 0.8204551,0.936789 1.2801193,1.356161 L 7.0485786,70.13773 C 6.9512421,70.048836 6.8553909,69.958288 6.7610872,69.866151 l -0.3142564,0.32166 c -0.065663,6.81e-4 -0.1315201,8e-4 -0.1975615,3.52e-4 -0.16609,-0.166027 -0.3274054,-0.336831 -0.4836434,-0.512109 0.00263,-0.06673 0.00582,-0.133236 0.00958,-0.199511 l 0.884834,-0.770746 c 0.063355,0.0017 0.1265452,0.0029 0.1895605,0.0034 0.412448,0.461658 0.8645021,0.88911 1.348063,1.274257 0.00413,0.06284 0.00885,0.125818 0.01416,0.188922 l -1.4375976,1.855458 c -0.069779,0.005 -0.1398094,0.0094 -0.2100795,0.0132 -1.0059197,-0.795325 -1.8952133,-1.737274 -2.6303835,-2.788348 0.0077,-0.07017 0.015968,-0.14006 0.024807,-0.209661 L 6.8602225,67.05325 c 0.059128,0.0058 0.1181549,0.01112 0.1770696,0.01584 0.7426937,1.043722 1.7052495,1.955888 2.7845787,2.633411 0.00749,0.05926 0.015578,0.118595 0.024256,0.178003 l -2.413687,4.008675 c -0.072979,0.01032 -0.1462608,0.02006 -0.2198351,0.02922 -2.1498255,-1.315035 -3.9275934,-3.19716 -5.1138908,-5.426961 0.014154,-0.07161 0.028854,-0.14289 0.044094,-0.213835 l 5.1755773,-2.709404 c 0.05605,0.0069 0.1120413,0.01317 0.1679655,0.01891 0.8396089,1.514304 2.2323165,2.839622 3.7776423,3.575474 0.0095,0.05552 0.01954,0.111063 0.03019,0.166624 l -2.8592676,6.390539 c 1.7257766,0.759436 3.6215666,1.204245 5.6148426,1.261899 9e-6,10e-7 1.8e-5,10e-7 2.6e-5,10e-7 5.836357,-0.168804 10.836935,-3.656802 13.181102,-8.643363 z m -19.1350157,7.227199 2.9638697,-6.198 C 9.5234733,68.613814 8.1492634,67.307063 7.2944371,65.804546 l -4.8742428,2.705852 c 1.1361027,2.071072 2.7974227,3.829895 4.793202,5.085709 l 2.3666736,-3.722303 c -1.0407136,-0.6694 -1.9698191,-1.54964 -2.7011436,-2.554548 l -2.6299394,1.896732 c 0.6732066,0.937848 1.4728155,1.784785 2.3696829,2.511667 l 1.3077894,-1.60857 C 7.5009509,69.772419 7.1002668,69.393658 6.7296553,68.988052 l -0.6652549,0.607285 c 0.091923,0.100717 0.1855733,0.199876 0.2808866,0.297416 l 0.3210855,-0.313772 c 0.064779,-6.3e-5 0.1293683,-6.99e-4 0.1937575,-0.0019 0.1535844,0.153527 0.3115099,0.302711 0.4734784,0.447254 0.00193,0.06386 0.00443,0.127888 0.00751,0.192065 l -0.7708641,0.884734 c -0.067418,0.0028 -0.1350559,0.005 -0.2029047,0.0067 -0.5500005,-0.489818 -1.057571,-1.027484 -1.514585,-1.604871 0.00504,-0.06827 0.010655,-0.136298 0.016832,-0.204063 l 1.8562375,-1.437807 c 0.061515,0.0036 0.1228954,0.0066 0.1841293,0.0091 0.6080426,0.761967 1.3273072,1.442797 2.1201967,2.004894 0.00591,0.06091 0.0124,0.121928 0.019481,0.183043 l -1.9900553,2.902379 c -0.070626,0.0067 -0.1415169,0.01281 -0.2126628,0.01836 -1.5387734,-1.074052 -2.8506403,-2.463409 -3.8324633,-4.064933 0.010512,-0.07126 0.02159,-0.142212 0.033228,-0.212854 l 4.009025,-2.414595 c 0.058128,0.0064 0.1161739,0.01226 0.1741281,0.01752 0.8188112,1.297741 2.0044113,2.42353 3.3376304,3.158199 0.0085,0.05735 0.01758,0.114755 0.02726,0.172204 L 7.886656,74.810961 C 7.812439,74.82458 7.7378927,74.837628 7.6630277,74.8501 4.8232129,73.34201 2.53402,70.919573 1.1955663,67.982906 c 0.01683,-0.07412 0.034222,-0.147886 0.052172,-0.221283 L 7.6381027,64.901944 C 7.2563752,64.077343 7.05806,63.213968 7.1157209,62.384384 c -6e-7,-8e-6 -1.1e-6,-1.6e-5 -1.7e-6,-2.4e-5 -0.1688101,-2.428927 1.8567306,-5.147519 4.2553178,-6.334472 L 8.4083883,49.852162 C 5.652171,51.150681 3.3662042,53.310881 1.9081477,55.975103 l 4.8737433,2.705191 c 0.7398941,-1.30848 1.8408864,-2.468873 3.1122187,-3.290422 L 7.527614,51.668335 c -1.4662616,0.924681 -2.7468872,2.134237 -3.7556606,3.542451 l 2.6301645,1.896405 c 0.539193,-0.743407 1.1799568,-1.420778 1.8931265,-2.002948 L 6.9868867,53.495164 C 6.5038938,53.88717 6.0500972,54.315618 5.6307246,54.775281 l 0.6657294,0.60788 c 0.088896,-0.09734 0.1794442,-0.193189 0.271583,-0.287493 L 6.2463776,54.781411 c -6.811e-4,-0.06566 -8.002e-4,-0.131521 -3.523e-4,-0.197562 0.1660285,-0.16609 0.3368336,-0.327406 0.5121122,-0.483644 0.066729,0.0026 0.1332359,0.0058 0.1995108,0.0096 l 0.7707447,0.884836 c -0.00172,0.06336 -0.00286,0.126545 -0.00343,0.189561 -0.4616603,0.412448 -0.8891141,0.864502 -1.2742622,1.348063 -0.062841,0.0041 -0.1258179,0.0089 -0.1889219,0.01416 L 4.4063251,55.108808 c -0.00498,-0.06978 -0.00938,-0.139809 -0.013203,-0.210079 0.7953268,-1.005918 1.7372765,-1.89521 2.788352,-2.630379 0.07017,0.0077 0.1400605,0.01597 0.2096621,0.02481 l 1.9898008,2.901651 c -0.00585,0.05913 -0.011126,0.118155 -0.015837,0.17707 -1.0437208,0.74269 -1.9558874,1.705242 -2.6334116,2.784568 -0.059258,0.0075 -0.1185959,0.01558 -0.1780037,0.02425 L 2.5450156,55.767005 c -0.010317,-0.07298 -0.020057,-0.146261 -0.029215,-0.219835 1.3150407,-2.149822 3.19717,-3.927586 5.4269753,-5.113878 0.071603,0.01416 0.1428794,0.02886 0.2138194,0.0441 l 2.709396,5.175581 c -0.0069,0.05605 -0.01316,0.112038 -0.0189,0.16796 -1.5143067,0.839605 -2.8396281,2.23231 -3.575484,3.777636 -0.055518,0.0095 -0.1110631,0.01954 -0.1666248,0.03019 L 0.71444893,56.769481 c -0.75944021,1.725774 -1.20425367,3.621562 -1.26191341,5.614836 -6.5e-7,2.3e-5 -1.29e-6,4.5e-5 -1.93e-6,6.7e-5 0.16880334,5.836348 3.65679151,10.836919 8.64334071,13.181091 z M 0.86870532,56.430453 7.0667017,59.394331 C 7.8203657,57.85806 9.1271194,56.48385 10.629639,55.629026 L 7.9237958,50.754779 C 5.8527206,51.890878 4.093895,53.552195 2.8380772,55.547973 l 3.7222995,2.36668 C 7.2297788,56.87394 8.1100205,55.944836 9.114929,55.213513 L 7.2182015,52.58357 c -0.9378502,0.673206 -1.7847891,1.472815 -2.5116727,2.369682 l 1.6085679,1.307792 C 6.6617636,55.835536 7.0405244,55.434853 7.4461308,55.064242 L 6.8388463,54.398986 c -0.100716,0.09192 -0.1998753,0.185572 -0.2974144,0.280885 l 0.3137717,0.321086 c 6.3e-5,0.06478 6.989e-4,0.129368 0.0019,0.193757 -0.1535269,0.153584 -0.3027109,0.311509 -0.4472538,0.473477 -0.063862,0.0019 -0.1278875,0.0044 -0.1920649,0.0075 L 5.3330548,54.904832 c -0.00279,-0.06742 -0.00502,-0.135056 -0.00667,-0.202904 0.4898183,-0.549999 1.0274838,-1.057568 1.6048702,-1.514581 0.068274,0.005 0.1362984,0.01066 0.2040639,0.01683 l 1.4378038,1.85624 c -0.00361,0.06151 -0.00664,0.122895 -0.0091,0.184129 -0.7619683,0.608042 -1.4427998,1.327306 -2.0048972,2.120195 -0.06091,0.0059 -0.121928,0.0124 -0.1830437,0.01948 L 3.4736992,55.394165 c -0.00669,-0.07063 -0.01281,-0.141517 -0.018359,-0.212663 1.0740554,-1.538773 2.4634148,-2.850639 4.0649409,-3.83246 0.071258,0.01051 0.1422126,0.02159 0.2128542,0.03323 l 2.4145886,4.009028 c -0.0064,0.05813 -0.01226,0.116174 -0.01753,0.174128 -1.2977424,0.818809 -2.4235336,2.004408 -3.1582042,3.337627 -0.057351,0.0085 -0.1147554,0.01758 -0.1722038,0.02726 L 1.6232211,56.221233 c -0.013618,-0.07422 -0.026666,-0.148764 -0.039139,-0.223629 1.5080937,-2.839811 3.9305328,-5.129 6.8672006,-6.467449 0.074121,0.01683 0.1478852,0.03422 0.2212822,0.05217 l 2.8596716,6.390368 c 0.824598,-0.381725 1.68797,-0.580039 2.517551,-0.522378 1.1e-5,-10e-7 2.1e-5,-2e-6 3.2e-5,-3e-6 2.428929,-0.168805 5.14752,1.856739 6.334469,4.255328 l 6.19773,-2.96264 C 25.283504,53.986781 23.123305,51.70081 20.459082,50.242751 l -2.705195,4.87374 c 1.30848,0.739896 2.468873,1.840891 3.29042,3.112225 l 3.721541,-2.36649 c -0.92468,-1.466266 -2.134237,-2.746895 -3.542454,-3.755671 l -1.896406,2.630163 c 0.743408,0.539195 1.420781,1.179962 2.002951,1.893134 l 1.609081,-1.308355 c -0.392004,-0.482993 -0.820451,-0.93679 -1.280113,-1.356163 l -0.607881,0.665729 c 0.09734,0.0889 0.193188,0.179444 0.287492,0.271582 l 0.314258,-0.321658 c 0.06566,-6.85e-4 0.131513,-8.08e-4 0.19755,-3.63e-4 0.166092,0.166029 0.327409,0.336836 0.483648,0.512116 -0.0026,0.06673 -0.0058,0.133236 -0.0096,0.199511 l -0.884836,0.770744 c -0.06336,-0.0017 -0.126545,-0.0029 -0.189561,-0.0034 -0.412447,-0.46166 -0.864501,-0.889114 -1.348062,-1.274263 -0.0041,-0.06284 -0.0089,-0.125818 -0.01416,-0.188922 l 1.437602,-1.855454 c 0.06978,-0.005 0.139809,-0.0094 0.210079,-0.0132 1.005917,0.795328 1.895208,1.737278 2.630376,2.788354 -0.0077,0.07017 -0.01597,0.140059 -0.02481,0.209661 l -2.901652,1.989799 c -0.05913,-0.0058 -0.118155,-0.01113 -0.17707,-0.01584 -0.742689,-1.043721 -1.705241,-1.955888 -2.784566,-2.633413 -0.0075,-0.05926 -0.01558,-0.118596 -0.02426,-0.178004 l 2.413701,-4.008667 c 0.07298,-0.01032 0.14626,-0.02006 0.219835,-0.02922 2.149821,1.315043 3.927583,3.197174 5.113873,5.42698 -0.01416,0.0716 -0.02886,0.142879 -0.0441,0.213819 L 20.7812,59.200593 c -0.05605,-0.0069 -0.112038,-0.01317 -0.167961,-0.0189 -0.839603,-1.514307 -2.232308,-2.83963 -3.777634,-3.575487 -0.0095,-0.05552 -0.01954,-0.111063 -0.03019,-0.166625 l 2.859288,-6.39053 c -1.725774,-0.759441 -3.621561,-1.204256 -5.614835,-1.261917 -2.6e-5,0 -5.1e-5,-1e-6 -7.7e-5,-2e-6 -5.8363408,0.168803 -10.8369078,3.656784 -13.18108268,8.643324 z m 19.13503868,-7.22714 -2.963889,6.197991 c 1.53627,0.753667 2.910477,2.060422 3.765299,3.562943 l 4.874251,-2.705836 c -1.136097,-2.071078 -2.797413,-3.829907 -4.79319,-5.085729 l -2.366685,3.722297 c 1.040713,0.669404 1.969816,1.549647 2.701138,2.554557 l 2.629945,-1.896724 c -0.673204,-0.93785 -1.472811,-1.78479 -2.369676,-2.511674 l -1.307794,1.608565 c 0.425508,0.346669 0.826191,0.725431 1.196802,1.131038 l 0.665256,-0.607283 c -0.09192,-0.100717 -0.185573,-0.199877 -0.280887,-0.297418 l -0.321086,0.313772 c -0.06478,6.2e-5 -0.129368,6.98e-4 -0.193758,0.0019 -0.153584,-0.153528 -0.31151,-0.302714 -0.473479,-0.447258 -0.0019,-0.06386 -0.0044,-0.127887 -0.0075,-0.192065 l 0.770867,-0.884732 c 0.06742,-0.0028 0.135056,-0.005 0.202904,-0.0067 0.55,0.48982 1.057569,1.027487 1.514581,1.604874 -0.005,0.06827 -0.01066,0.136299 -0.01683,0.204064 l -1.856242,1.437802 c -0.06151,-0.0036 -0.122895,-0.0066 -0.184129,-0.0091 -0.608041,-0.761969 -1.327303,-1.442801 -2.120192,-2.0049 -0.0059,-0.06091 -0.0124,-0.121928 -0.01948,-0.183043 l 1.990063,-2.902374 c 0.07063,-0.0067 0.141517,-0.01281 0.212663,-0.01836 1.53877,1.074057 2.850633,2.463417 3.832452,4.064944 -0.01051,0.07126 -0.02159,0.142212 -0.03323,0.212854 l -4.009031,2.414584 c -0.05813,-0.0064 -0.116174,-0.01226 -0.174128,-0.01753 -0.818808,-1.297743 -2.004405,-2.423535 -3.337624,-3.158208 -0.0085,-0.05735 -0.01758,-0.114755 -0.02726,-0.172204 l 2.709089,-5.176567 c 0.07422,-0.01362 0.148764,-0.02667 0.22363,-0.03914 2.839811,1.508097 5.128998,3.930541 6.467443,6.867213 -0.01683,0.07412 -0.03422,0.147885 -0.05217,0.221282 l -6.390372,2.859661 c 0.381728,0.824608 0.58004,1.687991 0.52237,2.51758 l 7.663193,5.5e-5 C 28.478278,56.548106 24.990298,51.547505 20.003744,49.203313 Z"
       sodipodi:ry="10.765661"
       sodipodi:rx="10.765661"
       sodipodi:cy="62.384384"
       sodipodi:cx="14.049788"
       sodipodi:type="arc"
       inkscape:path-effect="#path-effect951"
       id="path949"
       style="fill:#ff00ff;fill-opacity:0.373494;stroke:none;stroke-width:0.19;stroke-linecap:round;stroke-linejoin:bevel;stroke-miterlimit:4;stroke-dasharray:none" />
    <path
       d="m -0.04082446,11.814266 v 5.249808 H 8.4480633 V 12.320178 H 3.5243325 v 3.835941 H 7.5147869 V 13.126847 H 4.4560585 v 2.220536 H 6.5830607 V 13.933516 H 5.3877849 v 0.607198 H 5.6513347 V 14.23789 l 0.1018027,-0.101285 h 0.464571 l 0.1018027,0.101285 v 0.806669 L 6.2177084,15.146362 H 4.8214115 l -0.101803,-0.101803 v -1.614888 l 0.101803,-0.101803 h 2.3280229 l 0.1012859,0.101803 v 2.423625 l -0.1012859,0.09973 H 3.8876185 l -0.101286,-0.101803 v -3.228226 l 0.101286,-0.101803 h 4.195609 l 0.099219,0.101803 v 4.036963 l -0.099219,0.101802 H 2.9558925 L 2.8546065,16.65996 v -4.845694 z m 3.09851896,0 v 4.743896 H 7.9814251 V 12.72222 H 3.9894205 v 3.02979 H 7.0496989 V 13.530957 H 4.9206295 v 1.414384 H 6.1179729 V 14.337626 H 5.8523561 v 0.302824 l -0.099219,0.101802 H 5.2859825 L 5.1862465,14.64045 v -0.80667 l 0.099736,-0.101802 h 1.3983641 l 0.1018027,0.101802 v 1.615406 L 6.6843466,15.550472 H 4.3542565 l -0.101286,-0.101286 v -2.424141 l 0.101286,-0.09922 h 3.2618161 l 0.1018027,0.101285 v 3.228744 L 7.6160726,16.35714 H 3.4230465 l -0.101802,-0.101286 v -4.03748 l 0.101802,-0.101285 h 5.1247523 l 0.1018024,0.101285 v 4.845699 h 2.8949138 v -5.249807 z"
       style="fill:#ff0000;fill-opacity:1;stroke:none;stroke-width:0.2;stroke-linecap:round;stroke-linejoin:round;stroke-miterlimit:4;stroke-dasharray:none;stroke-opacity:1"
       id="rect1026-62-0" />
    <path
       d="m 0.05397332,18.562954 v 5.249809 H 8.5428608 V 19.068867 H 3.6191303 v 3.835941 h 3.990454 V 19.875536 H 4.5508564 v 2.220536 h 2.127002 V 20.682205 H 5.4825825 v 0.607198 h 0.2635499 v -0.302824 l 0.1018024,-0.101286 h 0.464571 l 0.1018027,0.101286 v 0.806669 L 6.3125058,21.895051 H 4.9162088 L 4.8144062,21.793248 V 20.17836 l 0.1018026,-0.101803 h 2.3280233 l 0.1012856,0.101803 v 2.423624 L 7.2442321,22.70172 H 3.9824157 L 3.8811299,22.599917 V 19.37169 l 0.1012858,-0.101802 h 4.1956095 l 0.099219,0.101802 v 4.036963 l -0.099219,0.101803 H 3.0506896 L 2.9494038,23.408653 v -4.845699 z m 3.09851888,0 v 4.743897 H 8.0762225 V 19.470909 H 4.0842182 v 3.029789 h 3.0602784 v -2.221053 h -2.129069 v 1.414384 H 6.2127704 V 21.086314 H 5.9471536 v 0.302824 l -0.099219,0.101803 H 5.3807799 l -0.099736,-0.101803 v -0.806669 l 0.099736,-0.101802 H 6.779144 l 0.1018027,0.101802 v 1.615406 L 6.779144,22.29916 H 4.4490539 L 4.347768,22.197875 v -2.424142 l 0.1012859,-0.09922 H 7.7108703 L 7.8126727,19.7758 v 3.228744 L 7.7108703,23.10583 H 3.5178445 L 3.416042,23.004544 v -4.03748 l 0.1018025,-0.101286 h 5.1247517 l 0.1018027,0.101286 v 4.845699 H 11.639313 20.1282 v -4.743896 h -4.923731 v 3.835941 h 3.990455 v -3.029272 h -3.058728 v 2.220536 h 2.127001 v -1.413867 h -1.195275 v 0.607198 h 0.26355 v -0.302824 l 0.101802,-0.101286 h 0.464571 l 0.101803,0.101286 v 0.806669 l -0.101803,0.101803 H 16.501548 L 16.399745,21.793248 V 20.17836 l 0.101803,-0.101803 h 2.328023 l 0.101286,0.101803 v 2.423624 l -0.101286,0.09974 H 15.567755 L 15.466469,22.599917 V 19.37169 l 0.101286,-0.101802 h 4.195609 l 0.09922,0.101802 v 4.036963 l -0.09922,0.101803 h -5.127335 l -0.101286,-0.101803 v -4.845699 h -2.89543 z m 11.5853388,0 v 4.743897 h 4.923731 v -3.835942 h -3.992005 v 3.029789 h 3.060279 v -2.221053 h -2.129069 v 1.414384 h 1.197343 v -0.607715 h -0.265617 v 0.302824 l -0.09922,0.101803 h -0.467155 l -0.09974,-0.101803 v -0.806669 l 0.09974,-0.101802 h 1.398364 l 0.101803,0.101802 v 1.615406 l -0.101803,0.101285 h -2.33009 l -0.101286,-0.101285 v -2.424142 l 0.101286,-0.09922 h 3.261816 l 0.101803,0.101286 v 3.228744 l -0.101803,0.101286 H 15.103183 L 15.00138,23.004543 v -4.03748 l 0.101803,-0.101286 h 5.124751 l 0.101803,0.101286 v 4.845699 h 2.894914 8.488888 v -4.743896 h -4.923731 v 3.835941 h 3.990452 v -3.029272 h -3.058726 v 2.220536 h 2.127002 V 20.682205 H 28.65326 v 0.607198 h 0.263552 v -0.302824 l 0.101801,-0.101286 h 0.464571 l 0.101804,0.101286 v 0.806669 l -0.101804,0.101803 H 28.086887 L 27.985085,21.793248 V 20.17836 l 0.101802,-0.101803 h 2.328025 l 0.101285,0.101803 v 2.423624 l -0.101285,0.09974 H 27.153094 L 27.051808,22.599917 V 19.37169 l 0.101286,-0.101802 h 4.195609 l 0.09922,0.101802 v 4.036963 l -0.09922,0.101803 h -5.127335 l -0.101286,-0.101803 v -4.845699 h -2.89543 z m 11.58534,0 v 4.743897 h 4.923731 v -3.835942 h -3.992005 v 3.029789 h 3.060277 v -2.221053 h -2.129068 v 1.414384 h 1.197343 v -0.607715 h -0.265617 v 0.302824 l -0.09922,0.101803 h -0.467155 l -0.09973,-0.101803 v -0.806669 l 0.09973,-0.101802 h 1.398364 l 0.101803,0.101802 v 1.615406 l -0.101803,0.101285 h -2.33009 l -0.101286,-0.101285 v -2.424142 l 0.101286,-0.09922 h 3.261817 L 30.98335,19.7758 v 3.228744 L 30.881549,23.10583 H 26.688523 L 26.58672,23.004544 v -4.03748 l 0.101803,-0.101286 h 5.124751 l 0.101804,0.101286 v 4.845699 h 2.894912 8.488889 v -4.743896 h -4.923732 v 3.835941 h 3.990454 v -3.029272 h -3.058726 v 2.220536 h 2.127001 V 20.682205 H 40.2386 v 0.607198 h 0.263551 v -0.302824 l 0.101801,-0.101286 h 0.464571 l 0.101804,0.101286 v 0.806669 l -0.101804,0.101803 H 39.672227 L 39.570424,21.793248 V 20.17836 l 0.101803,-0.101803 h 2.328024 l 0.101285,0.101803 v 2.423624 l -0.101285,0.09974 H 38.738433 L 38.637148,22.599917 V 19.37169 l 0.101285,-0.101802 h 4.195609 l 0.09922,0.101802 v 4.036963 l -0.09922,0.101803 H 37.806708 L 37.705421,23.408653 V 18.562954 H 34.80999 Z m 11.585338,0 v 4.743897 h 4.923732 v -3.835942 h -3.992004 v 3.029789 h 3.060277 v -2.221053 h -2.129068 v 1.414384 h 1.197343 v -0.607715 h -0.265618 v 0.302824 l -0.09922,0.101803 h -0.467153 l -0.09974,-0.101803 v -0.806669 l 0.09974,-0.101802 h 1.398362 l 0.101804,0.101802 v 1.615406 L 41.53516,22.29916 h -2.33009 l -0.101285,-0.101285 v -2.424142 l 0.101285,-0.09922 h 3.261818 L 42.56869,19.7758 v 3.228744 l -0.101801,0.101286 h -4.193027 l -0.101804,-0.101286 v -4.03748 l 0.101804,-0.101286 h 5.124752 l 0.101803,0.101286 v 4.845699 h 2.894912 v -5.249809 z"
       style="fill:#ff0000;fill-opacity:1;stroke:none;stroke-width:0.2;stroke-linecap:round;stroke-linejoin:round;stroke-miterlimit:4;stroke-dasharray:none;stroke-opacity:1"
       id="rect1026-62-0-8" />
    <rect
       y="59.13438"
       x="8.13626"
       height="6.5"
       width="11.827058"
       id="rect2887"
       style="fill:#ffcc00;fill-opacity:0.373494;stroke:none;stroke-width:0.202;stroke-linecap:round;stroke-linejoin:bevel;stroke-miterlimit:4;stroke-dasharray:none" />
    <path
       id="path2649-3"
       style="fill:#ff00ff;fill-opacity:0.373494;stroke:none;stroke-width:0.2;stroke-linecap:round;stroke-linejoin:bevel;stroke-miterlimit:4;stroke-dasharray:none"
       d="m 50.502084,61.581771 a 7.3750001,7.3750001 0 0 1 -7.375,7.375 7.3750001,7.3750001 0 0 1 -7.375,-7.375 7.3750001,7.3750001 0 0 1 7.375,-7.375 7.3750001,7.3750001 0 0 1 7.375,7.375 z" />
    <path
       sodipodi:nodetypes="sccccccccccccccccccccccccccccccccccccccsccccccccccccccccccccccccccccccccccccccsccccccccccccccccccccccccccccccccccccccsccccccccccccccccccccccccccccccccccccccscccccccccccccccccccccccccccccccccccccccscccccccccccccccccccccccccccccccccccccscccccccccccccccccccccccccccccccccccccccccscccccccccccccccccccccccccccccccccccccscc"
       transform="scale(0.26458333)"
       d="m 59.042969,297.32227 c -22.065612,0.31322 -40.958486,13.8212 -49.8183596,32.66796 l 23.4257816,11.20118 c 2.848493,-5.80639 7.787985,-10.99964 13.466797,-14.23047 L 35.890625,308.53906 C 28.06294,312.83298 21.414367,319.1112 16.667969,326.6543 l 14.068359,8.94531 c 2.530023,-3.9334 5.85817,-7.44493 9.65625,-10.20899 l -7.169922,-9.93945 c -3.54463,2.5444 -6.744911,5.56534 -9.492187,8.95508 l 6.080078,4.94336 c 1.310237,-1.60822 2.740438,-3.1227 4.273437,-4.52344 l -2.294922,-2.51367 c -0.380658,0.34741 -0.754395,0.70031 -1.123046,1.06055 l 1.185546,1.21289 c 2.39e-4,0.24484 0.0033,0.48906 0.0078,0.73242 -0.58026,0.58047 -1.145102,1.17885 -1.691406,1.79102 -0.241361,0.007 -0.484,0.0156 -0.726563,0.0273 l -3.34375,-2.91406 c -0.01055,-0.25482 -0.01915,-0.50919 -0.02539,-0.76563 1.851282,-2.07874 3.884156,-3.99732 6.066406,-5.72461 0.258028,0.0189 0.515361,0.0391 0.771484,0.0625 l 5.433594,7.01758 c -0.01361,0.23252 -0.02375,0.46388 -0.0332,0.69531 -2.87988,2.29811 -5.453664,5.01692 -7.578125,8.01367 -0.230211,0.0223 -0.460417,0.0455 -0.691406,0.0723 l -10.970704,-7.52148 c -0.02529,-0.26695 -0.04739,-0.53384 -0.06836,-0.80274 4.059422,-5.81583 9.31027,-10.77355 15.363281,-14.48437 0.26933,0.0397 0.537694,0.081 0.804688,0.125 l 9.125,15.15234 c -0.02419,0.2197 -0.04649,0.43916 -0.06641,0.6582 -4.904852,3.09471 -9.158842,7.57435 -11.935547,12.61328 -0.216756,0.0321 -0.433265,0.0669 -0.650391,0.10352 L 12.076172,329.19922 c -0.05147,-0.28052 -0.09935,-0.56275 -0.146484,-0.8457 5.699881,-10.73315 14.853908,-19.38466 25.953124,-24.44336 0.280139,0.0636 0.560485,0.12942 0.837891,0.19726 l 10.806641,24.15235 c 3.116594,-1.44274 6.374461,-1.86747 9.515625,-1.97461 9.196999,-0.3137 19.4553,7.01845 23.941406,16.08398 L 106.41016,331.17188 C 101.50238,320.75466 93.337079,312.11429 83.267578,306.60352 l -10.224609,18.41992 c 4.94544,2.79645 9.330487,6.95863 12.435547,11.76367 L 99.544922,327.8418 C 96.050061,322.30002 91.478641,317.45918 86.15625,313.64648 l -7.167969,9.94141 c 2.809735,2.0379 5.369981,4.4608 7.570313,7.15625 l 6.082031,-4.94531 c -1.48159,-1.82549 -3.100585,-3.54192 -4.837891,-5.12695 l -2.298828,2.51757 c 0.367899,0.336 0.731466,0.67715 1.087891,1.02539 L 87.779297,323 c 0.248164,-0.003 0.496505,-0.004 0.746094,-0.002 0.627749,0.62751 1.237615,1.27307 1.828125,1.93554 -0.0098,0.25221 -0.02079,0.50342 -0.03516,0.75391 l -3.345703,2.91406 c -0.239433,-0.006 -0.47863,-0.0118 -0.716797,-0.0137 -1.558854,-1.74486 -3.266117,-3.36072 -5.09375,-4.81641 -0.0155,-0.2375 -0.03481,-0.47439 -0.05469,-0.71289 l 5.433594,-7.01367 c 0.263735,-0.0189 0.529334,-0.0345 0.794922,-0.0488 3.801891,3.00597 7.162818,6.56455 9.941406,10.53711 -0.0291,0.26521 -0.06034,0.52991 -0.09375,0.79297 l -10.966797,7.52149 c -0.223484,-0.0219 -0.447255,-0.0428 -0.669922,-0.0606 -2.807017,-3.94477 -6.444099,-7.3924 -10.523437,-9.95313 -0.02835,-0.22397 -0.05899,-0.44929 -0.0918,-0.67382 l 9.123047,-15.15039 c 0.275829,-0.039 0.552003,-0.0748 0.830078,-0.10938 8.125311,4.97024 14.844509,12.0841 19.328123,20.51172 -0.0535,0.27061 -0.10841,0.53852 -0.16601,0.80664 l -19.562504,10.24023 c -0.211843,-0.0261 -0.423403,-0.0487 -0.634766,-0.0703 -3.173306,-5.72337 -8.436741,-10.73248 -14.277343,-13.51367 -0.03591,-0.20984 -0.07303,-0.42086 -0.113282,-0.63086 l 10.80665,-24.15225 c -6.522607,-2.87034 -13.68663,-4.8765 -21.222656,-4.76953 z m 22.503906,5.35156 -11.203125,23.42578 c 5.806375,2.8485 11.001599,7.78798 14.232422,13.4668 L 102.99805,329.33984 C 98.704137,321.51215 92.425907,314.8636 84.882812,310.11719 L 75.9375,324.18555 c 3.9334,2.53002 7.444937,5.85817 10.208984,9.65625 l 9.939454,-7.16992 c -2.544394,-3.54463 -5.567302,-6.74491 -8.957032,-9.49219 l -4.941406,6.08008 c 1.608219,1.31024 3.122707,2.74043 4.523438,4.27343 l 2.513671,-2.29492 c -0.347414,-0.38066 -0.702258,-0.75439 -1.0625,-1.12305 l -1.21289,1.18555 c -0.244838,2.4e-4 -0.489062,0.003 -0.732422,0.008 -0.580479,-0.58026 -1.176896,-1.14509 -1.789063,-1.6914 -0.0072,-0.24136 -0.01758,-0.484 -0.0293,-0.72657 l 2.914062,-3.34374 c 0.254816,-0.0106 0.511141,-0.019 0.767578,-0.0254 2.078737,1.85129 3.997316,3.88416 5.72461,6.06641 -0.0189,0.25803 -0.04113,0.51537 -0.06445,0.77149 l -7.015625,5.43359 c -0.232516,-0.0136 -0.46388,-0.0238 -0.695312,-0.0332 -2.298108,-2.87989 -5.01693,-5.45366 -8.013672,-7.57813 -0.0223,-0.23021 -0.04746,-0.46042 -0.07422,-0.69141 l 7.521485,-10.9707 c 0.266948,-0.0253 0.535789,-0.0474 0.804687,-0.0684 5.815828,4.05943 10.773563,9.31027 14.484373,15.36328 -0.0397,0.26933 -0.081,0.5377 -0.125,0.80469 l -15.152342,9.125 c -0.219704,-0.0242 -0.439164,-0.0465 -0.658203,-0.0664 -3.094703,-4.90485 -7.5763,-9.15883 -12.615234,-11.93554 -0.03213,-0.21676 -0.06693,-0.43327 -0.103516,-0.65039 L 82.33789,305.52555 c 0.280516,-0.0515 0.560795,-0.0994 0.84375,-0.14648 10.733144,5.69989 19.38662,14.85389 24.44531,25.95312 -0.0636,0.28014 -0.12942,0.56049 -0.19726,0.83789 l -24.152347,10.80664 c 1.442747,3.11663 1.867457,6.37638 1.974609,9.51758 0.313727,9.19699 -7.018466,19.45329 -16.083984,23.93945 l 11.197265,23.42579 C 90.782417,394.95155 99.422865,386.7863 104.93359,376.7168 L 86.511719,366.49219 c -2.796435,4.94544 -6.956688,9.33045 -11.761719,12.43554 l 8.943359,14.06641 c 5.541767,-3.49485 10.382643,-8.06626 14.195313,-13.38867 l -9.941406,-7.16797 c -2.037891,2.80974 -4.458855,5.36998 -7.154297,7.57031 l 4.945312,6.08203 c 1.825478,-1.48157 3.539976,-3.10059 5.125,-4.83789 l -2.515625,-2.29883 c -0.336,0.36775 -0.679105,0.73149 -1.027344,1.0879 l 1.216797,1.1875 c 0.0026,0.24831 0.0036,0.49649 0.002,0.74609 -0.627507,0.62774 -1.273078,1.23761 -1.935546,1.82812 -0.252208,-0.0113 -0.505372,-0.022 -0.75586,-0.0371 l -2.912109,-3.3457 c 0.0064,-0.23924 0.01178,-0.47666 0.01367,-0.71484 1.744849,-1.55887 3.358783,-3.26807 4.814453,-5.0957 0.237505,-0.0155 0.47634,-0.0329 0.714844,-0.0527 l 7.011718,5.43164 c 0.0189,0.26381 0.03642,0.52934 0.05078,0.79492 -3.005942,3.80191 -6.566507,7.16281 -10.539063,9.94141 -0.265209,-0.0302 -0.527953,-0.0605 -0.791015,-0.0937 l -7.521485,-10.9668 c 0.02192,-0.22337 0.04274,-0.44723 0.06055,-0.66992 3.944765,-2.80702 7.392423,-6.44409 9.953125,-10.52344 0.223975,-0.0283 0.447341,-0.059 0.671875,-0.0918 l 15.150394,9.12304 c 0.039,0.27583 0.0767,0.55198 0.11133,0.83008 -4.970205,8.12534 -12.084133,14.84447 -20.511724,19.32813 -0.270614,-0.0537 -0.540474,-0.10857 -0.808594,-0.16602 l -10.24028,-19.56064 c 0.02608,-0.21184 0.05061,-0.4234 0.07227,-0.63476 5.723353,-3.17333 10.732514,-8.43869 13.513671,-14.2793 0.20984,-0.0359 0.418909,-0.073 0.628907,-0.11328 l 24.15429,10.80664 c 2.8703,-6.52262 4.8765,-13.68467 4.76953,-21.2207 -0.31319,-22.06563 -13.82115,-40.95842 -32.667961,-49.81836 z m -43.826172,2.45508 c -10.417162,4.90656 -19.055642,13.07112 -24.566406,23.14062 l 18.419922,10.22266 c 2.79645,-4.94543 6.956684,-9.33049 11.761719,-12.43555 l -8.94336,-14.06641 c -5.541774,3.49487 -10.382626,8.06825 -14.195312,13.39063 l 9.941406,7.16602 c 2.037895,-2.80973 4.460804,-5.36999 7.15625,-7.57032 l -4.945313,-6.08008 c -1.825485,1.4816 -3.541923,3.10059 -5.126953,4.8379 l 2.517578,2.29687 c 0.336,-0.3679 0.677149,-0.72951 1.025391,-1.08594 l -1.214844,-1.1875 c -0.0026,-0.24816 -0.0036,-0.49844 -0.002,-0.74804 0.627508,-0.62775 1.273075,-1.23762 1.935547,-1.82813 0.252208,0.01 0.503418,0.0227 0.753906,0.0371 l 2.914063,3.34375 c -0.0064,0.23943 -0.01178,0.47863 -0.01367,0.7168 -1.744861,1.55886 -3.360729,3.26807 -4.816406,5.0957 -0.237506,0.0155 -0.474391,0.0328 -0.712891,0.0527 l -7.013672,-5.43359 c -0.01882,-0.26373 -0.03633,-0.52738 -0.05078,-0.79297 3.005959,-3.8019 6.566492,-7.16282 10.539062,-9.9414 0.26521,0.0291 0.529906,0.0603 0.792969,0.0937 l 7.519531,10.96679 c -0.02192,0.22349 -0.04079,0.4453 -0.05859,0.66797 -3.944771,2.80702 -7.392405,6.44605 -9.953125,10.52539 -0.223975,0.0283 -0.449294,0.059 -0.673828,0.0918 l -15.150391,-9.12305 c -0.03899,-0.27583 -0.07476,-0.55395 -0.109375,-0.83203 4.970232,-8.12531 12.082154,-14.84255 20.509766,-19.32617 0.270614,0.0535 0.540474,0.10841 0.808593,0.16601 l 10.240235,19.56055 c -0.02608,0.21184 -0.04866,0.4234 -0.07031,0.63477 -5.723361,3.17331 -10.732487,8.43674 -13.513672,14.27734 -0.209839,0.0359 -0.420865,0.075 -0.630859,0.11523 L 8.6425781,331.27148 c -2.8703251,6.52261 -4.8765074,13.68468 -4.7695312,21.22071 0.3132283,22.06564 13.8211661,40.9585 32.6679691,49.81836 l 11.201172,-23.42578 c -5.806379,-2.84848 -10.999627,-7.78604 -14.230469,-13.46485 l -18.421875,10.22656 c 4.293932,7.82769 10.572132,14.47434 18.115234,19.22071 l 8.945313,-14.06836 c -3.933408,-2.53002 -7.444922,-5.85623 -10.208985,-9.6543 l -9.939453,7.16797 c 2.544403,3.54463 5.565341,6.74688 8.955078,9.49414 l 4.94336,-6.08008 c -1.60822,-1.31021 -3.1227,-2.74241 -4.523438,-4.27539 l -2.513672,2.29492 c 0.347414,0.38068 0.700305,0.75635 1.060547,1.125 l 1.212891,-1.18554 c 0.244838,-2.7e-4 0.489062,-0.003 0.732422,-0.008 0.580478,0.58028 1.178849,1.14316 1.791015,1.68946 0.0072,0.24151 0.01563,0.48399 0.02734,0.72656 l -2.914062,3.34375 c -0.254816,0.0113 -0.509188,0.0198 -0.765626,0.0273 -2.078743,-1.85128 -3.997311,-3.88414 -5.724609,-6.0664 0.01905,-0.25814 0.03915,-0.51539 0.0625,-0.77149 l 7.015625,-5.43359 c 0.232517,0.0136 0.46583,0.0238 0.697266,0.0332 2.298111,2.87988 5.016927,5.45366 8.013672,7.57813 0.0223,0.23017 0.04551,0.4604 0.07227,0.6914 l -7.521484,10.97071 c -0.266948,0.0265 -0.533836,0.0472 -0.802735,0.0684 -5.815834,-4.05944 -10.773547,-9.31028 -14.484374,-15.36328 0.03973,-0.26933 0.08101,-0.5377 0.125,-0.80469 l 15.152343,-9.125 c 0.219704,0.0242 0.439165,0.0465 0.658203,0.0664 3.094719,4.90485 7.57434,9.15887 12.613282,11.93555 0.03213,0.21657 0.06693,0.43326 0.103515,0.65039 L 35.75,399.46094 c -0.280517,0.0514 -0.562749,0.0996 -0.845703,0.14648 -10.73316,-5.69987 -19.384636,-14.85389 -24.443359,-25.95312 0.06361,-0.28014 0.129423,-0.56049 0.197265,-0.83789 l 24.152344,-10.8086 c -1.442748,-3.1166 -1.867461,-6.37249 -1.974609,-9.51367 -0.313716,-9.197 7.018454,-19.45528 16.083984,-23.94141 z m -2.619141,57.48828 -23.423828,11.19726 c 4.907806,10.4172 13.07306,19.05762 23.142578,24.56836 l 10.222657,-18.41992 c -4.945436,-2.79646 -9.330472,-6.95864 -12.435547,-11.76367 l -14.066406,8.94531 c 3.494871,5.54178 8.068227,10.38069 13.390625,14.19336 l 7.166015,-9.93945 c -2.809741,-2.03789 -5.369973,-4.4608 -7.570312,-7.15625 l -6.080078,4.94531 c 1.481597,1.82547 3.100577,3.53998 4.83789,5.125 l 2.296875,-2.51562 c -0.367899,-0.336 -0.729513,-0.67914 -1.085937,-1.02735 l -1.1875,1.2168 c -0.248164,0.003 -0.49844,0.004 -0.748047,0.002 -0.627742,-0.62751 -1.237619,-1.27307 -1.828125,-1.93555 0.0098,-0.25209 0.02275,-0.50343 0.03711,-0.7539 l 3.34375,-2.91406 c 0.239433,0.006 0.478626,0.0118 0.716797,0.0137 1.558855,1.74484 3.268071,3.35877 5.095703,4.81445 0.0155,0.23735 0.03285,0.47636 0.05273,0.71484 l -5.433594,7.01368 c -0.263736,0.0189 -0.527381,0.0329 -0.792969,0.0488 -3.801902,-3.00597 -7.162809,-6.56647 -9.941406,-10.53906 0.0291,-0.26532 0.06034,-0.52795 0.09375,-0.79101 l 10.966797,-7.52149 c 0.223483,0.0219 0.445298,0.0428 0.667968,0.0606 2.807033,3.94477 6.446034,7.3924 10.525391,9.95312 0.02835,0.22413 0.05899,0.44734 0.0918,0.67188 l -9.123047,15.15039 c -0.27583,0.0389 -0.552003,0.0769 -0.830078,0.11133 -8.125327,-4.97019 -14.844481,-12.08413 -19.328125,-20.51172 0.05349,-0.27065 0.108412,-0.54046 0.166016,-0.8086 L 33.601561,364.5255 c 0.211843,0.0261 0.423396,0.0506 0.634766,0.0723 3.173325,5.72335 8.436742,10.73252 14.277344,13.51367 0.0359,0.20976 0.07498,0.41891 0.115234,0.6289 l -10.80664,24.1543 c 6.522618,2.87033 13.68467,4.87651 21.220703,4.76953 22.065673,-0.31324 40.958512,-13.82113 49.818362,-32.66797 L 85.435547,363.79297 c -2.848479,5.80638 -7.786036,11.00156 -13.464844,14.23242 l 10.226563,18.42188 c 7.827673,-4.29393 14.474327,-10.57412 19.220704,-18.11719 l -14.068361,-8.94336 c -2.530008,3.93341 -5.856227,7.44493 -9.654297,10.20898 l 7.167969,9.93946 c 3.544619,-2.54442 6.746878,-5.56729 9.494141,-8.95704 l -6.080078,-4.9414 c -1.310234,1.60822 -2.742396,3.12271 -4.275391,4.52344 l 2.294922,2.51367 c 0.380659,-0.34734 0.756349,-0.70228 1.125,-1.0625 l -1.185547,-1.21289 c -2.42e-4,-0.24492 -0.0033,-0.48906 -0.0078,-0.73242 0.580259,-0.5805 1.143148,-1.17689 1.689453,-1.78907 0.24136,-0.007 0.484,-0.0176 0.726562,-0.0293 l 3.34375,2.91406 c 0.01058,0.25474 0.01897,0.51117 0.02539,0.76758 -1.851277,2.07877 -3.882211,3.99732 -6.064453,5.72461 -0.258029,-0.0189 -0.515365,-0.041 -0.771485,-0.0645 l -5.435546,-7.01562 c 0.01361,-0.23244 0.02571,-0.46386 0.03516,-0.69531 2.879871,-2.2981 5.453671,-5.01692 7.578125,-8.01368 0.230211,-0.0223 0.46042,-0.0475 0.691406,-0.0742 l 10.96875,7.52149 c 0.02532,0.26683 0.04934,0.53577 0.07031,0.80469 -4.059406,5.81582 -9.310285,10.77352 -15.363282,14.48437 -0.269329,-0.0397 -0.537694,-0.0812 -0.804687,-0.125 L 73.791028,378.9238 c 0.02419,-0.21959 0.04649,-0.43918 0.06641,-0.65821 4.90484,-3.09472 9.160809,-7.57629 11.9375,-12.61523 0.216756,-0.0321 0.433264,-0.0669 0.65039,-0.10351 l 19.564462,10.24023 c 0.0515,0.28052 0.1013,0.56275 0.14843,0.8457 -5.69985,10.73318 -14.855876,19.38462 -25.955079,24.44336 -0.280139,-0.0635 -0.558532,-0.12923 -0.835937,-0.19726 l -10.80861,-24.15232 c -3.116614,1.44276 -6.374438,1.86745 -9.515625,1.97461 -9.196994,0.31374 -19.455267,-7.01846 -23.941407,-16.08398 z"
       style="fill:#ff00ff;fill-opacity:0.373494;stroke:none;stroke-width:0.71811;stroke-linecap:round;stroke-linejoin:bevel;stroke-miterlimit:4;stroke-dasharray:none"
       id="path949-5" />
    <rect
       style="fill:#ff0000;fill-opacity:1;stroke:none;stroke-width:0.2;stroke-linecap:round;stroke-linejoin:round;stroke-miterlimit:4;stroke-dasharray:none;stroke-opacity:1"
       id="rect1026-62-3"
       width="15.447"
       height="5.25"
       x="-21.932083"
       y="5.6495929" />
    <path
       sodipodi:nodetypes="cccccccccccccccccccccccccc"
       id="path875-7-2"
       d="M -18.763083,-4.043522e-7 V 4.8460004 h 6.894276 V 0.8079996 h -5.641361 v 3.2299998 l 4.387148,5.03e-4 V 1.6154996 l -3.132935,-5e-4 v 1.6159999 h 1.880021 V 2.4229996 h -0.627107 v 0.4040002 h -0.625807 V 2.0189996 h 1.88002 v 1.6159998 l -3.134234,-5.03e-4 V 1.2114996 l 4.387148,5.001e-4 v 3.2299997 h -5.640062 V 0.4039996 h 6.894156 l 2.37e-4,4.8459998"
       style="fill:none;stroke:#000000;stroke-width:0.2;stroke-linecap:butt;stroke-linejoin:miter;stroke-miterlimit:10;stroke-dasharray:none;stroke-opacity:1" />
    <path
       id="rect1026-62-3-7"
       style="fill:#ff0000;fill-opacity:1;stroke:none;stroke-width:0.2;stroke-linecap:round;stroke-linejoin:round;stroke-miterlimit:4;stroke-dasharray:none;stroke-opacity:1"
       d="m -39.948554,11.814007 v 5.250326 h 11.384834 v -4.746481 h -6.695198 v 3.838009 h 5.441011 v -3.03134 h -4.187341 v 2.222604 l 2.933671,0.0021 v -1.415934 h -1.680001 v 0.607714 h 0.425814 v -0.404626 h 0.828373 v 1.00769 h -2.079976 v -1.816426 l 3.332096,0.0021 v 2.623095 l -4.58835,-0.0021 v -3.429249 h 5.84202 v 4.237985 h -7.093624 v -4.945435 z m 4.062284,0 v 4.74648 h 6.695198 v -3.838008 h -5.441011 v 3.029272 h 4.187341 v -2.222603 h -2.933671 v 1.415934 h 1.680001 v -0.609265 h -0.427881 v 0.40411 h -0.824239 v -1.007691 h 2.079976 v 1.816427 h -3.335713 v -2.623096 h 4.587833 v 3.429765 h -5.839953 v -4.238501 h 7.093623 v 4.947502 h 3.86333 v -5.250326 z" />
    <path
       id="rect1026-62-3-7-6"
       style="fill:#ff0000;fill-opacity:1;stroke:none;stroke-width:0.2;stroke-linecap:round;stroke-linejoin:round;stroke-miterlimit:4;stroke-dasharray:none;stroke-opacity:1"
       d="m -48.942748,18.562696 v 5.250325 h 11.384835 v -4.746479 h -6.695199 v 3.838009 h 5.441011 v -3.031339 h -4.187341 v 2.222603 l 2.933671,0.0021 v -1.415933 h -1.680001 v 0.607713 h 0.425815 v -0.404624 h 0.828373 v 1.007689 h -2.079976 v -1.816425 l 3.332096,0.0021 v 2.623095 l -4.588351,-0.0021 v -3.429249 h 5.842021 v 4.237985 h -7.093625 V 18.56273 Z m 4.062285,0 v 4.746482 h 6.695197 v -3.838009 h -5.441011 v 3.029273 h 4.187341 v -2.222606 h -2.933671 v 1.415937 h 1.680001 v -0.609267 h -0.427882 v 0.404111 h -0.824238 v -1.007692 h 2.079977 v 1.816428 h -3.335715 v -2.623095 h 4.587835 v 3.429765 h -5.839955 V 18.86552 h 7.093625 v 4.947501 h 3.863329 11.384835 v -4.746479 h -6.695198 v 3.838009 h 5.441011 v -3.031339 h -4.187341 v 2.222603 l 2.933671,0.0021 v -1.415933 h -1.680001 v 0.607713 h 0.425814 v -0.404624 h 0.828373 v 1.007689 h -2.079976 v -1.816425 l 3.332096,0.0021 v 2.623095 l -4.58835,-0.0021 v -3.429249 h 5.84202 v 4.237985 h -7.093623 V 18.56273 h -3.863331 z m 15.447118,0 v 4.746482 h 6.695198 v -3.838009 h -5.441011 v 3.029273 h 4.187341 v -2.222606 h -2.933671 v 1.415937 h 1.680001 v -0.609267 h -0.427881 v 0.404111 h -0.824239 v -1.007692 h 2.079976 v 1.816428 h -3.335713 v -2.623095 h 4.587833 v 3.429765 h -5.839953 V 18.86552 h 7.093624 v 4.947501 h 3.863329 11.3848351 v -4.746479 h -6.6951981 v 3.838009 h 5.4410112 v -3.031339 h -4.1873412 v 2.222603 l 2.933671,0.0021 v -1.415933 h -1.680001 v 0.607713 h 0.425814 v -0.404624 h 0.8283732 v 1.007689 h -2.0799762 v -1.816425 l 3.332096,0.0021 v 2.623095 l -4.58835,-0.0021 v -3.429249 h 5.8420204 v 4.237985 H -14.18518 V 18.56273 h -3.863331 z m 15.447119,0 v 4.746482 h 6.6951984 v -3.838009 h -5.4410114 v 3.029273 h 4.187341 v -2.222606 h -2.933671 v 1.415937 h 1.6800008 v -0.609267 h -0.4278808 v 0.404111 h -0.824239 v -1.007692 h 2.0799762 v 1.816428 h -3.3357132 v -2.623095 h 4.5878332 v 3.429765 H -13.558345 V 18.86552 h 7.0936234 v 4.947501 h 3.8633301 v -5.250325 z" />
    <path
       style="fill:#ff00ff;fill-opacity:0.373494;stroke:none;stroke-width:0.19;stroke-linecap:round;stroke-linejoin:bevel;stroke-miterlimit:4;stroke-dasharray:none"
       id="path949-1"
       inkscape:path-effect="#path-effect973"
       sodipodi:type="arc"
       sodipodi:cx="-20.919762"
       sodipodi:cy="59.315144"
       sodipodi:rx="9.1588478"
       sodipodi:ry="9.1588478"
       d="m -7.919675,59.315144 h -7.682478 c 0.22684,2.422899 -2.746323,5.44192 -5.189062,5.326636 l 0.217022,6.921856 c 3.83315,-0.21136 7.215958,-2.140466 9.389728,-5.02862 l -4.451789,-3.382412 c -1.024629,1.330731 -2.509293,2.36653 -4.046785,2.700188 l 0.956158,4.277841 c 2.045669,-0.463125 3.901725,-1.500432 5.38256,-2.926313 l -2.249834,-2.334406 c -0.757827,0.729585 -1.642584,1.325166 -2.590283,1.723077 l 0.788559,1.891714 c 0.686344,-0.284841 1.340021,-0.646362 1.949043,-1.072577 l -0.508347,-0.723921 c -0.141304,0.0993 -0.285149,0.194771 -0.431339,0.28622 l 0.311724,0.498778 c -0.302161,0.188359 -0.614025,0.360665 -0.934154,0.515483 l -0.637415,-1.314119 c 0.682382,-0.333689 1.325636,-0.764657 1.907014,-1.270156 l 1.735452,2.000895 c -1.207702,1.042983 -2.633957,1.834349 -4.18503,2.28078 l -1.051605,-3.642773 c 1.348636,-0.388809 2.624857,-1.267106 3.584068,-2.391083 l 3.816666,3.229587 c -1.98284,2.356237 -4.828816,3.966286 -8.033884,4.326104 l -0.597108,-6.12559 c 1.70115,-0.09619 3.508098,-1.400459 4.518478,-3.01044 l 6.1417034,3.731521 c 1.1350418,-1.900788 1.8139453,-4.112133 1.8909376,-6.48827 z m -2.0698623,6.779471 -5.8062367,-3.731559 c -1.037488,1.572522 -2.788599,2.823592 -4.494638,2.994514 l 0.706744,5.52007 c 2.883293,-0.400395 5.457895,-1.852621 7.316597,-3.949469 l -3.30069,-2.936303 c -0.932397,1.043699 -2.13058,1.863828 -3.408941,2.27478 l 0.97724,3.060803 c 1.3143,-0.418263 2.532263,-1.094349 3.590062,-1.964432 l -1.313824,-1.591901 c -0.494596,0.409134 -1.029812,0.766553 -1.593661,1.06027 l 0.406461,0.784671 c 0.1584,-0.08197 0.31461,-0.168396 0.468432,-0.259093 l -0.298367,-0.505546 c 0.27826,-0.164716 0.548479,-0.344445 0.809239,-0.537772 l 0.872923,1.179739 c -0.761325,0.561054 -1.595866,1.022528 -2.480873,1.361672 l -0.944699,-2.452116 c 1.045628,-0.407398 2.021665,-1.069215 2.83428,-1.891618 l 2.722303,2.688919 c -1.620681,1.641368 -3.71496,2.814499 -6.038719,3.275275 l -0.941161,-4.872247 c 1.57326,-0.284725 3.123125,-1.375263 4.146086,-2.768107 l 5.004939,3.610407 c -2.275055,3.190959 -5.962834,5.300571 -10.16097,5.426472 l -0.0018,-7.239199 c -3.29e-4,-3.1e-5 -6.59e-4,-6.2e-5 -9.89e-4,-9.2e-5 -0.821856,0.07694 -1.712303,-0.214301 -2.525745,-0.728142 -1.626884,-1.027684 -2.945753,-2.945754 -2.791864,-4.589467 -0.07295,-0.779187 0.18505,-1.620025 0.649927,-2.398442 l -5.980945,-3.425472 c -0.975835,1.730712 -1.555264,3.713374 -1.614212,5.823914 0.04885,1.748901 0.455089,3.409993 1.148127,4.912679 l 5.035086,-2.360513 c -0.394192,-0.821082 -0.606821,-1.695336 -0.567291,-2.552166 -0.03136,-0.679803 0.096,-1.370573 0.346835,-2.037055 l -4.112471,-1.520059 c -0.410853,1.120849 -0.645918,2.318306 -0.669936,3.557114 0.01776,0.916205 0.150967,1.809793 0.385347,2.666498 l 3.099155,-0.846449 c -0.161791,-0.5957 -0.243346,-1.20715 -0.230439,-1.820049 -0.0076,-0.397096 0.02452,-0.793437 0.09235,-1.185155 l -2.017827,-0.35852 c -0.09106,0.505683 -0.140738,1.021534 -0.145166,1.543675 0.002,0.238377 0.01347,0.475444 0.03399,0.710831 l 0.880437,-0.07204 c -0.01382,-0.17133 -0.02203,-0.34343 -0.02446,-0.516105 l -0.591096,0.0093 c -9.07e-4,-0.04396 -0.0015,-0.08797 -0.0017,-0.132017 0.0017,-0.318059 0.02103,-0.633935 0.05711,-0.946655 l 1.453027,0.163746 c -0.02733,0.259727 -0.03954,0.521021 -0.03564,0.782909 -0.0072,0.486759 0.04114,0.971469 0.138885,1.447876 l -2.572243,0.53489 c -0.135775,-0.644892 -0.212274,-1.307903 -0.223258,-1.982766 0.0173,-0.987929 0.174954,-1.950079 0.45331,-2.866878 l 3.628098,1.101647 c -0.177536,0.580256 -0.264984,1.175194 -0.242695,1.765231 -0.03053,0.777473 0.129509,1.563933 0.435325,2.314432 l -4.605582,1.847453 c -0.513272,-1.296589 -0.811331,-2.698843 -0.849299,-4.161885 0.04706,-1.813445 0.493717,-3.533496 1.254506,-5.074695 l 5.493219,2.753459 c -0.392818,0.755362 -0.603485,1.557594 -0.546542,2.321236 -0.06798,0.911682 0.245461,1.878367 0.794914,2.754636 l -6.143112,3.729055 c 1.134296,1.901297 2.724852,3.49216 4.625899,4.626823 1.90028,1.134211 4.110805,1.81259 6.485983,1.889539 4.627035,-0.149882 8.629236,-2.582195 10.9302247,-6.220582 z m -22.2137417,-0.591944 5.980951,-3.425472 c -0.519115,-0.879503 -0.811234,-1.841546 -0.752285,-2.762055 -0.04885,-0.762783 0.14337,-1.554086 0.506056,-2.303309 l -5.035084,-2.360515 c -0.661533,1.430827 -1.047364,3.008968 -1.086895,4.663824 0.03136,1.312946 0.280712,2.577603 0.712787,3.758712 l 4.109669,-1.519022 c -0.272166,-0.727052 -0.413887,-1.485368 -0.389907,-2.23969 -0.01774,-0.557889 0.05517,-1.117962 0.204443,-1.665956 l -3.099159,-0.846452 c -0.221274,0.809162 -0.34519,1.651385 -0.357486,2.512408 0.008,0.557851 0.06279,1.107811 0.160584,1.646001 l 2.017833,-0.35852 c -0.07418,-0.424295 -0.110993,-0.854748 -0.106564,-1.287481 -0.002,-0.197562 0.0046,-0.394648 0.01935,-0.59089 l -0.882688,-0.07223 c -0.01482,0.178613 -0.02388,0.358115 -0.02698,0.538308 l 0.590368,0.0091 c -3.89e-4,0.03853 -4.71e-4,0.07709 -2.46e-4,0.115678 -0.0017,0.283606 0.01333,0.565988 0.04399,0.846181 l -1.453107,0.163294 c -0.03937,-0.333044 -0.06148,-0.669858 -0.06538,-1.009475 0.0073,-0.634004 0.07803,-1.258236 0.206021,-1.866415 l 2.57207,0.535665 c -0.08946,0.43955 -0.131629,0.885227 -0.120223,1.33075 -0.01668,0.651708 0.08127,1.303748 0.274195,1.936458 l -3.627861,1.102436 c -0.293717,-0.969516 -0.461787,-1.989035 -0.484548,-3.038894 0.02994,-1.381195 0.311389,-2.709875 0.799565,-3.941272 l 4.606766,1.846435 c -0.281496,0.685331 -0.425675,1.398533 -0.387767,2.094837 -0.04703,0.863752 0.186146,1.753507 0.614054,2.583808 l -5.493891,2.753793 c -0.795924,-1.616233 -1.265111,-3.423919 -1.322104,-5.337601 0.06804,-2.284677 0.723589,-4.418277 1.821224,-6.255383 l 6.145674,3.730616 c 0.51387,-0.813831 1.250573,-1.550654 2.064342,-2.064701 0.813442,-0.513842 1.703887,-0.805086 2.525743,-0.728141 1.601044,-0.149895 3.462384,1.097497 4.507653,2.665807 l 5.806235,-3.731553 c -1.940529,-3.061222 -5.161188,-5.234488 -8.903279,-5.761101 l -0.706747,5.520069 c 1.544259,0.166473 3.082604,1.082 4.207825,2.339372 l 3.302942,-2.938305 c -1.364336,-1.538059 -3.131678,-2.71533 -5.116418,-3.346204 l -0.977241,3.060799 c 0.971539,0.312609 1.892952,0.836312 2.700574,1.507118 l 1.313821,-1.591896 c -0.574031,-0.472823 -1.197189,-0.885425 -1.857487,-1.225818 l -0.405424,0.782669 c 0.152676,0.07917 0.303295,0.162651 0.451661,0.250248 l 0.29861,-0.506263 c 0.306797,0.180463 0.604241,0.377329 0.890895,0.589159 l -0.873229,1.179517 c -0.616497,-0.458673 -1.288037,-0.835982 -1.991872,-1.10918 l 0.945393,-2.451858 c 1.500372,0.575027 2.857357,1.477161 3.977639,2.612667 l -2.721794,2.689434 c -1.039717,-1.053131 -2.363611,-1.828096 -3.727877,-2.080296 l 0.939552,-4.871834 c 3.122498,0.621465 5.831998,2.439255 7.624457,4.949328 l -5.004328,3.609964 c -1.144112,-1.548906 -3.005054,-2.712362 -4.68046,-2.588001 l 0.0018,-7.236177 c -9.56e-4,-3.1e-5 -0.0019,-6.2e-5 -0.0029,-9.3e-5 -2.375173,0.07694 -4.585697,0.755315 -6.48598,1.88952 -3.800574,2.268404 -6.36019,6.360153 -6.51409,11.110517 0.07294,2.25186 0.686485,4.355727 1.716553,6.187527 z m 11.652131,-19.170785 -0.217027,6.92186 c 1.690931,-0.03816 3.498026,1.074915 4.662587,2.580535 l 4.451791,-3.38241 c -1.688345,-2.239972 -4.139503,-3.882236 -6.946265,-4.519581 l -0.955508,4.274925 c 1.298208,0.284288 2.544021,1.005537 3.551833,1.978142 l 2.249838,-2.334409 c -0.98644,-0.95007 -2.146683,-1.719783 -3.4169,-2.245311 l -0.788561,1.891719 c 0.583547,0.244513 1.142934,0.557199 1.666172,0.926073 l 0.509647,-0.725772 c -0.14642,-0.102743 -0.295518,-0.201509 -0.447094,-0.2961 l -0.311196,0.498224 c -0.274327,-0.171827 -0.557036,-0.328978 -0.846711,-0.470039 l 0.63778,-1.313958 c 0.852408,0.41104 1.647473,0.93753 2.362443,1.556724 l -1.735969,2.000462 c -0.87072,-0.758736 -1.88723,-1.339253 -2.955698,-1.64772 l 1.05081,-3.643001 c 2.256671,0.650419 4.25059,1.979921 5.73764,3.744388 l -3.816431,3.231053 c -1.130271,-1.322147 -2.733401,-2.287944 -4.305882,-2.393884 l 0.597185,-6.126339 c 4.100892,0.469442 7.611687,2.842856 9.630021,6.217877 l -6.144269,3.733077 c 0.514226,0.813707 0.805736,1.704538 0.728759,2.526725 l 7.6824824,1e-6 C -8.1465108,52.312917 -13.600477,46.741687 -20.551148,46.331886 Z" />
    <path
       d="m -39.212338,53.710417 h -5.250324 c 0.155025,2.229918 -2.390167,4.816384 -4.631712,4.755532 l 0.148311,4.730505 c 2.9561,-0.154993 5.584075,-1.658668 7.272998,-3.900096 l -3.042421,-2.311594 c -0.865491,1.126929 -2.11986,1.997926 -3.435208,2.285094 l 0.65345,2.923544 c 1.601678,-0.362021 3.059038,-1.178028 4.222622,-2.298563 l -1.537571,-1.595371 c -0.624093,0.600945 -1.353262,1.09118 -2.136001,1.41942 l 0.538912,1.292827 c 0.546406,-0.226906 1.067025,-0.51504 1.552206,-0.85475 l -0.347412,-0.494739 c -0.114049,0.08014 -0.230151,0.157186 -0.348148,0.230988 l 0.213036,0.340873 c -0.24169,0.150719 -0.491118,0.288588 -0.747127,0.41245 l -0.435619,-0.89809 c 0.559825,-0.273387 1.087036,-0.626214 1.563316,-1.040162 l 1.186034,1.367444 c -0.951851,0.822498 -2.075248,1.446897 -3.294739,1.798027 l -0.718681,-2.489528 c 1.141262,-0.329107 2.212573,-1.063907 3.017025,-2.008031 l 2.608368,2.207151 c -1.544704,1.834353 -3.760683,3.091599 -6.242067,3.365867 l -0.408068,-4.186325 c 1.515923,-0.100177 3.074671,-1.215507 3.949629,-2.619376 l 4.197334,2.550181 c 0.87616,-1.464365 1.39924,-3.164583 1.451857,-4.983278 z m -1.589983,5.207643 -3.968072,-2.550207 c -0.890422,1.35692 -2.389984,2.420492 -3.887755,2.579786 l 0.482995,3.772503 c 2.240165,-0.308161 4.250204,-1.44485 5.702217,-3.082169 l -2.255742,-2.006717 c -0.777085,0.870508 -1.776541,1.552638 -2.84891,1.896933 l 0.667859,2.091801 c 1.037435,-0.330296 2.00014,-0.86536 2.836717,-1.553793 l -0.897887,-1.08793 c -0.403104,0.333327 -0.839434,0.624493 -1.299339,0.863847 l 0.277782,0.536256 c 0.127243,-0.06585 0.252729,-0.135295 0.3763,-0.208165 l -0.203908,-0.345499 c 0.225701,-0.13354 0.444852,-0.279244 0.656313,-0.435972 l 0.596569,0.806253 c -0.604218,0.445524 -1.266281,0.811972 -1.967871,1.081027 l -0.64562,-1.675816 c 0.869779,-0.338205 1.679041,-0.885757 2.352231,-1.567099 l 1.860463,1.83765 c -1.269667,1.285816 -2.90913,2.206152 -4.721818,2.564436 l -0.6432,-3.32977 c 1.36108,-0.249809 2.679608,-1.172199 3.550143,-2.36173 l 3.420452,2.46741 c -1.763036,2.469405 -4.62124,4.110479 -7.847996,4.196605 l -0.0012,-4.947383 c -3.01e-4,-2.1e-5 -6.03e-4,-4.2e-5 -9.04e-4,-6.2e-5 -0.756399,0.05259 -1.553822,-0.205516 -2.275032,-0.657066 -1.442413,-0.903096 -2.579977,-2.579982 -2.474806,-4.092772 -0.04986,-0.717128 0.179552,-1.471131 0.588316,-2.162101 l -4.087466,-2.341031 c -0.757963,1.341784 -1.207043,2.876131 -1.247329,4.503132 0.03338,1.348202 0.347463,2.632784 0.885394,3.796898 l 3.441058,-1.613204 c -0.333696,-0.698297 -0.515459,-1.445144 -0.488443,-2.183694 -0.02144,-0.585967 0.08855,-1.177157 0.301577,-1.745179 l -2.810524,-1.03884 c -0.322383,0.878546 -0.505978,1.816016 -0.522392,2.784019 0.01214,0.71591 0.115721,1.41512 0.299261,2.086143 l 2.118012,-0.578471 c -0.133931,-0.49265 -0.202217,-0.999044 -0.193396,-1.507672 -0.0052,-0.329547 0.02203,-0.658056 0.07845,-0.98241 l -1.379013,-0.245022 c -0.0723,0.402241 -0.111519,0.812426 -0.114545,1.227432 0.0014,0.189457 0.01031,0.37791 0.02648,0.565061 l 0.601705,-0.04923 c -0.01118,-0.138348 -0.01785,-0.277324 -0.01984,-0.416769 l -0.403965,0.0064 c -7e-4,-0.03511 -0.0011,-0.07026 -0.0013,-0.105436 0.0011,-0.254061 0.01647,-0.506423 0.0452,-0.756301 l 0.993021,0.111909 c -0.02275,0.213661 -0.03319,0.42872 -0.03053,0.644392 -0.0049,0.400846 0.03536,0.799574 0.115879,1.191149 l -1.757911,0.365548 c -0.106512,-0.506719 -0.166034,-1.027299 -0.173541,-1.556697 0.01182,-0.774999 0.135089,-1.530842 0.353978,-2.251764 l 2.479497,0.752889 c -0.149986,0.490921 -0.225271,0.995804 -0.210039,1.498875 -0.02087,0.662871 0.115455,1.329214 0.372881,1.962844 l -3.147529,1.262572 c -0.399203,-1.006836 -0.629846,-2.094019 -0.655794,-3.225416 0.03216,-1.402385 0.37882,-2.736842 0.971155,-3.934554 l 3.754147,1.881766 c -0.340856,0.660657 -0.526233,1.367858 -0.487317,2.052788 -0.04646,0.817703 0.22676,1.667149 0.702568,2.431245 l -4.198303,2.548486 c 0.875581,1.464753 2.10434,2.693753 3.568901,3.569622 1.463973,0.875523 3.163561,1.398198 4.981527,1.450787 3.541529,-0.102432 6.633832,-1.988837 8.410178,-4.792497 z m -17.093081,-0.45605 4.087479,-2.341013 c -0.445823,-0.760048 -0.698544,-1.596876 -0.658257,-2.41058 -0.03338,-0.674285 0.134434,-1.364449 0.446606,-2.013644 l -3.441051,-1.613222 c -0.516411,1.115016 -0.816549,2.342921 -0.843564,3.626866 0.02143,1.018656 0.214784,2.002038 0.551662,2.921756 l 2.808614,-1.038118 c -0.227594,-0.609409 -0.347392,-1.246751 -0.331003,-1.883638 -0.01212,-0.471042 0.05025,-0.942334 0.175637,-1.40239 l -2.118012,-0.578484 c -0.174589,0.638544 -0.271828,1.302663 -0.280231,1.980874 0.0054,0.439398 0.04818,0.872881 0.125075,1.297326 l 1.379019,-0.245015 c -0.06076,-0.346608 -0.09118,-0.698419 -0.08816,-1.052311 -0.0014,-0.161575 0.0042,-0.322716 0.01648,-0.483126 l -0.603242,-0.04936 c -0.01188,0.143429 -0.01912,0.287567 -0.02157,0.432255 l 0.403466,0.0062 c -3.42e-4,0.03131 -4.38e-4,0.06264 -2.83e-4,0.09399 -0.0011,0.2304 0.01119,0.459757 0.0362,0.687294 l -0.993075,0.111595 c -0.03096,-0.263655 -0.04815,-0.530211 -0.05081,-0.798889 0.005,-0.501591 0.0606,-0.995784 0.161831,-1.477521 l 1.757792,0.366087 c -0.07491,0.366492 -0.11099,0.738656 -0.103195,1.111434 -0.0114,0.545287 0.07108,1.089261 0.231625,1.616089 l -2.479338,0.753417 c -0.229423,-0.757006 -0.359827,-1.552118 -0.375382,-2.369506 0.02046,-1.075371 0.239716,-2.112187 0.621706,-3.074397 l 3.148332,1.26189 c -0.240739,0.589019 -0.366181,1.205205 -0.340273,1.812507 -0.03214,0.753339 0.168614,1.520347 0.533444,2.232212 l -3.754614,1.881978 c -0.616335,-1.248982 -0.978384,-2.643316 -1.017333,-4.11419 0.0465,-1.756041 0.553527,-3.402987 1.403983,-4.82374 l 4.200043,2.549571 c 0.451576,-0.721558 1.096802,-1.366889 1.818301,-1.818616 0.721205,-0.451542 1.51862,-0.709638 2.275012,-0.657053 1.473526,-0.10244 3.102741,0.974182 4.020906,2.36313 l 3.968082,-2.550186 c -1.507566,-2.374329 -4.011433,-4.068153 -6.900672,-4.470545 l -0.483017,3.772499 c 1.325047,0.148303 2.626887,0.91821 3.577623,1.981822 l 2.25729,-2.008075 c -1.072274,-1.208366 -2.460699,-2.134578 -4.015817,-2.629178 l -0.667869,2.091795 c 0.803186,0.258096 1.563221,0.689021 2.228821,1.241268 l 0.89789,-1.087923 c -0.45739,-0.376855 -0.953819,-0.705737 -1.479638,-0.976992 l -0.277075,0.534887 c 0.12324,0.0639 0.244816,0.131271 0.364571,0.201965 l 0.204076,-0.345987 c 0.245386,0.144399 0.483317,0.301931 0.712634,0.471437 l -0.596781,0.806098 c -0.505223,-0.375579 -1.055874,-0.684536 -1.633637,-0.908551 l 0.646103,-1.675636 c 1.180371,0.452751 2.249813,1.164438 3.133159,2.059611 l -1.860124,1.837995 c -0.872672,-0.883797 -1.985689,-1.531992 -3.142682,-1.747676 l 0.642117,-3.329484 c 2.419971,0.479885 4.53113,1.89934 5.927604,3.852494 l -3.420045,2.467092 c -0.990125,-1.347204 -2.599836,-2.341667 -4.102516,-2.256771 l 0.0012,-4.945315 c -7.43e-4,-2.1e-5 -0.0015,-4.3e-5 -0.0022,-6.4e-5 -1.817946,0.05258 -3.517519,0.575245 -4.981486,1.45075 -2.927964,1.751019 -4.913488,4.913442 -5.018667,8.549378 0.04985,1.723566 0.522236,3.340732 1.31725,4.751593 z m 8.965136,-14.739777 -0.148338,4.730504 c 1.492072,-0.01552 3.043177,0.930472 4.042384,2.227058 l 3.042432,-2.31158 c -1.319078,-1.748324 -3.233959,-3.033797 -5.416745,-3.528519 l -0.65302,2.921548 c 1.09085,0.239807 2.131157,0.83982 2.971466,1.650583 l 1.537581,-1.595366 c -0.780328,-0.751631 -1.697766,-1.360875 -2.700917,-1.776335 l -0.53892,1.292829 c 0.476152,0.199348 0.932331,0.454109 1.358884,0.754633 l 0.348302,-0.496003 c -0.11763,-0.08255 -0.237409,-0.161906 -0.359178,-0.237906 l -0.212677,0.340493 c -0.222498,-0.139303 -0.451819,-0.266715 -0.686824,-0.381096 l 0.435872,-0.897978 c 0.676011,0.326279 1.306955,0.744413 1.874515,1.236084 l -1.186393,1.367143 c -0.721659,-0.628394 -1.565193,-1.108801 -2.455047,-1.365665 l 0.71815,-2.489681 c 1.761814,0.507848 3.323611,1.550954 4.48882,2.932747 l -2.608217,2.208142 c -0.96203,-1.127516 -2.328537,-1.944376 -3.69408,-2.045139 l 0.408141,-4.186833 c 3.155942,0.355278 5.87912,2.20129 7.442918,4.811421 l -4.199099,2.551227 c 0.451881,0.721438 0.710205,1.519196 0.657592,2.275895 l 5.250328,3.2e-5 c -0.154998,-5.359515 -4.395597,-9.690217 -9.71793,-9.988238 z"
       style="fill:#ff00ff;fill-opacity:0.373494;stroke:none;stroke-width:0.2;stroke-linecap:round;stroke-linejoin:bevel;stroke-miterlimit:4;stroke-dasharray:none"
       id="path2649-3-3"
       inkscape:path-effect="#path-effect1013"
       inkscape:original-d="m -41.8375,53.710417 a 7.3750001,7.3750001 0 0 1 -7.374999,7.375 7.3750001,7.3750001 0 0 1 -7.375001,-7.375 7.3750001,7.3750001 0 0 1 7.375001,-7.375 7.3750001,7.3750001 0 0 1 7.374999,7.375 z" />
    <path
       id="path1043"
       style="fill:#00ff00;fill-opacity:1;stroke:none;stroke-width:0.2;stroke-linecap:round;stroke-linejoin:miter;stroke-miterlimit:10;stroke-dasharray:none;stroke-dashoffset:0"
       d="M 62.570856,77.612316 A 13,13 0 0 0 49.571134,90.612557 13,13 0 0 0 62.570856,103.61228 13,13 0 0 0 75.571097,90.612557 13,13 0 0 0 62.570856,77.612316 Z m -0.03927,6.250265 a 6.7499999,6.7499999 0 0 1 0.03927,0 6.7499999,6.7499999 0 0 1 6.749976,6.749976 6.7499999,6.7499999 0 0 1 -6.749976,6.749976 6.7499999,6.7499999 0 0 1 -6.749976,-6.749976 6.7499999,6.7499999 0 0 1 6.710702,-6.749976 z" />
    <rect
       style="fill:#ffcc00;fill-opacity:0.373494;stroke:none;stroke-width:0.202;stroke-linecap:round;stroke-linejoin:bevel;stroke-miterlimit:4;stroke-dasharray:none"
       id="rect2887-7"
       width="11.827"
       height="11.827001"
       x="59.099781"
       y="58.582809" />
    <rect
       style="fill:#ffcc00;fill-opacity:0.373494;stroke:none;stroke-width:0.202;stroke-linecap:round;stroke-linejoin:bevel;stroke-miterlimit:4;stroke-dasharray:none"
       id="rect2887-6"
       width="11.827058"
       height="6.5"
       x="75.093201"
       y="45.203304" />
    <path
       style="fill:none;stroke:#000000;stroke-width:0.23;stroke-linecap:butt;stroke-linejoin:miter;stroke-opacity:1;stroke-miterlimit:4;stroke-dasharray:none"
       d="M 62.571115,72.157611 V 109.06699"
       id="path1098" />
    <path
       id="path1098-7"
       d="M 46.588885,99.839645 78.553345,81.384956"
       style="fill:none;stroke:#000000;stroke-width:0.23;stroke-linecap:butt;stroke-linejoin:miter;stroke-opacity:1;stroke-miterlimit:4;stroke-dasharray:none" />
    <path
       id="path1098-6"
       d="M 78.553345,99.839645 46.588885,81.384955"
       style="fill:none;stroke:#000000;stroke-width:0.23;stroke-linecap:butt;stroke-linejoin:miter;stroke-opacity:1;stroke-miterlimit:4;stroke-dasharray:none" />
    <path
       d="m 93.429698,77.090901 a 12.999999,12.999999 0 0 0 -12.899472,12.999725 12.999999,12.999999 0 0 0 1.701189,6.429063 l 5.41569,-3.119189 a 6.75,6.75 0 0 1 -0.867132,-3.309874 6.75,6.75 0 0 1 6.649725,-6.748944 z m 0.20102,0 v 6.250781 a 6.75,6.75 0 0 1 6.649202,6.748944 6.75,6.75 0 0 1 -0.866609,3.308842 l 5.415689,3.119705 a 12.999999,12.999999 0 0 0 1.70119,-6.428547 12.999999,12.999999 0 0 0 -12.899472,-12.999725 z m -5.883362,16.481682 -5.41569,3.120223 a 12.999999,12.999999 0 0 0 11.198283,6.397544 12.999999,12.999999 0 0 0 11.198281,-6.397544 l -5.416204,-3.120223 a 6.75,6.75 0 0 1 -5.782077,3.268019 6.75,6.75 0 0 1 -5.782593,-3.268019 z"
       style="fill:#00ff00;fill-opacity:1;stroke:none;stroke-width:0.2;stroke-linecap:round;stroke-linejoin:miter;stroke-miterlimit:10;stroke-dasharray:none;stroke-dashoffset:0"
       id="path1043-5" />
    <path
       d="m 124.10612,77.884651 a 12.999999,12.999999 0 0 0 -12.88397,12.999722 12.999999,12.999999 0 0 0 1.6924,6.413045 l 5.41518,-3.120223 a 6.7499999,6.7499999 0 0 1 -0.85783,-3.292822 6.7499999,6.7499999 0 0 1 6.63422,-6.748425 z m 0.23047,5.16e-4 v 6.250265 a 6.7499999,6.7499999 0 0 1 6.63526,6.748941 6.7499999,6.7499999 0 0 1 -0.85886,3.295407 l 5.41517,3.119705 a 12.999999,12.999999 0 0 0 1.69344,-6.415112 12.999999,12.999999 0 0 0 -12.88501,-12.999206 z m -5.89162,16.490465 -5.41518,3.12074 a 12.999999,12.999999 0 0 0 11.19157,6.387728 12.999999,12.999999 0 0 0 11.19104,-6.385143 l -5.41569,-3.119708 a 6.7499999,6.7499999 0 0 1 -5.77535,3.255616 6.7499999,6.7499999 0 0 1 -5.77639,-3.259233 z"
       style="fill:#000000;fill-opacity:1;stroke:none;stroke-width:0.2;stroke-linecap:round;stroke-linejoin:miter;stroke-miterlimit:10;stroke-dasharray:none;stroke-dashoffset:0"
       id="path1043-1" />
  </g>
</svg>
