<?xml version="1.0" encoding="UTF-8" standalone="no"?>
<svg
   xmlns:dc="http://purl.org/dc/elements/1.1/"
   xmlns:cc="http://creativecommons.org/ns#"
   xmlns:rdf="http://www.w3.org/1999/02/22-rdf-syntax-ns#"
   xmlns:svg="http://www.w3.org/2000/svg"
   xmlns="http://www.w3.org/2000/svg"
   xmlns:sodipodi="http://sodipodi.sourceforge.net/DTD/sodipodi-0.dtd"
   xmlns:inkscape="http://www.inkscape.org/namespaces/inkscape"
   sodipodi:docname="scroll-4.svg"
   inkscape:version="1.0 (4035a4fb49, 2020-05-01)"
   width="29.196754mm"
   height="29.196772mm"
   viewBox="0 0 29.196754 29.196772"
   version="1.1"
   id="svg2965">
  <defs
     id="defs2959" />
  <sodipodi:namedview
     fit-margin-bottom="0"
     fit-margin-right="0"
     fit-margin-left="0"
     fit-margin-top="0"
     inkscape:window-maximized="1"
     inkscape:window-y="-8"
     inkscape:window-x="54"
     inkscape:window-height="1177"
     inkscape:window-width="1858"
     showgrid="false"
     inkscape:document-rotation="0"
     inkscape:current-layer="g3537"
     inkscape:document-units="mm"
     inkscape:cy="60.675266"
     inkscape:cx="44.694943"
     inkscape:zoom="7.9195959"
     inkscape:pageshadow="2"
     inkscape:pageopacity="0.0"
     borderopacity="1.0"
     bordercolor="#666666"
     pagecolor="#ffffff"
     id="base" />
  <metadata
     id="metadata2962">
    <rdf:RDF>
      <cc:Work
         rdf:about="">
        <dc:format>image/svg+xml</dc:format>
        <dc:type
           rdf:resource="http://purl.org/dc/dcmitype/StillImage" />
        <dc:title></dc:title>
      </cc:Work>
    </rdf:RDF>
  </metadata>
  <g
     transform="translate(2.6448799,-6.42654)"
     inkscape:label="[fixed] BG"
     inkscape:groupmode="layer"
     sodipodi:insensitive="true"
     id="g3533">
    <rect
       x="0"
       y="0"
       width="29"
       height="38"
       style="fill:#ffffff;fill-opacity:1;stroke:none"
       id="rect3531" />
  </g>
  <g
     transform="translate(2.6448799,-6.42654)"
     inkscape:label="F.Cu"
     inkscape:groupmode="layer"
     id="g3535">
    <path
       id="path949-5-4"
       style="fill:#000000;fill-opacity:1;stroke:none;stroke-width:0.19;stroke-linecap:round;stroke-linejoin:bevel;stroke-miterlimit:4;stroke-dasharray:none"
       d="M 11.953242,6.42762 C 6.1150492,6.5104927 1.1163092,10.084479 -1.2278658,15.071018 l 6.198071,2.963645 c 0.753664,-1.536274 2.060572,-2.910321 3.563091,-3.765145 L 5.8275172,9.3953961 C 3.7564422,10.531495 1.9973412,12.192608 0.74152316,14.188386 l 3.72225304,2.36678 c 0.669402,-1.040712 1.549974,-1.969804 2.554883,-2.701128 l -1.897042,-2.629813 c -0.93785,0.673206 -1.784591,1.472496 -2.511474,2.369365 l 1.608687,1.30793 c 0.346667,-0.425508 0.725074,-0.826214 1.13068,-1.196826 l -0.607198,-0.665076 c -0.100716,0.09192 -0.1996,0.185291 -0.297139,0.280604 l 0.313676,0.320911 c 6.3e-5,0.06478 8.73e-4,0.129397 0.0021,0.193786 -0.153527,0.153583 -0.302975,0.311904 -0.447518,0.473874 -0.06386,0.0019 -0.128058,0.0041 -0.192237,0.0072 l -0.884696,-0.770989 c -0.0028,-0.06742 -0.0051,-0.134723 -0.0067,-0.202573 0.489818,-0.55 1.027683,-1.057624 1.60507,-1.514636 0.06827,0.005 0.136355,0.01034 0.204121,0.01654 l 1.437639,1.856735 c -0.0036,0.06152 -0.0063,0.122735 -0.0088,0.183968 -0.761968,0.608041 -1.442949,1.327393 -2.005046,2.120283 -0.06091,0.0059 -0.121818,0.01204 -0.182934,0.01913 l -2.902708,-1.990063 c -0.0067,-0.07063 -0.01254,-0.141245 -0.01809,-0.212391 1.074056,-1.538772 2.463343,-2.850502 4.064868,-3.8323229 0.07126,0.0105 0.142265,0.02143 0.212907,0.03307 l 2.414323,4.009056 c -0.0064,0.05813 -0.0123,0.116195 -0.01757,0.174149 -1.297742,0.818809 -2.423277,2.004047 -3.157947,3.337264 -0.05735,0.0085 -0.114634,0.0177 -0.172082,0.02739 l -5.17694104,-2.708876 c -0.01362,-0.07422 -0.02629,-0.148895 -0.03876,-0.223758 1.508093,-2.839813 3.93009604,-5.1288579 6.86676404,-6.4673062 0.07412,0.016827 0.148295,0.034242 0.221692,0.052192 l 2.859257,6.3903092 c 0.8245988,-0.381725 1.6865758,-0.494102 2.5176758,-0.522449 2.433373,-0.083 5.147548,1.856965 6.334497,4.255553 L 24.485808,15.38366 C 23.187294,12.62744 21.026892,10.341342 18.36267,8.883284 l -2.705261,4.873604 c 1.308481,0.739894 2.468691,1.841137 3.290238,3.112471 l 3.721737,-2.36678 c -0.924682,-1.466263 -2.134204,-2.747068 -3.54242,-3.755845 l -1.896525,2.630331 c 0.743409,0.539195 1.420808,1.180254 2.002979,1.893425 l 1.609204,-1.308447 C 20.450618,13.479049 20.022259,13.02491 19.562596,12.605538 l -0.608231,0.666107 c 0.09734,0.0889 0.193534,0.179162 0.287838,0.271301 l 0.314192,-0.321427 c 0.06566,-7.93e-4 0.131367,-0.0011 0.197404,-5.29e-4 0.166092,0.166029 0.327453,0.336833 0.483692,0.512112 -0.0026,0.06673 -0.0055,0.133196 -0.0093,0.199472 l -0.885217,0.771012 c -0.06335,-0.0016 -0.126638,-0.0031 -0.189653,-0.0036 -0.412446,-0.461661 -0.86416,-0.889191 -1.347721,-1.274342 -0.0041,-0.06284 -0.0092,-0.125516 -0.01447,-0.188619 l 1.437638,-1.8557 c 0.06978,-0.005 0.140053,-0.0091 0.210323,-0.01291 1.005917,0.79533 1.895163,1.736871 2.630331,2.787944 -0.0077,0.07017 -0.01597,0.140205 -0.02481,0.209807 l -2.90163,1.990034 c -0.05913,-0.0058 -0.118336,-0.01133 -0.17725,-0.01603 -0.74269,-1.043721 -1.705001,-1.955906 -2.784326,-2.633432 -0.0075,-0.05926 -0.01561,-0.118875 -0.02429,-0.178282 l 2.413807,-4.0085409 c 0.07298,-0.01032 0.14605,-0.01979 0.219624,-0.02894 2.149822,1.3150429 3.92761,3.1972519 5.113901,5.4270589 -0.01415,0.0716 -0.02868,0.142484 -0.04392,0.213424 l -5.175913,2.709394 c -0.05605,-0.0069 -0.112026,-0.01289 -0.167949,-0.0186 -0.839604,-1.514308 -2.232221,-2.839635 -3.777547,-3.575492 -0.0095,-0.05552 -0.01932,-0.111353 -0.02997,-0.166915 L 17.568403,7.6895581 C 15.84263,6.930114 13.947149,6.3993175 11.953242,6.42762 Z M 17.9074,7.8435535 14.94324,14.041625 c 1.53627,0.753665 2.91084,2.060569 3.765662,3.56309 l 4.874122,-2.70578 c -1.136098,-2.071076 -2.797213,-3.830171 -4.79299,-5.0859919 l -2.366781,3.7222529 c 1.040712,0.669401 1.969807,1.549974 2.701127,2.554883 l 2.629814,-1.897041 c -0.673204,-0.93785 -1.473015,-1.784591 -2.369881,-2.511476 l -1.307414,1.608688 c 0.425508,0.346668 0.826216,0.725072 1.196826,1.130679 l 0.665076,-0.607198 c -0.09192,-0.100716 -0.185806,-0.199599 -0.28112,-0.29714 l -0.32091,0.313676 c -0.06478,6.4e-5 -0.129398,7.94e-4 -0.193787,0.0021 -0.153585,-0.153527 -0.311387,-0.302972 -0.473356,-0.447516 -0.0019,-0.06386 -0.0047,-0.128058 -0.0078,-0.192238 l 0.771013,-0.884698 c 0.06742,-0.0028 0.135239,-0.005 0.203088,-0.0067 0.549999,0.489821 1.057623,1.027684 1.514636,1.605071 -0.005,0.06827 -0.01088,0.136359 -0.01705,0.204124 l -1.856217,1.437637 c -0.06152,-0.0036 -0.122735,-0.0063 -0.183968,-0.0088 -0.608041,-0.761971 -1.327396,-1.442948 -2.120284,-2.005047 -0.0059,-0.06091 -0.01256,-0.12182 -0.01964,-0.182936 l 1.99006,-2.902664 c 0.07063,-0.0067 0.141761,-0.01254 0.212907,-0.0181 1.538771,1.074057 2.850505,2.463342 3.832323,4.064867 -0.0105,0.07126 -0.02143,0.142267 -0.03307,0.212908 l -4.009057,2.414323 c -0.05813,-0.0064 -0.116195,-0.0123 -0.174149,-0.01757 -0.818807,-1.297741 -2.004563,-2.423273 -3.337781,-3.157944 -0.0085,-0.05735 -0.01771,-0.114636 -0.02739,-0.172083 L 18.11669,8.5980711 c 0.07422,-0.013626 0.148377,-0.0263 0.223242,-0.038756 2.839811,1.5080959 5.129377,3.9300919 6.467823,6.8667629 -0.01683,0.07412 -0.03424,0.148296 -0.05219,0.221692 l -6.39031,2.859257 c 0.381727,0.824608 0.494098,1.687083 0.522449,2.518193 0.08301,2.43337 -1.856969,5.147016 -4.255554,6.333979 l 2.96261,6.198073 c 2.756213,-1.298572 5.042331,-3.458961 6.500379,-6.123183 l -4.874122,-2.705261 c -0.73989,1.308481 -1.840623,2.468682 -3.111954,3.290237 l 2.366263,3.721737 c 1.46626,-0.924679 2.747075,-2.134198 3.755844,-3.542419 l -2.630331,-1.896525 c -0.539192,0.74341 -1.179738,1.420807 -1.892908,2.002978 l 1.308448,1.609204 c 0.482991,-0.391999 0.936618,-0.820365 1.355989,-1.280025 l -0.665592,-0.608233 c -0.0889,0.0973 -0.17968,0.19354 -0.271818,0.287841 l 0.321944,0.314192 c 6.88e-4,0.0657 9.52e-4,0.131363 5.29e-4,0.197403 -0.166028,0.16609 -0.336835,0.327451 -0.512113,0.48369 -0.06673,-0.003 -0.133713,-0.0058 -0.199988,-0.0098 l -0.770496,-0.885216 c 0.0017,-0.0633 0.0031,-0.126116 0.0036,-0.189135 0.461658,-0.412451 0.888678,-0.864677 1.273824,-1.348237 0.06284,-0.0041 0.126032,-0.0087 0.189136,-0.01394 l 1.855184,1.437122 c 0.005,0.0698 0.0096,0.140054 0.01344,0.210322 -0.795322,1.005922 -1.737388,1.89516 -2.78846,2.630332 -0.07017,-0.008 -0.139688,-0.01601 -0.20929,-0.02479 l -1.990059,-2.901632 c 0.0058,-0.0591 0.01131,-0.11833 0.01602,-0.17725 1.04372,-0.742691 1.955912,-1.704999 2.633431,-2.784327 0.05926,-0.0075 0.118359,-0.01561 0.177767,-0.02429 l 4.008542,2.413804 c 0.01032,0.07298 0.02029,0.146045 0.02946,0.219625 -1.315033,2.14983 -3.19726,3.9276 -5.42706,5.113901 -0.0716,-0.01421 -0.143001,-0.02873 -0.213941,-0.04393 l -2.709407,-5.175419 c 0.0069,-0.05605 0.01339,-0.112025 0.01912,-0.167947 1.514304,-0.83961 2.839645,-2.232737 3.575493,-3.778065 0.05552,-0.0095 0.110836,-0.01932 0.166398,-0.02997 l 6.390824,2.859257 c 0.759433,-1.725777 1.29024,-3.620736 1.261938,-5.614644 -0.08286,-5.838216 -3.65684,-10.836933 -8.643392,-13.1811255 z M 6.3117262,8.4931268 c -2.756208,1.2981943 -5.041806,3.4584002 -6.49986204,6.1226222 l 4.87360404,2.704746 c 0.739894,-1.308479 1.840623,-2.468692 3.111955,-3.29024 l -2.366264,-3.721737 c -1.466261,0.924684 -2.74707,2.134724 -3.755843,3.542937 l 2.63033,1.89601 c 0.539194,-0.743408 1.180255,-1.42081 1.893425,-2.002981 l -1.308447,-1.608688 c -0.482993,0.392007 -0.937134,0.820365 -1.356507,1.280028 l 0.666109,0.607714 c 0.0889,-0.09734 0.179163,-0.193017 0.271302,-0.287322 l -0.321428,-0.314193 c -6.88e-4,-0.06566 -9.52e-4,-0.131879 -5.29e-4,-0.197919 0.166028,-0.166092 0.336835,-0.327453 0.512114,-0.483692 0.06673,0.0026 0.133196,0.006 0.199471,0.0098 l 0.771012,0.8847 c -0.0017,0.06335 -0.0031,0.126638 -0.0036,0.189654 -0.461661,0.412448 -0.889193,0.864676 -1.274341,1.348237 -0.06284,0.0041 -0.125516,0.0087 -0.188619,0.01394 l -1.855697,-1.437618 c -0.005,-0.06978 -0.0096,-0.139536 -0.01344,-0.209807 0.795326,-1.005919 1.737384,-1.895162 2.78846,-2.630328 0.07017,0.0077 0.140204,0.01595 0.209806,0.02479 l 1.989543,2.90163 c -0.0058,0.05913 -0.01079,0.117819 -0.0155,0.176734 -1.043721,0.74269 -1.955907,1.705517 -2.633431,2.784842 -0.05926,0.0075 -0.118876,0.01561 -0.178284,0.02429 L 0.44852516,14.407469 c -0.01032,-0.07298 -0.01978,-0.146566 -0.02894,-0.220141 1.31504004,-2.149822 3.19673704,-3.927091 5.42654204,-5.1133829 0.0716,0.01416 0.143001,0.02868 0.21394,0.04392 l 2.709396,5.1753959 c -0.0069,0.05605 -0.01287,0.112025 -0.0186,0.16795 -1.514306,0.839605 -2.839637,2.23222 -3.575492,3.777546 -0.05552,0.0095 -0.111354,0.01984 -0.166915,0.03049 l -6.390318,-2.859229 c -0.75944,1.725774 -1.290242,3.620738 -1.261938,5.614646 0.08288,5.8382 3.65685,10.836937 8.6434,13.181108 l 2.963643,-6.198074 c -1.536271,-0.75366 -2.910318,-2.060056 -3.765144,-3.562575 L 0.32397716,27.150901 C 1.4600802,29.221977 3.1211872,30.98057 5.1169662,32.23638 l 2.366781,-3.722253 C 6.4430332,27.844725 5.5139452,26.964666 4.7826202,25.95976 l -2.629814,1.896525 c 0.673207,0.93785 1.472497,1.785112 2.369365,2.511991 l 1.30793,-1.608688 c -0.425508,-0.346659 -0.826214,-0.725596 -1.196826,-1.131197 l -0.665076,0.607198 c 0.09192,0.100722 0.185289,0.200118 0.280603,0.297656 l 0.320911,-0.313674 c 0.06478,-7.1e-5 0.129398,-7.94e-4 0.193787,-0.0021 0.153585,0.153532 0.311904,0.302461 0.473872,0.447002 0.0019,0.0639 0.0041,0.128056 0.0072,0.192236 l -0.771012,0.884701 c -0.06742,0.003 -0.134722,0.0052 -0.202572,0.0072 -0.55,-0.489818 -1.057622,-1.027679 -1.514636,-1.605069 0.005,-0.0683 0.01036,-0.136363 0.01654,-0.204123 l 1.856218,-1.437637 c 0.06152,0.0036 0.123251,0.0063 0.184485,0.0088 0.608042,0.761968 1.327395,1.442947 2.120284,2.005047 0.0059,0.0609 0.01204,0.121814 0.01912,0.182933 l -1.99006,2.902667 c -0.07063,0.007 -0.141244,0.01249 -0.21239,0.0181 -1.538773,-1.07406 -2.850501,-2.463345 -3.83232404,-4.064868 0.01051,-0.07126 0.02143,-0.142266 0.03307,-0.212907 L 4.9603872,24.927218 c 0.05813,0.0064 0.116196,0.0123 0.17415,0.01757 0.818811,1.297742 2.004044,2.423285 3.337264,3.157948 0.0085,0.0573 0.01771,0.114633 0.02739,0.172082 l -2.708879,5.176993 c -0.07422,0.0136 -0.148894,0.02635 -0.223759,0.03876 -2.839815,-1.50809 -5.12885204,-3.930091 -6.46730504,-6.866762 0.01683,-0.07412 0.03424,-0.148296 0.05219,-0.221692 L 5.5417462,23.542336 c -0.381727,-0.824601 -0.494099,-1.686055 -0.522449,-2.517159 -0.083,-2.433373 1.856966,-5.147543 4.255554,-6.334498 z m -0.692982,15.2104412 -6.19755404,2.962608 c 1.298524,2.756217 3.45891404,5.042329 6.12314004,6.500378 l 2.704745,-4.873603 c -1.30848,-0.739897 -2.468687,-1.84114 -3.290238,-3.112471 l -3.721737,2.36678 c 0.924685,1.466262 2.134718,2.746557 3.542936,3.755326 l 1.896008,-2.629813 c -0.74341,-0.539191 -1.420805,-1.180253 -2.002978,-1.893424 l -1.608687,1.308446 c 0.392006,0.482989 0.820361,0.93662 1.280025,1.35599 l 0.607715,-0.665591 c -0.09734,-0.0889 -0.193017,-0.179689 -0.287321,-0.27182 l -0.314193,0.321945 c -0.06566,7.94e-4 -0.131879,0.0011 -0.197921,5.29e-4 -0.16609,-0.166028 -0.327453,-0.336833 -0.483691,-0.512114 0.0026,-0.0667 0.006,-0.133199 0.0098,-0.199469 l 0.8847,-0.771012 c 0.06335,0.0016 0.126637,0.0031 0.189653,0.0036 0.412447,0.461655 0.864677,0.888674 1.348238,1.273823 0.0041,0.0628 0.0087,0.126037 0.01395,0.189135 l -1.43764,1.855728 c -0.06978,0.005 -0.139536,0.0087 -0.209807,0.01291 -1.00592,-0.795329 -1.89516,-1.737378 -2.63033,-2.788459 0.0077,-0.0702 0.01597,-0.139687 0.02481,-0.209288 l 2.901632,-1.990061 c 0.05913,0.0058 0.117818,0.01132 0.176733,0.01603 0.742694,1.043721 1.705513,1.955906 2.784843,2.63343 0.0075,0.0593 0.01561,0.118359 0.02429,0.177768 l -2.413806,4.008541 c -0.07298,0.01029 -0.146051,0.02035 -0.219625,0.02946 -2.149827,-1.315029 -3.927603,-3.197259 -5.11390004,-5.427059 0.01415,-0.07161 0.02868,-0.142997 0.04392,-0.213942 L 5.2218482,24.208475 c 0.05605,0.0069 0.112024,0.01339 0.167949,0.01913 0.839609,1.514303 2.232221,2.839646 3.777547,3.575492 0.0095,0.0555 0.01984,0.110836 0.03049,0.166396 l -2.859237,6.390825 c 1.725776,0.759441 3.620736,1.290243 5.6146448,1.261938 5.838209,-0.08288 10.836939,-3.65684 13.181109,-8.6434 L 18.936278,24.01466 c -0.75366,1.536272 -2.060055,2.91083 -3.562573,3.765662 l 2.705778,4.874122 c 2.071072,-1.136102 3.829666,-2.797736 5.085478,-4.793507 l -3.722254,-2.366264 c -0.669398,1.040715 -1.54946,1.969805 -2.554366,2.701126 l 1.896525,2.629816 c 0.937847,-0.673211 1.785112,-1.473012 2.511992,-2.369884 L 19.68817,27.148318 c -0.346666,0.425508 -0.725592,0.826217 -1.131197,1.196827 l 0.607198,0.665075 c 0.100716,-0.0919 0.200118,-0.185811 0.297657,-0.28112 l -0.313676,-0.32091 c -6.4e-5,-0.0648 -8.74e-4,-0.129397 -0.0021,-0.193786 0.153527,-0.153591 0.302458,-0.311386 0.447001,-0.473358 0.06386,-0.0019 0.128058,-0.0047 0.192236,-0.0078 l 0.884701,0.771012 c 0.0028,0.0674 0.005,0.135247 0.0067,0.203089 -0.489817,0.550008 -1.027168,1.057624 -1.604553,1.514636 -0.06827,-0.005 -0.136357,-0.01085 -0.204122,-0.01706 L 17.42986,28.348707 c 0.0036,-0.0615 0.0068,-0.12273 0.0093,-0.183968 0.761966,-0.608039 1.44295,-1.327393 2.005046,-2.120286 0.06091,-0.0059 0.121819,-0.01257 0.182934,-0.01963 l 2.902149,1.990061 c 0.0067,0.0706 0.01305,0.141756 0.0186,0.212907 -1.074051,1.53877 -2.463346,2.850494 -4.064868,3.832323 -0.07126,-0.0105 -0.142265,-0.02148 -0.212907,-0.03307 l -2.414839,-4.009056 c 0.0064,-0.0581 0.0123,-0.1162 0.01757,-0.174152 1.297738,-0.818811 2.423797,-2.00456 3.158463,-3.337779 0.05735,-0.0085 0.114635,-0.0177 0.172082,-0.02739 l 5.176432,2.709394 c 0.01363,0.07422 0.0268,0.148894 0.03927,0.223758 -1.508086,2.839821 -3.930618,5.128848 -6.867282,6.467305 -0.07412,-0.0168 -0.147778,-0.03419 -0.221175,-0.05219 l -2.859778,-6.390301 c -0.824604,0.38173 -1.68657,0.494096 -2.517676,0.522449 -2.4333718,0.08301 -5.1475398,-1.856968 -6.3344978,-4.255553 z"
       sodipodi:nodetypes="sccccccccccccccccccccccccccccccccccccccsccccccccccccccccccccccccccccccccccccccsccccccccccccccccccccccccccccccccccccccsccccccccccccccccccccccccccccccccccccccscccccccccccccccccccccccccccccccccccccccscccccccccccccccccccccccccccccccccccccscccccccccccccccccccccccccccccccccccccccccscccccccccccccccccccccccccccccccccccccscc" />
  </g>
  <g
     transform="translate(2.6448799,-6.42654)"
     inkscape:label="F.Mask"
     inkscape:groupmode="layer"
     id="g3537">
    <path
       inkscape:export-ydpi="445.42001"
       inkscape:export-xdpi="445.42001"
       id="path949-5"
       style="fill:#000000;fill-opacity:1;stroke:none;stroke-width:0.19;stroke-linecap:round;stroke-linejoin:bevel;stroke-miterlimit:4;stroke-dasharray:none"
       d="M 11.953242,6.42762 C 6.1150488,6.5104928 1.1163092,10.084479 -1.2278656,15.071018 l 6.1980713,2.963645 C 5.7238695,16.498389 7.0307768,15.124342 8.5332961,14.269518 L 5.8275176,9.3953958 C 3.7564427,10.531495 1.997341,12.192608 0.7415232,14.188386 l 3.7222534,2.36678 C 5.1331785,15.514454 6.0137507,14.585362 7.0186594,13.854038 L 5.1216175,11.224225 c -0.93785,0.673206 -1.784591,1.472496 -2.5114745,2.369365 l 1.6086873,1.30793 C 4.5654972,14.476012 4.9439046,14.075306 5.3495105,13.704694 L 4.7423124,13.039618 c -0.1007157,0.09192 -0.1996003,0.185291 -0.2971392,0.280604 l 0.3136757,0.320911 c 6.32e-5,0.06478 8.731e-4,0.129397 0.00206,0.193786 -0.1535271,0.153583 -0.3029749,0.311904 -0.4475178,0.473874 -0.06386,0.0019 -0.1280583,0.0041 -0.1922365,0.0072 L 3.2364578,13.545004 c -0.00279,-0.06742 -0.00507,-0.134723 -0.00672,-0.202573 0.4898184,-0.55 1.027683,-1.057624 1.60507,-1.514636 0.06827,0.005 0.1363559,0.01034 0.2041218,0.01654 L 6.476568,13.70107 c -0.0036,0.06152 -0.00628,0.122735 -0.00878,0.183967 -0.7619682,0.608042 -1.4429486,1.327394 -2.0050455,2.120284 -0.06091,0.0059 -0.1218187,0.01204 -0.1829346,0.01913 L 1.3771405,14.034388 c -0.00669,-0.07063 -0.012539,-0.141245 -0.018087,-0.212391 1.0740554,-1.538772 2.4633423,-2.850502 4.0648681,-3.8323232 0.07126,0.010504 0.1422649,0.021431 0.212907,0.033073 l 2.4143234,4.009056 c -0.0064,0.05813 -0.0123,0.116195 -0.01757,0.174149 -1.2977425,0.818809 -2.4232774,2.004047 -3.1579472,3.337264 -0.05735,0.0085 -0.1146347,0.0177 -0.1720827,0.02739 L -0.4733897,14.86173 c -0.0136181,-0.07422 -0.0262863,-0.148895 -0.0387572,-0.223758 1.5080935,-2.839813 3.9300965,-5.1288583 6.866764,-6.4673061 0.07412,0.016827 0.148295,0.034242 0.221692,0.052192 l 2.859257,6.3903091 c 0.8245989,-0.381725 1.6865759,-0.494101 2.5176759,-0.522449 2.433373,-0.083 5.147548,1.856965 6.334497,4.255553 l 6.198073,-2.962608 C 23.187294,12.62744 21.026892,10.341342 18.36267,8.8832841 l -2.705261,4.8736039 c 1.308481,0.739894 2.468691,1.841137 3.290238,3.112471 l 3.721737,-2.36678 c -0.924682,-1.466263 -2.134204,-2.747068 -3.54242,-3.755845 l -1.896525,2.630331 c 0.743409,0.539195 1.420807,1.180254 2.002979,1.893425 l 1.609204,-1.308447 C 20.450618,13.479049 20.022259,13.02491 19.562596,12.605538 l -0.608231,0.666107 c 0.09734,0.0889 0.193534,0.179162 0.287838,0.271301 l 0.314192,-0.321427 c 0.06566,-7.93e-4 0.131367,-0.0011 0.197404,-5.29e-4 0.166092,0.166029 0.327453,0.336833 0.483692,0.512112 -0.0026,0.06673 -0.0055,0.133196 -0.0093,0.199472 l -0.885217,0.771012 c -0.06335,-0.0016 -0.126638,-0.0031 -0.189653,-0.0036 -0.412447,-0.461661 -0.86416,-0.889191 -1.347721,-1.274342 -0.0041,-0.06284 -0.0092,-0.125516 -0.01447,-0.188619 L 19.228765,11.3813 c 0.06978,-0.005 0.140053,-0.0091 0.210323,-0.01291 1.005917,0.79533 1.895163,1.736871 2.630331,2.787944 -0.0077,0.07017 -0.01597,0.140205 -0.02481,0.209806 l -2.901632,1.990061 c -0.05913,-0.0058 -0.118336,-0.01132 -0.17725,-0.01603 -0.742685,-1.04372 -1.704996,-1.955905 -2.784321,-2.633431 -0.0075,-0.05926 -0.01561,-0.118875 -0.02429,-0.178282 l 2.413806,-4.0085406 c 0.07298,-0.010319 0.146051,-0.019791 0.219625,-0.02894 2.149822,1.3150426 3.92761,3.1972516 5.113901,5.4270596 -0.01415,0.0716 -0.02868,0.142483 -0.04392,0.213423 l -5.175913,2.709394 c -0.05605,-0.0069 -0.112026,-0.01289 -0.167949,-0.0186 -0.839604,-1.514308 -2.232221,-2.839635 -3.777547,-3.575492 -0.0095,-0.05552 -0.01932,-0.111352 -0.02997,-0.166915 L 17.56841,7.6895583 C 15.84263,6.930114 13.947149,6.3993176 11.953242,6.42762 Z M 17.9074,7.8435536 14.94324,14.041625 c 1.53627,0.753665 2.91084,2.060569 3.765662,3.56309 l 4.874122,-2.70578 c -1.136098,-2.071076 -2.797213,-3.830171 -4.79299,-5.0859923 l -2.366781,3.7222533 c 1.040712,0.669401 1.969806,1.549974 2.701127,2.554883 l 2.629814,-1.897041 c -0.673204,-0.93785 -1.473015,-1.784591 -2.369881,-2.511476 l -1.307414,1.608688 c 0.425508,0.346668 0.826216,0.725072 1.196826,1.130679 l 0.665076,-0.607198 c -0.09192,-0.100716 -0.185806,-0.199599 -0.28112,-0.29714 l -0.32091,0.313677 c -0.06478,6.3e-5 -0.129398,7.93e-4 -0.193787,0.0021 -0.153585,-0.153528 -0.311387,-0.302972 -0.473356,-0.447517 -0.0019,-0.06386 -0.0047,-0.128058 -0.0078,-0.192238 l 0.771013,-0.884698 c 0.06742,-0.0028 0.135239,-0.005 0.203088,-0.0067 0.549999,0.489821 1.057623,1.027684 1.514636,1.605071 -0.005,0.06827 -0.01088,0.136358 -0.01705,0.204124 l -1.856173,1.437633 c -0.06152,-0.0036 -0.122734,-0.0063 -0.183967,-0.0088 -0.608042,-0.761971 -1.327397,-1.442947 -2.120285,-2.005047 -0.0059,-0.06091 -0.01256,-0.121819 -0.01964,-0.182935 l 1.99006,-2.902665 c 0.07063,-0.0067 0.14176,-0.01254 0.212906,-0.0181 1.538772,1.074058 2.850506,2.463343 3.832324,4.064868 -0.0105,0.07126 -0.02143,0.142267 -0.03307,0.212908 l -4.009057,2.414323 c -0.05813,-0.0064 -0.116195,-0.0123 -0.17415,-0.01757 -0.818806,-1.297741 -2.004562,-2.423274 -3.33778,-3.157945 -0.0085,-0.05735 -0.01771,-0.114636 -0.02739,-0.172082 L 18.11669,8.5980712 c 0.07422,-0.013626 0.148377,-0.0263 0.223242,-0.038756 2.839811,1.5080958 5.129376,3.9300918 6.467823,6.8667628 -0.01683,0.07412 -0.03424,0.148297 -0.05219,0.221692 l -6.39031,2.859257 c 0.381727,0.824608 0.494098,1.687083 0.522449,2.518193 0.08301,2.43337 -1.856969,5.147016 -4.255554,6.333979 l 2.96261,6.198073 c 2.756213,-1.298572 5.042331,-3.458961 6.500379,-6.123183 l -4.874122,-2.705261 c -0.73989,1.308481 -1.840623,2.468682 -3.111954,3.290237 l 2.366263,3.721737 c 1.466259,-0.924679 2.747075,-2.134198 3.755843,-3.542419 l -2.63033,-1.896525 c -0.539192,0.74341 -1.179739,1.420807 -1.892908,2.002978 l 1.308448,1.609204 c 0.482991,-0.391999 0.936618,-0.820365 1.355989,-1.280025 l -0.665592,-0.608233 c -0.0889,0.0973 -0.17968,0.19354 -0.271818,0.287841 l 0.321944,0.314192 c 6.88e-4,0.0657 9.52e-4,0.131363 5.29e-4,0.197403 -0.166028,0.16609 -0.336835,0.327451 -0.512113,0.48369 -0.06673,-0.003 -0.133713,-0.0058 -0.199988,-0.0098 l -0.770496,-0.885216 c 0.0017,-0.0633 0.0031,-0.126116 0.0036,-0.189135 0.461658,-0.412451 0.888678,-0.864677 1.273824,-1.348237 0.06284,-0.0041 0.126032,-0.0087 0.189136,-0.01394 l 1.855184,1.437122 c 0.005,0.0698 0.0096,0.140054 0.01344,0.210322 -0.795322,1.005922 -1.737388,1.89516 -2.78846,2.630332 -0.07017,-0.008 -0.139688,-0.01601 -0.20929,-0.02479 l -1.990059,-2.901632 c 0.0058,-0.0591 0.01131,-0.11833 0.01602,-0.17725 1.043719,-0.742691 1.955912,-1.704999 2.633431,-2.784327 0.05926,-0.0075 0.118359,-0.01561 0.177767,-0.02429 l 4.008542,2.413804 c 0.01032,0.07298 0.02029,0.146045 0.02946,0.219625 -1.315033,2.14983 -3.19726,3.9276 -5.42706,5.113901 -0.0716,-0.01421 -0.143001,-0.02873 -0.213941,-0.04393 l -2.709407,-5.175419 c 0.0069,-0.05605 0.01339,-0.112025 0.01912,-0.167947 1.514304,-0.83961 2.839645,-2.232737 3.575492,-3.778065 0.05552,-0.0095 0.110837,-0.01931 0.166399,-0.02997 l 6.390824,2.859257 c 0.759433,-1.725777 1.29024,-3.620736 1.261938,-5.614644 C 26.467936,15.186463 22.893953,10.187746 17.907401,7.8435536 Z M 6.3117258,8.4931269 C 3.5555183,9.791321 1.2699205,11.951527 -0.1881358,14.615749 l 4.8736044,2.704746 c 0.739894,-1.308479 1.8406226,-2.468692 3.1119545,-3.29024 L 5.4311594,10.308518 c -1.4662611,0.924684 -2.7470698,2.134724 -3.755843,3.542937 l 2.6303303,1.89601 c 0.5391931,-0.743408 1.1802544,-1.42081 1.8934245,-2.002981 L 4.8906238,12.135796 C 4.4076309,12.527803 3.95349,12.956161 3.5341175,13.415824 l 0.6661092,0.607714 c 0.0889,-0.09734 0.1791623,-0.193016 0.2713014,-0.287322 L 4.1501006,13.422023 c -6.879e-4,-0.06566 -9.525e-4,-0.131879 -5.292e-4,-0.197919 0.1660282,-0.166092 0.3368344,-0.327453 0.5121135,-0.483692 0.06673,0.0027 0.133196,0.006 0.199471,0.0098 l 0.7710125,0.8847 c -0.00169,0.06335 -0.00312,0.126638 -0.00362,0.189654 -0.4616611,0.412448 -0.8891929,0.864676 -1.2743408,1.348237 -0.06284,0.0041 -0.1255159,0.0087 -0.188619,0.01394 L 2.309891,13.749125 c -0.00498,-0.06978 -0.00961,-0.139536 -0.013436,-0.209807 0.7953267,-1.005919 1.7373844,-1.895162 2.7884602,-2.630328 0.07017,0.0077 0.1402043,0.01595 0.2098063,0.02479 l 1.9895426,2.90163 c -0.0058,0.05913 -0.010792,0.117819 -0.015502,0.176734 -1.0437207,0.74269 -1.9559072,1.705517 -2.633431,2.784842 -0.05926,0.0075 -0.1188757,0.01561 -0.1782837,0.02429 L 0.448507,14.407469 C 0.4381909,14.334489 0.4287267,14.260903 0.4195682,14.187328 1.7346087,12.037506 3.6163048,10.260237 5.8461104,9.0739456 c 0.0716,0.014155 0.1430005,0.028684 0.2139403,0.043924 l 2.7093954,5.1753954 c -0.0069,0.05605 -0.01288,0.112025 -0.0186,0.16795 -1.5143087,0.839604 -2.83964,2.23222 -3.5754952,3.777545 -0.05552,0.0095 -0.1113538,0.01984 -0.1669147,0.03049 l -6.3902976,-2.859235 c -0.7594402,1.725774 -1.2902426,3.620738 -1.2619384,5.614646 0.082875,5.838201 3.6568501,10.836937 8.6434001,13.181108 L 8.9632441,28.007698 C 7.4269721,27.254038 6.0529257,25.947642 5.1980988,24.445123 l -4.8741211,2.705778 c 1.1361028,2.071076 2.7972099,3.829669 4.792989,5.085479 L 7.4837471,28.514127 C 6.4430332,27.844725 5.5139451,26.964666 4.7826201,25.95976 l -2.6298136,1.896525 c 0.6732066,0.93785 1.4724965,1.785112 2.3693644,2.511991 L 5.8301016,28.759588 C 5.4045934,28.412929 5.0038872,28.033992 4.6332753,27.628391 l -0.6650758,0.607198 c 0.09192,0.100722 0.1852891,0.200118 0.2806031,0.297656 l 0.3209107,-0.313674 c 0.06478,-7.1e-5 0.1293977,-7.94e-4 0.1937867,-0.0021 0.1535848,0.153532 0.3119038,0.302461 0.4738727,0.447002 0.0019,0.0639 0.00414,0.128056 0.00723,0.192236 L 4.4735905,29.74141 c -0.06742,0.003 -0.1347227,0.0052 -0.2025719,0.0072 -0.5500007,-0.489818 -1.0576219,-1.027679 -1.5146361,-1.605069 0.00504,-0.0683 0.010358,-0.136363 0.016536,-0.204123 l 1.8562216,-1.43763 c 0.06152,0.0036 0.1232508,0.0063 0.1844849,0.0088 0.6080419,0.761968 1.3273953,1.442947 2.1202841,2.005047 0.0059,0.0609 0.012041,0.121814 0.019121,0.182933 l -1.9900593,2.902667 c -0.07063,0.007 -0.1412441,0.01249 -0.2123903,0.0181 -1.5387727,-1.07406 -2.850501,-2.463345 -3.8323239,-4.064868 0.010512,-0.07126 0.021434,-0.142266 0.033073,-0.212907 L 4.960387,24.927237 c 0.05813,0.0064 0.1161957,0.0123 0.1741495,0.01757 0.8188111,1.297742 2.0040442,2.423285 3.3372646,3.157948 0.0085,0.0573 0.01771,0.114633 0.02739,0.172082 L 5.7903123,33.45183 c -0.07422,0.0136 -0.148894,0.02635 -0.2237589,0.03876 -2.8398153,-1.50809 -5.1288516,-3.930091 -6.4673054,-6.866762 0.01683,-0.07412 0.034243,-0.148296 0.052193,-0.221692 l 6.390306,-2.8598 C 5.1600199,22.717735 5.0476479,21.856281 5.0192984,21.025177 4.9362943,18.591804 6.8762643,15.877635 9.2748521,14.690679 Z M 5.6187447,23.703568 -0.5788097,26.666176 c 1.2985236,2.756217 3.4589137,5.042329 6.1231404,6.500378 L 8.2490751,28.292951 C 6.9405954,27.553054 5.7803879,26.451811 4.9588368,25.18048 l -3.7217365,2.36678 c 0.9246846,1.466262 2.1347184,2.746557 3.5429362,3.755326 L 6.6760446,28.672773 C 5.932634,28.133582 5.2552392,27.49252 4.6730662,26.779349 l -1.6086873,1.308446 c 0.3920059,0.482989 0.820361,0.93662 1.2800251,1.35599 l 0.6077148,-0.665591 c -0.09734,-0.0889 -0.193017,-0.179689 -0.2873208,-0.27182 l -0.3141927,0.321945 c -0.06566,7.94e-4 -0.1318789,0.0011 -0.1979208,5.29e-4 -0.1660901,-0.166028 -0.3274534,-0.336833 -0.4836914,-0.512114 0.00259,-0.0667 0.00602,-0.133199 0.00982,-0.199469 l 0.8847005,-0.771012 c 0.06335,0.0016 0.1266365,0.0031 0.1896525,0.0036 0.4124471,0.461655 0.8646772,0.888674 1.3482381,1.273823 0.0041,0.0628 0.00869,0.126037 0.013952,0.189135 l -1.4376384,1.855703 c -0.06978,0.005 -0.1395362,0.0087 -0.2098064,0.01291 -1.0059199,-0.795329 -1.8951599,-1.737378 -2.6303303,-2.788459 0.0077,-0.0702 0.015965,-0.139687 0.024805,-0.209288 l 2.9016317,-1.990061 c 0.05913,0.0058 0.1178184,0.01132 0.1767332,0.01603 0.7426941,1.043721 1.7055131,1.955906 2.7848431,2.63343 0.0075,0.0593 0.01561,0.118359 0.02429,0.177768 l -2.4138065,4.008541 c -0.07298,0.01029 -0.1460508,0.02035 -0.2196248,0.02946 C 2.9666267,31.243816 1.1888505,29.361586 0.002553,27.131786 0.016706,27.060176 0.031237,26.988789 0.046478,26.917844 L 5.2218725,24.20845 c 0.05605,0.0069 0.1120235,0.01339 0.1679485,0.01913 0.8396089,1.514303 2.2322211,2.839646 3.7775471,3.575492 0.0095,0.0555 0.01984,0.110836 0.03049,0.166396 l -2.8592567,6.390825 c 1.7257757,0.759441 3.6207357,1.290243 5.6146446,1.261938 5.838209,-0.08288 10.836939,-3.65684 13.181109,-8.6434 l -6.198073,-2.964196 c -0.75366,1.536272 -2.060055,2.91083 -3.562573,3.765662 l 2.705778,4.874122 c 2.071072,-1.136102 3.829666,-2.797736 5.085478,-4.793507 l -3.722254,-2.366264 c -0.669398,1.040715 -1.54946,1.969805 -2.554366,2.701126 l 1.896525,2.629816 c 0.937847,-0.673211 1.785112,-1.473012 2.511992,-2.369884 L 19.68817,27.148318 c -0.346666,0.425508 -0.725592,0.826217 -1.131197,1.196827 l 0.607198,0.665075 c 0.100716,-0.0919 0.200118,-0.185811 0.297656,-0.28112 l -0.313676,-0.32091 c -6.4e-5,-0.0648 -8.73e-4,-0.129397 -0.0021,-0.193786 0.153527,-0.153591 0.302458,-0.311386 0.447001,-0.473358 0.06386,-0.0019 0.128058,-0.0047 0.192236,-0.0078 l 0.884701,0.771012 c 0.0028,0.0674 0.005,0.135247 0.0067,0.203089 -0.489817,0.550008 -1.027168,1.057624 -1.604553,1.514636 -0.06827,-0.005 -0.136357,-0.01085 -0.204122,-0.01707 l -1.438155,-1.856216 c 0.0036,-0.0615 0.0068,-0.12273 0.0093,-0.183968 0.761966,-0.608039 1.44295,-1.327393 2.005045,-2.120286 0.06091,-0.0059 0.12182,-0.01257 0.182935,-0.01963 l 2.902148,1.990061 c 0.0067,0.0706 0.01306,0.141756 0.0186,0.212907 -1.074051,1.53877 -2.463346,2.850494 -4.064868,3.832323 -0.07126,-0.0105 -0.142265,-0.02148 -0.212907,-0.03307 l -2.414839,-4.009056 c 0.0064,-0.0581 0.0123,-0.1162 0.01757,-0.174152 1.297739,-0.818811 2.423798,-2.00456 3.158464,-3.337779 0.05735,-0.0085 0.114634,-0.0177 0.172082,-0.02739 l 5.176432,2.709394 c 0.01363,0.07422 0.0268,0.148894 0.03927,0.223758 -1.508086,2.839821 -3.930618,5.128848 -6.867282,6.467305 -0.07412,-0.0168 -0.147779,-0.03419 -0.221175,-0.05219 l -2.859778,-6.390301 c -0.824604,0.38173 -1.68657,0.494096 -2.517676,0.522449 -2.4333709,0.08301 -5.1475394,-1.856968 -6.3344973,-4.255553 z"
       sodipodi:nodetypes="sccccccccccccccccccccccccccccccccccccccsccccccccccccccccccccccccccccccccccccccsccccccccccccccccccccccccccccccccccccccsccccccccccccccccccccccccccccccccccccccscccccccccccccccccccccccccccccccccccccccscccccccccccccccccccccccccccccccccccccscccccccccccccccccccccccccccccccccccccccccscccccccccccccccccccccccccccccccccccccscc" />
  </g>
</svg>
