ISO-10303-21;
HEADER;
/* Generated by software containing ST-Developer
 * from STEP Tools, Inc. (www.steptools.com) 
 */

FILE_DESCRIPTION(
/* description */ ('KiCad electronic assembly'),
/* implementation_level */ '2;1');

FILE_NAME(
/* name */ '2026-Acrylic.step',
/* time_stamp */ '2025-09-28T14:39:32-04:00',
/* author */ (''),
/* organization */ (''),
/* preprocessor_version */ 'ST-DEVELOPER v20.1',
/* originating_system */ 'Autodesk Translation Framework v14.17.0.0',
/* authorisation */ '');

FILE_SCHEMA (('AUTOMOTIVE_DESIGN { 1 0 10303 214 3 1 1 }'));
ENDSEC;

DATA;
#10=MECHANICAL_DESIGN_GEOMETRIC_PRESENTATION_REPRESENTATION('',(#17),#1134);
#11=ITEM_DEFINED_TRANSFORMATION($,$,#482,#512);
#12=(
REPRESENTATION_RELATIONSHIP($,$,#1145,#1144)
REPRESENTATION_RELATIONSHIP_WITH_TRANSFORMATION(#11)
SHAPE_REPRESENTATION_RELATIONSHIP()
);
#13=CONTEXT_DEPENDENT_SHAPE_REPRESENTATION(#12,#1143);
#14=NEXT_ASSEMBLY_USAGE_OCCURRENCE('Acrylic:1','Acrylic:1','Acrylic:1',
#1147,#1148,'Acrylic:1');
#15=SHAPE_REPRESENTATION_RELATIONSHIP('SRR','None',#1145,#16);
#16=ADVANCED_BREP_SHAPE_REPRESENTATION('',(#18),#1133);
#17=STYLED_ITEM('',(#1159),#18);
#18=MANIFOLD_SOLID_BREP('Body1',#468);
#19=FACE_BOUND('',#105,.T.);
#20=FACE_BOUND('',#106,.T.);
#21=FACE_BOUND('',#107,.T.);
#22=FACE_BOUND('',#108,.T.);
#23=FACE_BOUND('',#109,.T.);
#24=FACE_BOUND('',#110,.T.);
#25=FACE_BOUND('',#112,.T.);
#26=FACE_BOUND('',#113,.T.);
#27=FACE_BOUND('',#114,.T.);
#28=FACE_BOUND('',#115,.T.);
#29=FACE_BOUND('',#116,.T.);
#30=FACE_BOUND('',#117,.T.);
#31=(
BOUNDED_CURVE()
B_SPLINE_CURVE(5,(#704,#705,#706,#707,#708,#709,#710,#711,#712,#713,#714,
#715,#716,#717,#718,#719,#720,#721,#722,#723),.UNSPECIFIED.,.F.,.F.)
B_SPLINE_CURVE_WITH_KNOTS((6,1,1,1,1,1,1,1,1,1,1,1,1,1,1,6),(0.,0.0666666666666667,
0.133333333333333,0.2,0.266666666666667,0.333333333333333,0.4,0.466666666666667,
0.533333333333333,0.6,0.666666666666667,0.733333333333333,0.8,0.866666666666667,
0.933333333333333,1.),.UNSPECIFIED.)
CURVE()
GEOMETRIC_REPRESENTATION_ITEM()
RATIONAL_B_SPLINE_CURVE((1.,1.,1.,1.,1.,1.,1.,1.,1.,1.,1.,1.,1.,1.,1.,1.,
1.,1.,1.,1.))
REPRESENTATION_ITEM('')
);
#32=(
BOUNDED_CURVE()
B_SPLINE_CURVE(5,(#725,#726,#727,#728,#729,#730,#731,#732,#733,#734,#735,
#736,#737,#738,#739,#740,#741,#742,#743,#744),.UNSPECIFIED.,.F.,.F.)
B_SPLINE_CURVE_WITH_KNOTS((6,1,1,1,1,1,1,1,1,1,1,1,1,1,1,6),(-1.,-0.933333333333333,
-0.866666666666667,-0.8,-0.733333333333333,-0.666666666666667,-0.6,-0.533333333333333,
-0.466666666666667,-0.4,-0.333333333333333,-0.266666666666667,-0.2,-0.133333333333333,
-0.0666666666666667,0.),.UNSPECIFIED.)
CURVE()
GEOMETRIC_REPRESENTATION_ITEM()
RATIONAL_B_SPLINE_CURVE((1.,1.,1.,1.,1.,1.,1.,1.,1.,1.,1.,1.,1.,1.,1.,1.,
1.,1.,1.,1.))
REPRESENTATION_ITEM('')
);
#33=(
BOUNDED_CURVE()
B_SPLINE_CURVE(5,(#783,#784,#785,#786,#787,#788,#789,#790,#791,#792,#793,
#794,#795,#796,#797),.UNSPECIFIED.,.F.,.F.)
B_SPLINE_CURVE_WITH_KNOTS((6,1,1,1,1,1,1,1,1,1,6),(0.,0.1,0.2,0.3,0.4,0.5,
0.6,0.7,0.8,0.9,1.),.UNSPECIFIED.)
CURVE()
GEOMETRIC_REPRESENTATION_ITEM()
RATIONAL_B_SPLINE_CURVE((1.,1.,1.,1.,1.,1.,1.,1.,1.,1.,1.,1.,1.,1.,1.))
REPRESENTATION_ITEM('')
);
#34=(
BOUNDED_CURVE()
B_SPLINE_CURVE(5,(#799,#800,#801,#802,#803,#804,#805,#806,#807,#808,#809,
#810,#811,#812,#813),.UNSPECIFIED.,.F.,.F.)
B_SPLINE_CURVE_WITH_KNOTS((6,1,1,1,1,1,1,1,1,1,6),(-1.,-0.9,-0.8,-0.7,-0.6,
-0.5,-0.4,-0.3,-0.2,-0.1,0.),.UNSPECIFIED.)
CURVE()
GEOMETRIC_REPRESENTATION_ITEM()
RATIONAL_B_SPLINE_CURVE((1.,1.,1.,1.,1.,1.,1.,1.,1.,1.,1.,1.,1.,1.,1.))
REPRESENTATION_ITEM('')
);
#35=(
BOUNDED_CURVE()
B_SPLINE_CURVE(5,(#858,#859,#860,#861,#862,#863,#864,#865,#866,#867,#868,
#869,#870,#871,#872),.UNSPECIFIED.,.F.,.F.)
B_SPLINE_CURVE_WITH_KNOTS((6,1,1,1,1,1,1,1,1,1,6),(0.,0.1,0.2,0.3,0.4,0.5,
0.6,0.7,0.8,0.9,1.),.UNSPECIFIED.)
CURVE()
GEOMETRIC_REPRESENTATION_ITEM()
RATIONAL_B_SPLINE_CURVE((1.,1.,1.,1.,1.,1.,1.,1.,1.,1.,1.,1.,1.,1.,1.))
REPRESENTATION_ITEM('')
);
#36=(
BOUNDED_CURVE()
B_SPLINE_CURVE(5,(#874,#875,#876,#877,#878,#879,#880,#881,#882,#883,#884,
#885,#886,#887,#888),.UNSPECIFIED.,.F.,.F.)
B_SPLINE_CURVE_WITH_KNOTS((6,1,1,1,1,1,1,1,1,1,6),(0.,0.1,0.2,0.3,0.4,0.5,
0.6,0.7,0.8,0.9,1.),.UNSPECIFIED.)
CURVE()
GEOMETRIC_REPRESENTATION_ITEM()
RATIONAL_B_SPLINE_CURVE((1.,1.,1.,1.,1.,1.,1.,1.,1.,1.,1.,1.,1.,1.,1.))
REPRESENTATION_ITEM('')
);
#37=(
BOUNDED_CURVE()
B_SPLINE_CURVE(5,(#937,#938,#939,#940,#941,#942,#943,#944,#945,#946,#947,
#948,#949,#950,#951,#952,#953,#954,#955,#956),.UNSPECIFIED.,.F.,.F.)
B_SPLINE_CURVE_WITH_KNOTS((6,1,1,1,1,1,1,1,1,1,1,1,1,1,1,6),(0.,0.0666666666666667,
0.133333333333333,0.2,0.266666666666667,0.333333333333333,0.4,0.466666666666667,
0.533333333333333,0.6,0.666666666666667,0.733333333333333,0.8,0.866666666666667,
0.933333333333333,1.),.UNSPECIFIED.)
CURVE()
GEOMETRIC_REPRESENTATION_ITEM()
RATIONAL_B_SPLINE_CURVE((1.,1.,1.,1.,1.,1.,1.,1.,1.,1.,1.,1.,1.,1.,1.,1.,
1.,1.,1.,1.))
REPRESENTATION_ITEM('')
);
#38=(
BOUNDED_CURVE()
B_SPLINE_CURVE(5,(#958,#959,#960,#961,#962,#963,#964,#965,#966,#967,#968,
#969,#970,#971,#972,#973,#974,#975,#976,#977),.UNSPECIFIED.,.F.,.F.)
B_SPLINE_CURVE_WITH_KNOTS((6,1,1,1,1,1,1,1,1,1,1,1,1,1,1,6),(0.,0.0666666666666667,
0.133333333333333,0.2,0.266666666666667,0.333333333333333,0.4,0.466666666666667,
0.533333333333333,0.6,0.666666666666667,0.733333333333333,0.8,0.866666666666667,
0.933333333333333,1.),.UNSPECIFIED.)
CURVE()
GEOMETRIC_REPRESENTATION_ITEM()
RATIONAL_B_SPLINE_CURVE((1.,1.,1.,1.,1.,1.,1.,1.,1.,1.,1.,1.,1.,1.,1.,1.,
1.,1.,1.,1.))
REPRESENTATION_ITEM('')
);
#39=(
BOUNDED_CURVE()
B_SPLINE_CURVE(5,(#1016,#1017,#1018,#1019,#1020,#1021,#1022,#1023,#1024,
#1025,#1026,#1027,#1028,#1029,#1030),.UNSPECIFIED.,.F.,.F.)
B_SPLINE_CURVE_WITH_KNOTS((6,1,1,1,1,1,1,1,1,1,6),(0.,0.1,0.2,0.3,0.4,0.5,
0.6,0.7,0.8,0.9,1.),.UNSPECIFIED.)
CURVE()
GEOMETRIC_REPRESENTATION_ITEM()
RATIONAL_B_SPLINE_CURVE((1.,1.,1.,1.,1.,1.,1.,1.,1.,1.,1.,1.,1.,1.,1.))
REPRESENTATION_ITEM('')
);
#40=(
BOUNDED_CURVE()
B_SPLINE_CURVE(5,(#1032,#1033,#1034,#1035,#1036,#1037,#1038,#1039,#1040,
#1041,#1042,#1043,#1044,#1045,#1046),.UNSPECIFIED.,.F.,.F.)
B_SPLINE_CURVE_WITH_KNOTS((6,1,1,1,1,1,1,1,1,1,6),(-1.,-0.9,-0.8,-0.7,-0.6,
-0.5,-0.4,-0.3,-0.2,-0.1,0.),.UNSPECIFIED.)
CURVE()
GEOMETRIC_REPRESENTATION_ITEM()
RATIONAL_B_SPLINE_CURVE((1.,1.,1.,1.,1.,1.,1.,1.,1.,1.,1.,1.,1.,1.,1.))
REPRESENTATION_ITEM('')
);
#41=(
BOUNDED_CURVE()
B_SPLINE_CURVE(5,(#1096,#1097,#1098,#1099,#1100,#1101,#1102,#1103,#1104,
#1105,#1106,#1107,#1108,#1109,#1110),.UNSPECIFIED.,.F.,.F.)
B_SPLINE_CURVE_WITH_KNOTS((6,1,1,1,1,1,1,1,1,1,6),(0.,0.1,0.2,0.3,0.4,0.5,
0.6,0.7,0.8,0.9,1.),.UNSPECIFIED.)
CURVE()
GEOMETRIC_REPRESENTATION_ITEM()
RATIONAL_B_SPLINE_CURVE((1.,1.,1.,1.,1.,1.,1.,1.,1.,1.,1.,1.,1.,1.,1.))
REPRESENTATION_ITEM('')
);
#42=(
BOUNDED_CURVE()
B_SPLINE_CURVE(5,(#1111,#1112,#1113,#1114,#1115,#1116,#1117,#1118,#1119,
#1120,#1121,#1122,#1123,#1124,#1125),.UNSPECIFIED.,.F.,.F.)
B_SPLINE_CURVE_WITH_KNOTS((6,1,1,1,1,1,1,1,1,1,6),(0.,0.1,0.2,0.3,0.4,0.5,
0.6,0.7,0.8,0.9,1.),.UNSPECIFIED.)
CURVE()
GEOMETRIC_REPRESENTATION_ITEM()
RATIONAL_B_SPLINE_CURVE((1.,1.,1.,1.,1.,1.,1.,1.,1.,1.,1.,1.,1.,1.,1.))
REPRESENTATION_ITEM('')
);
#43=(
BOUNDED_SURFACE()
B_SPLINE_SURFACE(5,1,((#663,#664),(#665,#666),(#667,#668),(#669,#670),(#671,
#672),(#673,#674),(#675,#676),(#677,#678),(#679,#680),(#681,#682),(#683,
#684),(#685,#686),(#687,#688),(#689,#690),(#691,#692),(#693,#694),(#695,
#696),(#697,#698),(#699,#700),(#701,#702)),.UNSPECIFIED.,.F.,.F.,.F.)
B_SPLINE_SURFACE_WITH_KNOTS((6,1,1,1,1,1,1,1,1,1,1,1,1,1,1,6),(2,2),(-1.,
-0.933333333333333,-0.866666666666667,-0.8,-0.733333333333333,-0.666666666666667,
-0.6,-0.533333333333333,-0.466666666666667,-0.4,-0.333333333333333,-0.266666666666667,
-0.2,-0.133333333333333,-0.0666666666666667,0.),(0.,0.3),.UNSPECIFIED.)
GEOMETRIC_REPRESENTATION_ITEM()
RATIONAL_B_SPLINE_SURFACE(((1.,1.),(1.,1.),(1.,1.),(1.,1.),(1.,1.),(1.,
1.),(1.,1.),(1.,1.),(1.,1.),(1.,1.),(1.,1.),(1.,1.),(1.,1.),(1.,1.),(1.,
1.),(1.,1.),(1.,1.),(1.,1.),(1.,1.),(1.,1.)))
REPRESENTATION_ITEM('')
SURFACE()
);
#44=(
BOUNDED_SURFACE()
B_SPLINE_SURFACE(5,1,((#752,#753),(#754,#755),(#756,#757),(#758,#759),(#760,
#761),(#762,#763),(#764,#765),(#766,#767),(#768,#769),(#770,#771),(#772,
#773),(#774,#775),(#776,#777),(#778,#779),(#780,#781)),.UNSPECIFIED.,.F.,
 .F.,.F.)
B_SPLINE_SURFACE_WITH_KNOTS((6,1,1,1,1,1,1,1,1,1,6),(2,2),(-1.,-0.9,-0.8,
-0.7,-0.6,-0.5,-0.4,-0.3,-0.2,-0.1,0.),(0.,0.3),.UNSPECIFIED.)
GEOMETRIC_REPRESENTATION_ITEM()
RATIONAL_B_SPLINE_SURFACE(((1.,1.),(1.,1.),(1.,1.),(1.,1.),(1.,1.),(1.,
1.),(1.,1.),(1.,1.),(1.,1.),(1.,1.),(1.,1.),(1.,1.),(1.,1.),(1.,1.),(1.,
1.)))
REPRESENTATION_ITEM('')
SURFACE()
);
#45=(
BOUNDED_SURFACE()
B_SPLINE_SURFACE(5,1,((#827,#828),(#829,#830),(#831,#832),(#833,#834),(#835,
#836),(#837,#838),(#839,#840),(#841,#842),(#843,#844),(#845,#846),(#847,
#848),(#849,#850),(#851,#852),(#853,#854),(#855,#856)),.UNSPECIFIED.,.F.,
 .F.,.F.)
B_SPLINE_SURFACE_WITH_KNOTS((6,1,1,1,1,1,1,1,1,1,6),(2,2),(0.,0.1,0.2,0.3,
0.4,0.5,0.6,0.7,0.8,0.9,1.),(0.,0.3),.UNSPECIFIED.)
GEOMETRIC_REPRESENTATION_ITEM()
RATIONAL_B_SPLINE_SURFACE(((1.,1.),(1.,1.),(1.,1.),(1.,1.),(1.,1.),(1.,
1.),(1.,1.),(1.,1.),(1.,1.),(1.,1.),(1.,1.),(1.,1.),(1.,1.),(1.,1.),(1.,
1.)))
REPRESENTATION_ITEM('')
SURFACE()
);
#46=(
BOUNDED_SURFACE()
B_SPLINE_SURFACE(5,1,((#896,#897),(#898,#899),(#900,#901),(#902,#903),(#904,
#905),(#906,#907),(#908,#909),(#910,#911),(#912,#913),(#914,#915),(#916,
#917),(#918,#919),(#920,#921),(#922,#923),(#924,#925),(#926,#927),(#928,
#929),(#930,#931),(#932,#933),(#934,#935)),.UNSPECIFIED.,.F.,.F.,.F.)
B_SPLINE_SURFACE_WITH_KNOTS((6,1,1,1,1,1,1,1,1,1,1,1,1,1,1,6),(2,2),(0.,
0.0666666666666667,0.133333333333333,0.2,0.266666666666667,0.333333333333333,
0.4,0.466666666666667,0.533333333333333,0.6,0.666666666666667,0.733333333333333,
0.8,0.866666666666667,0.933333333333333,1.),(0.,0.3),.UNSPECIFIED.)
GEOMETRIC_REPRESENTATION_ITEM()
RATIONAL_B_SPLINE_SURFACE(((1.,1.),(1.,1.),(1.,1.),(1.,1.),(1.,1.),(1.,
1.),(1.,1.),(1.,1.),(1.,1.),(1.,1.),(1.,1.),(1.,1.),(1.,1.),(1.,1.),(1.,
1.),(1.,1.),(1.,1.),(1.,1.),(1.,1.),(1.,1.)))
REPRESENTATION_ITEM('')
SURFACE()
);
#47=(
BOUNDED_SURFACE()
B_SPLINE_SURFACE(5,1,((#985,#986),(#987,#988),(#989,#990),(#991,#992),(#993,
#994),(#995,#996),(#997,#998),(#999,#1000),(#1001,#1002),(#1003,#1004),
(#1005,#1006),(#1007,#1008),(#1009,#1010),(#1011,#1012),(#1013,#1014)),
 .UNSPECIFIED.,.F.,.F.,.F.)
B_SPLINE_SURFACE_WITH_KNOTS((6,1,1,1,1,1,1,1,1,1,6),(2,2),(-1.,-0.9,-0.8,
-0.7,-0.6,-0.5,-0.4,-0.3,-0.2,-0.1,0.),(0.,0.3),.UNSPECIFIED.)
GEOMETRIC_REPRESENTATION_ITEM()
RATIONAL_B_SPLINE_SURFACE(((1.,1.),(1.,1.),(1.,1.),(1.,1.),(1.,1.),(1.,
1.),(1.,1.),(1.,1.),(1.,1.),(1.,1.),(1.,1.),(1.,1.),(1.,1.),(1.,1.),(1.,
1.)))
REPRESENTATION_ITEM('')
SURFACE()
);
#48=(
BOUNDED_SURFACE()
B_SPLINE_SURFACE(5,1,((#1066,#1067),(#1068,#1069),(#1070,#1071),(#1072,
#1073),(#1074,#1075),(#1076,#1077),(#1078,#1079),(#1080,#1081),(#1082,#1083),
(#1084,#1085),(#1086,#1087),(#1088,#1089),(#1090,#1091),(#1092,#1093),(#1094,
#1095)),.UNSPECIFIED.,.F.,.F.,.F.)
B_SPLINE_SURFACE_WITH_KNOTS((6,1,1,1,1,1,1,1,1,1,6),(2,2),(0.,0.1,0.2,0.3,
0.4,0.5,0.6,0.7,0.8,0.9,1.),(0.,0.3),.UNSPECIFIED.)
GEOMETRIC_REPRESENTATION_ITEM()
RATIONAL_B_SPLINE_SURFACE(((1.,1.),(1.,1.),(1.,1.),(1.,1.),(1.,1.),(1.,
1.),(1.,1.),(1.,1.),(1.,1.),(1.,1.),(1.,1.),(1.,1.),(1.,1.),(1.,1.),(1.,
1.)))
REPRESENTATION_ITEM('')
SURFACE()
);
#49=PLANE('',#501);
#50=PLANE('',#502);
#51=PLANE('',#503);
#52=PLANE('',#504);
#53=PLANE('',#505);
#54=PLANE('',#506);
#55=PLANE('',#507);
#56=PLANE('',#508);
#57=PLANE('',#509);
#58=PLANE('',#510);
#59=PLANE('',#511);
#60=FACE_OUTER_BOUND('',#83,.T.);
#61=FACE_OUTER_BOUND('',#84,.T.);
#62=FACE_OUTER_BOUND('',#85,.T.);
#63=FACE_OUTER_BOUND('',#86,.T.);
#64=FACE_OUTER_BOUND('',#87,.T.);
#65=FACE_OUTER_BOUND('',#88,.T.);
#66=FACE_OUTER_BOUND('',#89,.T.);
#67=FACE_OUTER_BOUND('',#90,.T.);
#68=FACE_OUTER_BOUND('',#91,.T.);
#69=FACE_OUTER_BOUND('',#92,.T.);
#70=FACE_OUTER_BOUND('',#93,.T.);
#71=FACE_OUTER_BOUND('',#94,.T.);
#72=FACE_OUTER_BOUND('',#95,.T.);
#73=FACE_OUTER_BOUND('',#96,.T.);
#74=FACE_OUTER_BOUND('',#97,.T.);
#75=FACE_OUTER_BOUND('',#98,.T.);
#76=FACE_OUTER_BOUND('',#99,.T.);
#77=FACE_OUTER_BOUND('',#100,.T.);
#78=FACE_OUTER_BOUND('',#101,.T.);
#79=FACE_OUTER_BOUND('',#102,.T.);
#80=FACE_OUTER_BOUND('',#103,.T.);
#81=FACE_OUTER_BOUND('',#104,.T.);
#82=FACE_OUTER_BOUND('',#111,.T.);
#83=EDGE_LOOP('',(#313,#314,#315,#316));
#84=EDGE_LOOP('',(#317,#318,#319,#320));
#85=EDGE_LOOP('',(#321,#322,#323,#324));
#86=EDGE_LOOP('',(#325,#326,#327,#328));
#87=EDGE_LOOP('',(#329,#330,#331,#332));
#88=EDGE_LOOP('',(#333,#334,#335,#336));
#89=EDGE_LOOP('',(#337,#338,#339,#340));
#90=EDGE_LOOP('',(#341,#342,#343,#344));
#91=EDGE_LOOP('',(#345,#346,#347,#348));
#92=EDGE_LOOP('',(#349,#350,#351,#352));
#93=EDGE_LOOP('',(#353,#354,#355,#356));
#94=EDGE_LOOP('',(#357,#358,#359,#360));
#95=EDGE_LOOP('',(#361,#362,#363,#364));
#96=EDGE_LOOP('',(#365,#366,#367,#368));
#97=EDGE_LOOP('',(#369,#370,#371,#372));
#98=EDGE_LOOP('',(#373,#374,#375,#376));
#99=EDGE_LOOP('',(#377,#378,#379,#380));
#100=EDGE_LOOP('',(#381,#382,#383,#384));
#101=EDGE_LOOP('',(#385,#386,#387,#388));
#102=EDGE_LOOP('',(#389,#390,#391,#392));
#103=EDGE_LOOP('',(#393,#394,#395,#396));
#104=EDGE_LOOP('',(#397,#398,#399,#400,#401,#402,#403,#404,#405,#406,#407,
#408,#409,#410,#411));
#105=EDGE_LOOP('',(#412));
#106=EDGE_LOOP('',(#413));
#107=EDGE_LOOP('',(#414));
#108=EDGE_LOOP('',(#415));
#109=EDGE_LOOP('',(#416));
#110=EDGE_LOOP('',(#417));
#111=EDGE_LOOP('',(#418,#419,#420,#421,#422,#423,#424,#425,#426,#427,#428,
#429,#430,#431,#432));
#112=EDGE_LOOP('',(#433));
#113=EDGE_LOOP('',(#434));
#114=EDGE_LOOP('',(#435));
#115=EDGE_LOOP('',(#436));
#116=EDGE_LOOP('',(#437));
#117=EDGE_LOOP('',(#438));
#118=LINE('',#622,#157);
#119=LINE('',#628,#158);
#120=LINE('',#634,#159);
#121=LINE('',#640,#160);
#122=LINE('',#646,#161);
#123=LINE('',#652,#162);
#124=LINE('',#657,#163);
#125=LINE('',#659,#164);
#126=LINE('',#661,#165);
#127=LINE('',#662,#166);
#128=LINE('',#745,#167);
#129=LINE('',#748,#168);
#130=LINE('',#750,#169);
#131=LINE('',#751,#170);
#132=LINE('',#814,#171);
#133=LINE('',#817,#172);
#134=LINE('',#819,#173);
#135=LINE('',#820,#174);
#136=LINE('',#823,#175);
#137=LINE('',#825,#176);
#138=LINE('',#826,#177);
#139=LINE('',#889,#178);
#140=LINE('',#892,#179);
#141=LINE('',#894,#180);
#142=LINE('',#895,#181);
#143=LINE('',#978,#182);
#144=LINE('',#981,#183);
#145=LINE('',#983,#184);
#146=LINE('',#984,#185);
#147=LINE('',#1047,#186);
#148=LINE('',#1050,#187);
#149=LINE('',#1052,#188);
#150=LINE('',#1053,#189);
#151=LINE('',#1056,#190);
#152=LINE('',#1058,#191);
#153=LINE('',#1059,#192);
#154=LINE('',#1062,#193);
#155=LINE('',#1064,#194);
#156=LINE('',#1065,#195);
#157=VECTOR('',#521,0.995028999999996);
#158=VECTOR('',#528,0.995029);
#159=VECTOR('',#535,0.995030499999991);
#160=VECTOR('',#542,0.995029);
#161=VECTOR('',#549,0.995029);
#162=VECTOR('',#556,0.995029);
#163=VECTOR('',#561,10.);
#164=VECTOR('',#562,10.);
#165=VECTOR('',#563,10.);
#166=VECTOR('',#564,10.);
#167=VECTOR('',#565,10.);
#168=VECTOR('',#568,10.);
#169=VECTOR('',#569,10.);
#170=VECTOR('',#570,10.);
#171=VECTOR('',#571,10.);
#172=VECTOR('',#574,10.);
#173=VECTOR('',#575,10.);
#174=VECTOR('',#576,10.);
#175=VECTOR('',#579,10.);
#176=VECTOR('',#580,10.);
#177=VECTOR('',#581,10.);
#178=VECTOR('',#582,10.);
#179=VECTOR('',#585,10.);
#180=VECTOR('',#586,10.);
#181=VECTOR('',#587,10.);
#182=VECTOR('',#588,10.);
#183=VECTOR('',#591,10.);
#184=VECTOR('',#592,10.);
#185=VECTOR('',#593,10.);
#186=VECTOR('',#594,10.);
#187=VECTOR('',#597,10.);
#188=VECTOR('',#598,10.);
#189=VECTOR('',#599,10.);
#190=VECTOR('',#602,10.);
#191=VECTOR('',#603,10.);
#192=VECTOR('',#604,10.);
#193=VECTOR('',#607,10.);
#194=VECTOR('',#608,10.);
#195=VECTOR('',#609,10.);
#196=CIRCLE('',#484,0.995028999999996);
#197=CIRCLE('',#485,0.995028999999996);
#198=CIRCLE('',#487,0.995029000000001);
#199=CIRCLE('',#488,0.995029000000001);
#200=CIRCLE('',#490,0.995030499999991);
#201=CIRCLE('',#491,0.995030499999991);
#202=CIRCLE('',#493,0.995029000000001);
#203=CIRCLE('',#494,0.995029000000001);
#204=CIRCLE('',#496,0.995029000000001);
#205=CIRCLE('',#497,0.995029000000001);
#206=CIRCLE('',#499,0.995029000000001);
#207=CIRCLE('',#500,0.995029000000001);
#208=VERTEX_POINT('',#619);
#209=VERTEX_POINT('',#621);
#210=VERTEX_POINT('',#625);
#211=VERTEX_POINT('',#627);
#212=VERTEX_POINT('',#631);
#213=VERTEX_POINT('',#633);
#214=VERTEX_POINT('',#637);
#215=VERTEX_POINT('',#639);
#216=VERTEX_POINT('',#643);
#217=VERTEX_POINT('',#645);
#218=VERTEX_POINT('',#649);
#219=VERTEX_POINT('',#651);
#220=VERTEX_POINT('',#655);
#221=VERTEX_POINT('',#656);
#222=VERTEX_POINT('',#658);
#223=VERTEX_POINT('',#660);
#224=VERTEX_POINT('',#703);
#225=VERTEX_POINT('',#724);
#226=VERTEX_POINT('',#747);
#227=VERTEX_POINT('',#749);
#228=VERTEX_POINT('',#782);
#229=VERTEX_POINT('',#798);
#230=VERTEX_POINT('',#816);
#231=VERTEX_POINT('',#818);
#232=VERTEX_POINT('',#822);
#233=VERTEX_POINT('',#824);
#234=VERTEX_POINT('',#857);
#235=VERTEX_POINT('',#873);
#236=VERTEX_POINT('',#891);
#237=VERTEX_POINT('',#893);
#238=VERTEX_POINT('',#936);
#239=VERTEX_POINT('',#957);
#240=VERTEX_POINT('',#980);
#241=VERTEX_POINT('',#982);
#242=VERTEX_POINT('',#1015);
#243=VERTEX_POINT('',#1031);
#244=VERTEX_POINT('',#1049);
#245=VERTEX_POINT('',#1051);
#246=VERTEX_POINT('',#1055);
#247=VERTEX_POINT('',#1057);
#248=VERTEX_POINT('',#1061);
#249=VERTEX_POINT('',#1063);
#250=EDGE_CURVE('',#208,#208,#196,.T.);
#251=EDGE_CURVE('',#208,#209,#118,.T.);
#252=EDGE_CURVE('',#209,#209,#197,.T.);
#253=EDGE_CURVE('',#210,#210,#198,.T.);
#254=EDGE_CURVE('',#210,#211,#119,.T.);
#255=EDGE_CURVE('',#211,#211,#199,.T.);
#256=EDGE_CURVE('',#212,#212,#200,.T.);
#257=EDGE_CURVE('',#212,#213,#120,.T.);
#258=EDGE_CURVE('',#213,#213,#201,.T.);
#259=EDGE_CURVE('',#214,#214,#202,.T.);
#260=EDGE_CURVE('',#214,#215,#121,.T.);
#261=EDGE_CURVE('',#215,#215,#203,.T.);
#262=EDGE_CURVE('',#216,#216,#204,.T.);
#263=EDGE_CURVE('',#216,#217,#122,.T.);
#264=EDGE_CURVE('',#217,#217,#205,.T.);
#265=EDGE_CURVE('',#218,#218,#206,.T.);
#266=EDGE_CURVE('',#218,#219,#123,.T.);
#267=EDGE_CURVE('',#219,#219,#207,.T.);
#268=EDGE_CURVE('',#220,#221,#124,.T.);
#269=EDGE_CURVE('',#221,#222,#125,.T.);
#270=EDGE_CURVE('',#223,#222,#126,.T.);
#271=EDGE_CURVE('',#220,#223,#127,.T.);
#272=EDGE_CURVE('',#220,#224,#31,.T.);
#273=EDGE_CURVE('',#225,#223,#32,.T.);
#274=EDGE_CURVE('',#224,#225,#128,.T.);
#275=EDGE_CURVE('',#226,#224,#129,.T.);
#276=EDGE_CURVE('',#227,#225,#130,.T.);
#277=EDGE_CURVE('',#226,#227,#131,.T.);
#278=EDGE_CURVE('',#226,#228,#33,.T.);
#279=EDGE_CURVE('',#229,#227,#34,.T.);
#280=EDGE_CURVE('',#228,#229,#132,.T.);
#281=EDGE_CURVE('',#230,#228,#133,.T.);
#282=EDGE_CURVE('',#231,#229,#134,.T.);
#283=EDGE_CURVE('',#230,#231,#135,.T.);
#284=EDGE_CURVE('',#232,#230,#136,.T.);
#285=EDGE_CURVE('',#233,#231,#137,.T.);
#286=EDGE_CURVE('',#232,#233,#138,.T.);
#287=EDGE_CURVE('',#234,#232,#35,.T.);
#288=EDGE_CURVE('',#235,#233,#36,.T.);
#289=EDGE_CURVE('',#234,#235,#139,.T.);
#290=EDGE_CURVE('',#236,#234,#140,.T.);
#291=EDGE_CURVE('',#237,#235,#141,.T.);
#292=EDGE_CURVE('',#236,#237,#142,.T.);
#293=EDGE_CURVE('',#238,#236,#37,.T.);
#294=EDGE_CURVE('',#239,#237,#38,.T.);
#295=EDGE_CURVE('',#238,#239,#143,.T.);
#296=EDGE_CURVE('',#240,#238,#144,.T.);
#297=EDGE_CURVE('',#241,#239,#145,.T.);
#298=EDGE_CURVE('',#240,#241,#146,.T.);
#299=EDGE_CURVE('',#240,#242,#39,.T.);
#300=EDGE_CURVE('',#243,#241,#40,.T.);
#301=EDGE_CURVE('',#242,#243,#147,.T.);
#302=EDGE_CURVE('',#244,#242,#148,.T.);
#303=EDGE_CURVE('',#245,#243,#149,.T.);
#304=EDGE_CURVE('',#244,#245,#150,.T.);
#305=EDGE_CURVE('',#246,#244,#151,.T.);
#306=EDGE_CURVE('',#247,#245,#152,.T.);
#307=EDGE_CURVE('',#246,#247,#153,.T.);
#308=EDGE_CURVE('',#248,#246,#154,.T.);
#309=EDGE_CURVE('',#249,#247,#155,.T.);
#310=EDGE_CURVE('',#248,#249,#156,.T.);
#311=EDGE_CURVE('',#221,#248,#41,.T.);
#312=EDGE_CURVE('',#222,#249,#42,.T.);
#313=ORIENTED_EDGE('',*,*,#250,.F.);
#314=ORIENTED_EDGE('',*,*,#251,.T.);
#315=ORIENTED_EDGE('',*,*,#252,.T.);
#316=ORIENTED_EDGE('',*,*,#251,.F.);
#317=ORIENTED_EDGE('',*,*,#253,.F.);
#318=ORIENTED_EDGE('',*,*,#254,.T.);
#319=ORIENTED_EDGE('',*,*,#255,.T.);
#320=ORIENTED_EDGE('',*,*,#254,.F.);
#321=ORIENTED_EDGE('',*,*,#256,.F.);
#322=ORIENTED_EDGE('',*,*,#257,.T.);
#323=ORIENTED_EDGE('',*,*,#258,.T.);
#324=ORIENTED_EDGE('',*,*,#257,.F.);
#325=ORIENTED_EDGE('',*,*,#259,.F.);
#326=ORIENTED_EDGE('',*,*,#260,.T.);
#327=ORIENTED_EDGE('',*,*,#261,.T.);
#328=ORIENTED_EDGE('',*,*,#260,.F.);
#329=ORIENTED_EDGE('',*,*,#262,.F.);
#330=ORIENTED_EDGE('',*,*,#263,.T.);
#331=ORIENTED_EDGE('',*,*,#264,.T.);
#332=ORIENTED_EDGE('',*,*,#263,.F.);
#333=ORIENTED_EDGE('',*,*,#265,.F.);
#334=ORIENTED_EDGE('',*,*,#266,.T.);
#335=ORIENTED_EDGE('',*,*,#267,.T.);
#336=ORIENTED_EDGE('',*,*,#266,.F.);
#337=ORIENTED_EDGE('',*,*,#268,.T.);
#338=ORIENTED_EDGE('',*,*,#269,.T.);
#339=ORIENTED_EDGE('',*,*,#270,.F.);
#340=ORIENTED_EDGE('',*,*,#271,.F.);
#341=ORIENTED_EDGE('',*,*,#272,.F.);
#342=ORIENTED_EDGE('',*,*,#271,.T.);
#343=ORIENTED_EDGE('',*,*,#273,.F.);
#344=ORIENTED_EDGE('',*,*,#274,.F.);
#345=ORIENTED_EDGE('',*,*,#275,.T.);
#346=ORIENTED_EDGE('',*,*,#274,.T.);
#347=ORIENTED_EDGE('',*,*,#276,.F.);
#348=ORIENTED_EDGE('',*,*,#277,.F.);
#349=ORIENTED_EDGE('',*,*,#278,.F.);
#350=ORIENTED_EDGE('',*,*,#277,.T.);
#351=ORIENTED_EDGE('',*,*,#279,.F.);
#352=ORIENTED_EDGE('',*,*,#280,.F.);
#353=ORIENTED_EDGE('',*,*,#281,.T.);
#354=ORIENTED_EDGE('',*,*,#280,.T.);
#355=ORIENTED_EDGE('',*,*,#282,.F.);
#356=ORIENTED_EDGE('',*,*,#283,.F.);
#357=ORIENTED_EDGE('',*,*,#284,.T.);
#358=ORIENTED_EDGE('',*,*,#283,.T.);
#359=ORIENTED_EDGE('',*,*,#285,.F.);
#360=ORIENTED_EDGE('',*,*,#286,.F.);
#361=ORIENTED_EDGE('',*,*,#287,.T.);
#362=ORIENTED_EDGE('',*,*,#286,.T.);
#363=ORIENTED_EDGE('',*,*,#288,.F.);
#364=ORIENTED_EDGE('',*,*,#289,.F.);
#365=ORIENTED_EDGE('',*,*,#290,.T.);
#366=ORIENTED_EDGE('',*,*,#289,.T.);
#367=ORIENTED_EDGE('',*,*,#291,.F.);
#368=ORIENTED_EDGE('',*,*,#292,.F.);
#369=ORIENTED_EDGE('',*,*,#293,.T.);
#370=ORIENTED_EDGE('',*,*,#292,.T.);
#371=ORIENTED_EDGE('',*,*,#294,.F.);
#372=ORIENTED_EDGE('',*,*,#295,.F.);
#373=ORIENTED_EDGE('',*,*,#296,.T.);
#374=ORIENTED_EDGE('',*,*,#295,.T.);
#375=ORIENTED_EDGE('',*,*,#297,.F.);
#376=ORIENTED_EDGE('',*,*,#298,.F.);
#377=ORIENTED_EDGE('',*,*,#299,.F.);
#378=ORIENTED_EDGE('',*,*,#298,.T.);
#379=ORIENTED_EDGE('',*,*,#300,.F.);
#380=ORIENTED_EDGE('',*,*,#301,.F.);
#381=ORIENTED_EDGE('',*,*,#302,.T.);
#382=ORIENTED_EDGE('',*,*,#301,.T.);
#383=ORIENTED_EDGE('',*,*,#303,.F.);
#384=ORIENTED_EDGE('',*,*,#304,.F.);
#385=ORIENTED_EDGE('',*,*,#305,.T.);
#386=ORIENTED_EDGE('',*,*,#304,.T.);
#387=ORIENTED_EDGE('',*,*,#306,.F.);
#388=ORIENTED_EDGE('',*,*,#307,.F.);
#389=ORIENTED_EDGE('',*,*,#308,.T.);
#390=ORIENTED_EDGE('',*,*,#307,.T.);
#391=ORIENTED_EDGE('',*,*,#309,.F.);
#392=ORIENTED_EDGE('',*,*,#310,.F.);
#393=ORIENTED_EDGE('',*,*,#311,.T.);
#394=ORIENTED_EDGE('',*,*,#310,.T.);
#395=ORIENTED_EDGE('',*,*,#312,.F.);
#396=ORIENTED_EDGE('',*,*,#269,.F.);
#397=ORIENTED_EDGE('',*,*,#312,.T.);
#398=ORIENTED_EDGE('',*,*,#309,.T.);
#399=ORIENTED_EDGE('',*,*,#306,.T.);
#400=ORIENTED_EDGE('',*,*,#303,.T.);
#401=ORIENTED_EDGE('',*,*,#300,.T.);
#402=ORIENTED_EDGE('',*,*,#297,.T.);
#403=ORIENTED_EDGE('',*,*,#294,.T.);
#404=ORIENTED_EDGE('',*,*,#291,.T.);
#405=ORIENTED_EDGE('',*,*,#288,.T.);
#406=ORIENTED_EDGE('',*,*,#285,.T.);
#407=ORIENTED_EDGE('',*,*,#282,.T.);
#408=ORIENTED_EDGE('',*,*,#279,.T.);
#409=ORIENTED_EDGE('',*,*,#276,.T.);
#410=ORIENTED_EDGE('',*,*,#273,.T.);
#411=ORIENTED_EDGE('',*,*,#270,.T.);
#412=ORIENTED_EDGE('',*,*,#265,.T.);
#413=ORIENTED_EDGE('',*,*,#262,.T.);
#414=ORIENTED_EDGE('',*,*,#259,.T.);
#415=ORIENTED_EDGE('',*,*,#256,.T.);
#416=ORIENTED_EDGE('',*,*,#253,.T.);
#417=ORIENTED_EDGE('',*,*,#250,.T.);
#418=ORIENTED_EDGE('',*,*,#311,.F.);
#419=ORIENTED_EDGE('',*,*,#268,.F.);
#420=ORIENTED_EDGE('',*,*,#272,.T.);
#421=ORIENTED_EDGE('',*,*,#275,.F.);
#422=ORIENTED_EDGE('',*,*,#278,.T.);
#423=ORIENTED_EDGE('',*,*,#281,.F.);
#424=ORIENTED_EDGE('',*,*,#284,.F.);
#425=ORIENTED_EDGE('',*,*,#287,.F.);
#426=ORIENTED_EDGE('',*,*,#290,.F.);
#427=ORIENTED_EDGE('',*,*,#293,.F.);
#428=ORIENTED_EDGE('',*,*,#296,.F.);
#429=ORIENTED_EDGE('',*,*,#299,.T.);
#430=ORIENTED_EDGE('',*,*,#302,.F.);
#431=ORIENTED_EDGE('',*,*,#305,.F.);
#432=ORIENTED_EDGE('',*,*,#308,.F.);
#433=ORIENTED_EDGE('',*,*,#267,.F.);
#434=ORIENTED_EDGE('',*,*,#264,.F.);
#435=ORIENTED_EDGE('',*,*,#261,.F.);
#436=ORIENTED_EDGE('',*,*,#258,.F.);
#437=ORIENTED_EDGE('',*,*,#255,.F.);
#438=ORIENTED_EDGE('',*,*,#252,.F.);
#439=CYLINDRICAL_SURFACE('',#483,0.995028999999996);
#440=CYLINDRICAL_SURFACE('',#486,0.995029000000001);
#441=CYLINDRICAL_SURFACE('',#489,0.995030499999991);
#442=CYLINDRICAL_SURFACE('',#492,0.995029000000001);
#443=CYLINDRICAL_SURFACE('',#495,0.995029000000001);
#444=CYLINDRICAL_SURFACE('',#498,0.995029000000001);
#445=ADVANCED_FACE('',(#60),#439,.F.);
#446=ADVANCED_FACE('',(#61),#440,.F.);
#447=ADVANCED_FACE('',(#62),#441,.F.);
#448=ADVANCED_FACE('',(#63),#442,.F.);
#449=ADVANCED_FACE('',(#64),#443,.F.);
#450=ADVANCED_FACE('',(#65),#444,.F.);
#451=ADVANCED_FACE('',(#66),#49,.T.);
#452=ADVANCED_FACE('',(#67),#43,.T.);
#453=ADVANCED_FACE('',(#68),#50,.T.);
#454=ADVANCED_FACE('',(#69),#44,.T.);
#455=ADVANCED_FACE('',(#70),#51,.T.);
#456=ADVANCED_FACE('',(#71),#52,.T.);
#457=ADVANCED_FACE('',(#72),#45,.T.);
#458=ADVANCED_FACE('',(#73),#53,.T.);
#459=ADVANCED_FACE('',(#74),#46,.T.);
#460=ADVANCED_FACE('',(#75),#54,.T.);
#461=ADVANCED_FACE('',(#76),#47,.T.);
#462=ADVANCED_FACE('',(#77),#55,.T.);
#463=ADVANCED_FACE('',(#78),#56,.T.);
#464=ADVANCED_FACE('',(#79),#57,.T.);
#465=ADVANCED_FACE('',(#80),#48,.T.);
#466=ADVANCED_FACE('',(#81,#19,#20,#21,#22,#23,#24),#58,.T.);
#467=ADVANCED_FACE('',(#82,#25,#26,#27,#28,#29,#30),#59,.F.);
#468=CLOSED_SHELL('',(#445,#446,#447,#448,#449,#450,#451,#452,#453,#454,
#455,#456,#457,#458,#459,#460,#461,#462,#463,#464,#465,#466,#467));
#469=DERIVED_UNIT_ELEMENT(#471,1.);
#470=DERIVED_UNIT_ELEMENT(#1136,-3.);
#471=(
MASS_UNIT()
NAMED_UNIT(*)
SI_UNIT(.KILO.,.GRAM.)
);
#472=DERIVED_UNIT((#469,#470));
#473=MEASURE_REPRESENTATION_ITEM('density measure',
POSITIVE_RATIO_MEASURE(7850.),#472);
#474=PROPERTY_DEFINITION_REPRESENTATION(#479,#476);
#475=PROPERTY_DEFINITION_REPRESENTATION(#480,#477);
#476=REPRESENTATION('material name',(#478),#1133);
#477=REPRESENTATION('density',(#473),#1133);
#478=DESCRIPTIVE_REPRESENTATION_ITEM('Steel','Steel');
#479=PROPERTY_DEFINITION('material property','material name',#1148);
#480=PROPERTY_DEFINITION('material property','density of part',#1148);
#481=AXIS2_PLACEMENT_3D('',#616,#513,#514);
#482=AXIS2_PLACEMENT_3D('',#617,#515,#516);
#483=AXIS2_PLACEMENT_3D('',#618,#517,#518);
#484=AXIS2_PLACEMENT_3D('',#620,#519,#520);
#485=AXIS2_PLACEMENT_3D('',#623,#522,#523);
#486=AXIS2_PLACEMENT_3D('',#624,#524,#525);
#487=AXIS2_PLACEMENT_3D('',#626,#526,#527);
#488=AXIS2_PLACEMENT_3D('',#629,#529,#530);
#489=AXIS2_PLACEMENT_3D('',#630,#531,#532);
#490=AXIS2_PLACEMENT_3D('',#632,#533,#534);
#491=AXIS2_PLACEMENT_3D('',#635,#536,#537);
#492=AXIS2_PLACEMENT_3D('',#636,#538,#539);
#493=AXIS2_PLACEMENT_3D('',#638,#540,#541);
#494=AXIS2_PLACEMENT_3D('',#641,#543,#544);
#495=AXIS2_PLACEMENT_3D('',#642,#545,#546);
#496=AXIS2_PLACEMENT_3D('',#644,#547,#548);
#497=AXIS2_PLACEMENT_3D('',#647,#550,#551);
#498=AXIS2_PLACEMENT_3D('',#648,#552,#553);
#499=AXIS2_PLACEMENT_3D('',#650,#554,#555);
#500=AXIS2_PLACEMENT_3D('',#653,#557,#558);
#501=AXIS2_PLACEMENT_3D('',#654,#559,#560);
#502=AXIS2_PLACEMENT_3D('',#746,#566,#567);
#503=AXIS2_PLACEMENT_3D('',#815,#572,#573);
#504=AXIS2_PLACEMENT_3D('',#821,#577,#578);
#505=AXIS2_PLACEMENT_3D('',#890,#583,#584);
#506=AXIS2_PLACEMENT_3D('',#979,#589,#590);
#507=AXIS2_PLACEMENT_3D('',#1048,#595,#596);
#508=AXIS2_PLACEMENT_3D('',#1054,#600,#601);
#509=AXIS2_PLACEMENT_3D('',#1060,#605,#606);
#510=AXIS2_PLACEMENT_3D('',#1126,#610,#611);
#511=AXIS2_PLACEMENT_3D('',#1127,#612,#613);
#512=AXIS2_PLACEMENT_3D('',#1128,#614,#615);
#513=DIRECTION('axis',(0.,0.,1.));
#514=DIRECTION('refdir',(1.,0.,0.));
#515=DIRECTION('axis',(0.,0.,1.));
#516=DIRECTION('refdir',(1.,0.,0.));
#517=DIRECTION('center_axis',(0.,0.,1.));
#518=DIRECTION('ref_axis',(1.,0.,0.));
#519=DIRECTION('center_axis',(0.,0.,-1.));
#520=DIRECTION('ref_axis',(1.,0.,0.));
#521=DIRECTION('',(0.,0.,-1.));
#522=DIRECTION('center_axis',(0.,0.,-1.));
#523=DIRECTION('ref_axis',(1.,0.,0.));
#524=DIRECTION('center_axis',(0.,0.,1.));
#525=DIRECTION('ref_axis',(1.,0.,0.));
#526=DIRECTION('center_axis',(0.,0.,-1.));
#527=DIRECTION('ref_axis',(1.,0.,0.));
#528=DIRECTION('',(0.,0.,-1.));
#529=DIRECTION('center_axis',(0.,0.,-1.));
#530=DIRECTION('ref_axis',(1.,0.,0.));
#531=DIRECTION('center_axis',(0.,0.,1.));
#532=DIRECTION('ref_axis',(1.,0.,0.));
#533=DIRECTION('center_axis',(0.,0.,-1.));
#534=DIRECTION('ref_axis',(1.,0.,0.));
#535=DIRECTION('',(0.,0.,-1.));
#536=DIRECTION('center_axis',(0.,0.,-1.));
#537=DIRECTION('ref_axis',(1.,0.,0.));
#538=DIRECTION('center_axis',(0.,0.,1.));
#539=DIRECTION('ref_axis',(1.,0.,0.));
#540=DIRECTION('center_axis',(0.,0.,-1.));
#541=DIRECTION('ref_axis',(1.,0.,0.));
#542=DIRECTION('',(0.,0.,-1.));
#543=DIRECTION('center_axis',(0.,0.,-1.));
#544=DIRECTION('ref_axis',(1.,0.,0.));
#545=DIRECTION('center_axis',(0.,0.,1.));
#546=DIRECTION('ref_axis',(1.,0.,0.));
#547=DIRECTION('center_axis',(0.,0.,-1.));
#548=DIRECTION('ref_axis',(1.,0.,0.));
#549=DIRECTION('',(0.,0.,-1.));
#550=DIRECTION('center_axis',(0.,0.,-1.));
#551=DIRECTION('ref_axis',(1.,0.,0.));
#552=DIRECTION('center_axis',(0.,0.,1.));
#553=DIRECTION('ref_axis',(1.,0.,0.));
#554=DIRECTION('center_axis',(0.,0.,-1.));
#555=DIRECTION('ref_axis',(1.,0.,0.));
#556=DIRECTION('',(0.,0.,-1.));
#557=DIRECTION('center_axis',(0.,0.,-1.));
#558=DIRECTION('ref_axis',(1.,0.,0.));
#559=DIRECTION('center_axis',(-0.605698978632288,-0.795693877872516,0.));
#560=DIRECTION('ref_axis',(0.795693877872516,-0.605698978632288,0.));
#561=DIRECTION('',(0.795693877872516,-0.605698978632288,0.));
#562=DIRECTION('',(0.,0.,1.));
#563=DIRECTION('',(0.795693877872516,-0.605698978632288,0.));
#564=DIRECTION('',(0.,0.,1.));
#565=DIRECTION('',(0.,0.,1.));
#566=DIRECTION('center_axis',(-0.716124878262525,0.697972176188624,0.));
#567=DIRECTION('ref_axis',(-0.697972176188624,-0.716124878262525,0.));
#568=DIRECTION('',(-0.697972176188624,-0.716124878262525,0.));
#569=DIRECTION('',(-0.697972176188624,-0.716124878262525,0.));
#570=DIRECTION('',(0.,0.,1.));
#571=DIRECTION('',(0.,0.,1.));
#572=DIRECTION('center_axis',(0.642853295212205,0.765989321619309,0.));
#573=DIRECTION('ref_axis',(-0.765989321619309,0.642853295212205,0.));
#574=DIRECTION('',(-0.765989321619309,0.642853295212205,0.));
#575=DIRECTION('',(-0.765989321619309,0.642853295212205,0.));
#576=DIRECTION('',(0.,0.,1.));
#577=DIRECTION('center_axis',(-0.642853295212205,0.765989321619309,0.));
#578=DIRECTION('ref_axis',(-0.765989321619309,-0.642853295212205,0.));
#579=DIRECTION('',(-0.765989321619309,-0.642853295212205,0.));
#580=DIRECTION('',(-0.765989321619309,-0.642853295212205,0.));
#581=DIRECTION('',(0.,0.,1.));
#582=DIRECTION('',(0.,0.,1.));
#583=DIRECTION('center_axis',(0.716124848274439,0.697972206956632,0.));
#584=DIRECTION('ref_axis',(-0.697972206956632,0.716124848274439,0.));
#585=DIRECTION('',(-0.697972206956632,0.716124848274439,0.));
#586=DIRECTION('',(-0.697972206956632,0.716124848274439,0.));
#587=DIRECTION('',(0.,0.,1.));
#588=DIRECTION('',(0.,0.,1.));
#589=DIRECTION('center_axis',(0.605685858905833,-0.795703864714445,0.));
#590=DIRECTION('ref_axis',(0.795703864714445,0.605685858905833,0.));
#591=DIRECTION('',(0.795703864714445,0.605685858905833,0.));
#592=DIRECTION('',(0.795703864714445,0.605685858905833,0.));
#593=DIRECTION('',(0.,0.,1.));
#594=DIRECTION('',(0.,0.,1.));
#595=DIRECTION('center_axis',(0.528538002000694,-0.848909642094561,0.));
#596=DIRECTION('ref_axis',(0.848909642094561,0.528538002000694,0.));
#597=DIRECTION('',(0.848909642094561,0.528538002000694,0.));
#598=DIRECTION('',(0.848909642094561,0.528538002000694,0.));
#599=DIRECTION('',(0.,0.,1.));
#600=DIRECTION('center_axis',(0.,-1.,0.));
#601=DIRECTION('ref_axis',(1.,0.,0.));
#602=DIRECTION('',(1.,0.,0.));
#603=DIRECTION('',(1.,0.,0.));
#604=DIRECTION('',(0.,0.,1.));
#605=DIRECTION('center_axis',(-0.528538002000694,-0.848909642094561,0.));
#606=DIRECTION('ref_axis',(0.848909642094561,-0.528538002000694,0.));
#607=DIRECTION('',(0.848909642094561,-0.528538002000694,0.));
#608=DIRECTION('',(0.848909642094561,-0.528538002000694,0.));
#609=DIRECTION('',(0.,0.,1.));
#610=DIRECTION('center_axis',(0.,0.,1.));
#611=DIRECTION('ref_axis',(1.,0.,0.));
#612=DIRECTION('center_axis',(0.,0.,1.));
#613=DIRECTION('ref_axis',(1.,0.,0.));
#614=DIRECTION('',(0.,0.,1.));
#615=DIRECTION('',(1.,0.,0.));
#616=CARTESIAN_POINT('',(0.,0.,0.));
#617=CARTESIAN_POINT('',(0.,0.,0.));
#618=CARTESIAN_POINT('Origin',(-25.797939,37.896585,1.56));
#619=CARTESIAN_POINT('',(-26.792968,37.896585,4.56));
#620=CARTESIAN_POINT('Origin',(-25.797939,37.896585,4.56));
#621=CARTESIAN_POINT('',(-26.792968,37.896585,1.56));
#622=CARTESIAN_POINT('',(-26.792968,37.896585,1.56));
#623=CARTESIAN_POINT('Origin',(-25.797939,37.896585,1.56));
#624=CARTESIAN_POINT('Origin',(-32.302969,-34.506749,1.56));
#625=CARTESIAN_POINT('',(-33.297998,-34.506749,4.56));
#626=CARTESIAN_POINT('Origin',(-32.302969,-34.506749,4.56));
#627=CARTESIAN_POINT('',(-33.297998,-34.506749,1.56));
#628=CARTESIAN_POINT('',(-33.297998,-34.506749,1.56));
#629=CARTESIAN_POINT('Origin',(-32.302969,-34.506749,1.56));
#630=CARTESIAN_POINT('Origin',(26.1921705,37.896585,1.56));
#631=CARTESIAN_POINT('',(25.19714,37.896585,4.56));
#632=CARTESIAN_POINT('Origin',(26.1921705,37.896585,4.56));
#633=CARTESIAN_POINT('',(25.19714,37.896585,1.56));
#634=CARTESIAN_POINT('',(25.19714,37.896585,1.56));
#635=CARTESIAN_POINT('Origin',(26.1921705,37.896585,1.56));
#636=CARTESIAN_POINT('Origin',(32.697199,17.483359,1.56));
#637=CARTESIAN_POINT('',(31.70217,17.483359,4.56));
#638=CARTESIAN_POINT('Origin',(32.697199,17.483359,4.56));
#639=CARTESIAN_POINT('',(31.70217,17.483359,1.56));
#640=CARTESIAN_POINT('',(31.70217,17.483359,1.56));
#641=CARTESIAN_POINT('Origin',(32.697199,17.483359,1.56));
#642=CARTESIAN_POINT('Origin',(32.697199,-34.506749,1.56));
#643=CARTESIAN_POINT('',(31.70217,-34.506749,4.56));
#644=CARTESIAN_POINT('Origin',(32.697199,-34.506749,4.56));
#645=CARTESIAN_POINT('',(31.70217,-34.506749,1.56));
#646=CARTESIAN_POINT('',(31.70217,-34.506749,1.56));
#647=CARTESIAN_POINT('Origin',(32.697199,-34.506749,1.56));
#648=CARTESIAN_POINT('Origin',(-32.302969,17.483359,1.56));
#649=CARTESIAN_POINT('',(-33.297998,17.483359,4.56));
#650=CARTESIAN_POINT('Origin',(-32.302969,17.483359,4.56));
#651=CARTESIAN_POINT('',(-33.297998,17.483359,1.56));
#652=CARTESIAN_POINT('',(-33.297998,17.483359,1.56));
#653=CARTESIAN_POINT('Origin',(-32.302969,17.483359,1.56));
#654=CARTESIAN_POINT('Origin',(-37.143759,-48.402544,1.56));
#655=CARTESIAN_POINT('',(-37.143759,-48.402544,1.56));
#656=CARTESIAN_POINT('',(-22.061475,-59.883497,1.56));
#657=CARTESIAN_POINT('',(-37.143759,-48.402544,1.56));
#658=CARTESIAN_POINT('',(-22.061475,-59.883497,4.56));
#659=CARTESIAN_POINT('',(-22.061475,-59.883497,1.56));
#660=CARTESIAN_POINT('',(-37.143759,-48.402544,4.56));
#661=CARTESIAN_POINT('',(-37.143759,-48.402544,4.56));
#662=CARTESIAN_POINT('',(-37.143759,-48.402544,1.56));
#663=CARTESIAN_POINT('Ctrl Pts',(-60.965044,30.837068,1.56));
#664=CARTESIAN_POINT('Ctrl Pts',(-60.965044,30.837068,4.56));
#665=CARTESIAN_POINT('Ctrl Pts',(-60.9054064529837,30.6589500988398,1.56));
#666=CARTESIAN_POINT('Ctrl Pts',(-60.9054064529837,30.6589500988398,4.56));
#667=CARTESIAN_POINT('Ctrl Pts',(-60.7445748479901,30.1926562670185,1.56));
#668=CARTESIAN_POINT('Ctrl Pts',(-60.7445748479901,30.1926562670185,4.56));
#669=CARTESIAN_POINT('Ctrl Pts',(-60.3786414471889,29.163004206384,1.56));
#670=CARTESIAN_POINT('Ctrl Pts',(-60.3786414471889,29.163004206384,4.56));
#671=CARTESIAN_POINT('Ctrl Pts',(-59.6396877239902,27.1252331034278,1.56));
#672=CARTESIAN_POINT('Ctrl Pts',(-59.6396877239902,27.1252331034278,4.56));
#673=CARTESIAN_POINT('Ctrl Pts',(-58.3007531640484,23.4717768378259,1.56));
#674=CARTESIAN_POINT('Ctrl Pts',(-58.3007531640484,23.4717768378259,4.56));
#675=CARTESIAN_POINT('Ctrl Pts',(-56.5783342878045,18.775635433902,1.56));
#676=CARTESIAN_POINT('Ctrl Pts',(-56.5783342878045,18.775635433902,4.56));
#677=CARTESIAN_POINT('Ctrl Pts',(-54.5450408137074,13.1903109428109,1.56));
#678=CARTESIAN_POINT('Ctrl Pts',(-54.5450408137074,13.1903109428109,4.56));
#679=CARTESIAN_POINT('Ctrl Pts',(-52.2973225531481,6.92120487801844,1.56));
#680=CARTESIAN_POINT('Ctrl Pts',(-52.2973225531481,6.92120487801844,4.56));
#681=CARTESIAN_POINT('Ctrl Pts',(-49.9450305280225,0.202966831172401,1.56));
#682=CARTESIAN_POINT('Ctrl Pts',(-49.9450305280225,0.202966831172401,4.56));
#683=CARTESIAN_POINT('Ctrl Pts',(-47.59980706538,-6.72541495828509,1.56));
#684=CARTESIAN_POINT('Ctrl Pts',(-47.59980706538,-6.72541495828509,4.56));
#685=CARTESIAN_POINT('Ctrl Pts',(-45.3643961121183,-13.6427965787126,1.56));
#686=CARTESIAN_POINT('Ctrl Pts',(-45.3643961121183,-13.6427965787126,4.56));
#687=CARTESIAN_POINT('Ctrl Pts',(-43.3220069904934,-20.3675684386232,1.56));
#688=CARTESIAN_POINT('Ctrl Pts',(-43.3220069904934,-20.3675684386232,4.56));
#689=CARTESIAN_POINT('Ctrl Pts',(-41.5234582390894,-26.7830758962654,1.56));
#690=CARTESIAN_POINT('Ctrl Pts',(-41.5234582390894,-26.7830758962654,4.56));
#691=CARTESIAN_POINT('Ctrl Pts',(-39.9945904926877,-32.8240299845943,1.56));
#692=CARTESIAN_POINT('Ctrl Pts',(-39.9945904926877,-32.8240299845943,4.56));
#693=CARTESIAN_POINT('Ctrl Pts',(-38.7447193281379,-38.4606162297338,1.56));
#694=CARTESIAN_POINT('Ctrl Pts',(-38.7447193281379,-38.4606162297338,4.56));
#695=CARTESIAN_POINT('Ctrl Pts',(-37.9675713712448,-42.6407530156379,1.56));
#696=CARTESIAN_POINT('Ctrl Pts',(-37.9675713712448,-42.6407530156379,4.56));
#697=CARTESIAN_POINT('Ctrl Pts',(-37.5080485375269,-45.592453444026,1.56));
#698=CARTESIAN_POINT('Ctrl Pts',(-37.5080485375269,-45.592453444026,4.56));
#699=CARTESIAN_POINT('Ctrl Pts',(-37.2561189301784,-47.4793339313668,1.56));
#700=CARTESIAN_POINT('Ctrl Pts',(-37.2561189301784,-47.4793339313668,4.56));
#701=CARTESIAN_POINT('Ctrl Pts',(-37.143759,-48.402544,1.56));
#702=CARTESIAN_POINT('Ctrl Pts',(-37.143759,-48.402544,4.56));
#703=CARTESIAN_POINT('',(-60.965044,30.837068,1.56));
#704=CARTESIAN_POINT('Ctrl Pts',(-37.143759,-48.402544,1.56));
#705=CARTESIAN_POINT('Ctrl Pts',(-37.2561189301784,-47.4793339313668,1.56));
#706=CARTESIAN_POINT('Ctrl Pts',(-37.5080485375269,-45.592453444026,1.56));
#707=CARTESIAN_POINT('Ctrl Pts',(-37.9675713712448,-42.6407530156379,1.56));
#708=CARTESIAN_POINT('Ctrl Pts',(-38.7447193281379,-38.4606162297338,1.56));
#709=CARTESIAN_POINT('Ctrl Pts',(-39.9945904926877,-32.8240299845943,1.56));
#710=CARTESIAN_POINT('Ctrl Pts',(-41.5234582390894,-26.7830758962654,1.56));
#711=CARTESIAN_POINT('Ctrl Pts',(-43.3220069904934,-20.3675684386232,1.56));
#712=CARTESIAN_POINT('Ctrl Pts',(-45.3643961121183,-13.6427965787126,1.56));
#713=CARTESIAN_POINT('Ctrl Pts',(-47.59980706538,-6.72541495828509,1.56));
#714=CARTESIAN_POINT('Ctrl Pts',(-49.9450305280225,0.202966831172401,1.56));
#715=CARTESIAN_POINT('Ctrl Pts',(-52.2973225531481,6.92120487801844,1.56));
#716=CARTESIAN_POINT('Ctrl Pts',(-54.5450408137074,13.1903109428109,1.56));
#717=CARTESIAN_POINT('Ctrl Pts',(-56.5783342878045,18.775635433902,1.56));
#718=CARTESIAN_POINT('Ctrl Pts',(-58.3007531640484,23.4717768378259,1.56));
#719=CARTESIAN_POINT('Ctrl Pts',(-59.6396877239902,27.1252331034278,1.56));
#720=CARTESIAN_POINT('Ctrl Pts',(-60.3786414471889,29.163004206384,1.56));
#721=CARTESIAN_POINT('Ctrl Pts',(-60.7445748479901,30.1926562670185,1.56));
#722=CARTESIAN_POINT('Ctrl Pts',(-60.9054064529837,30.6589500988398,1.56));
#723=CARTESIAN_POINT('Ctrl Pts',(-60.965044,30.837068,1.56));
#724=CARTESIAN_POINT('',(-60.965044,30.837068,4.56));
#725=CARTESIAN_POINT('Ctrl Pts',(-60.965044,30.837068,4.56));
#726=CARTESIAN_POINT('Ctrl Pts',(-60.9054064529837,30.6589500988398,4.56));
#727=CARTESIAN_POINT('Ctrl Pts',(-60.7445748479901,30.1926562670185,4.56));
#728=CARTESIAN_POINT('Ctrl Pts',(-60.3786414471889,29.163004206384,4.56));
#729=CARTESIAN_POINT('Ctrl Pts',(-59.6396877239902,27.1252331034278,4.56));
#730=CARTESIAN_POINT('Ctrl Pts',(-58.3007531640484,23.4717768378259,4.56));
#731=CARTESIAN_POINT('Ctrl Pts',(-56.5783342878045,18.775635433902,4.56));
#732=CARTESIAN_POINT('Ctrl Pts',(-54.5450408137074,13.1903109428109,4.56));
#733=CARTESIAN_POINT('Ctrl Pts',(-52.2973225531481,6.92120487801844,4.56));
#734=CARTESIAN_POINT('Ctrl Pts',(-49.9450305280225,0.202966831172401,4.56));
#735=CARTESIAN_POINT('Ctrl Pts',(-47.59980706538,-6.72541495828509,4.56));
#736=CARTESIAN_POINT('Ctrl Pts',(-45.3643961121183,-13.6427965787126,4.56));
#737=CARTESIAN_POINT('Ctrl Pts',(-43.3220069904934,-20.3675684386232,4.56));
#738=CARTESIAN_POINT('Ctrl Pts',(-41.5234582390894,-26.7830758962654,4.56));
#739=CARTESIAN_POINT('Ctrl Pts',(-39.9945904926877,-32.8240299845943,4.56));
#740=CARTESIAN_POINT('Ctrl Pts',(-38.7447193281379,-38.4606162297338,4.56));
#741=CARTESIAN_POINT('Ctrl Pts',(-37.9675713712448,-42.6407530156379,4.56));
#742=CARTESIAN_POINT('Ctrl Pts',(-37.5080485375269,-45.592453444026,4.56));
#743=CARTESIAN_POINT('Ctrl Pts',(-37.2561189301784,-47.4793339313668,4.56));
#744=CARTESIAN_POINT('Ctrl Pts',(-37.143759,-48.402544,4.56));
#745=CARTESIAN_POINT('',(-60.965044,30.837068,1.56));
#746=CARTESIAN_POINT('Origin',(-37.697731,54.709512,1.56));
#747=CARTESIAN_POINT('',(-37.697731,54.709512,1.56));
#748=CARTESIAN_POINT('',(-37.697731,54.709512,1.56));
#749=CARTESIAN_POINT('',(-37.697731,54.709512,4.56));
#750=CARTESIAN_POINT('',(-37.697731,54.709512,4.56));
#751=CARTESIAN_POINT('',(-37.697731,54.709512,1.56));
#752=CARTESIAN_POINT('Ctrl Pts',(-1.24155599999999,4.605591,1.56));
#753=CARTESIAN_POINT('Ctrl Pts',(-1.24155599999999,4.605591,4.56));
#754=CARTESIAN_POINT('Ctrl Pts',(-1.90470529250818,5.72053546839749,1.56));
#755=CARTESIAN_POINT('Ctrl Pts',(-1.90470529250818,5.72053546839749,4.56));
#756=CARTESIAN_POINT('Ctrl Pts',(-3.23670969246496,7.94066312408446,1.56));
#757=CARTESIAN_POINT('Ctrl Pts',(-3.23670969246496,7.94066312408446,4.56));
#758=CARTESIAN_POINT('Ctrl Pts',(-5.2518329603975,11.2415720932502,1.56));
#759=CARTESIAN_POINT('Ctrl Pts',(-5.2518329603975,11.2415720932502,4.56));
#760=CARTESIAN_POINT('Ctrl Pts',(-7.97346724173508,15.5832440245042,1.56));
#761=CARTESIAN_POINT('Ctrl Pts',(-7.97346724173508,15.5832440245042,4.56));
#762=CARTESIAN_POINT('Ctrl Pts',(-11.4375006039993,20.9042830402793,1.56));
#763=CARTESIAN_POINT('Ctrl Pts',(-11.4375006039993,20.9042830402793,4.56));
#764=CARTESIAN_POINT('Ctrl Pts',(-14.9692489071213,26.1094780302969,1.56));
#765=CARTESIAN_POINT('Ctrl Pts',(-14.9692489071213,26.1094780302969,4.56));
#766=CARTESIAN_POINT('Ctrl Pts',(-18.5745327266059,31.1888713856427,1.56));
#767=CARTESIAN_POINT('Ctrl Pts',(-18.5745327266059,31.1888713856427,4.56));
#768=CARTESIAN_POINT('Ctrl Pts',(-22.2570500559356,36.1361367262463,1.56));
#769=CARTESIAN_POINT('Ctrl Pts',(-22.2570500559356,36.1361367262463,4.56));
#770=CARTESIAN_POINT('Ctrl Pts',(-26.0144410647245,40.9553111560092,1.56));
#771=CARTESIAN_POINT('Ctrl Pts',(-26.0144410647245,40.9553111560092,4.56));
#772=CARTESIAN_POINT('Ctrl Pts',(-29.8413400165165,45.6555741633015,1.56));
#773=CARTESIAN_POINT('Ctrl Pts',(-29.8413400165165,45.6555741633015,4.56));
#774=CARTESIAN_POINT('Ctrl Pts',(-32.9540489816508,49.3282110903194,1.56));
#775=CARTESIAN_POINT('Ctrl Pts',(-32.9540489816508,49.3282110903194,4.56));
#776=CARTESIAN_POINT('Ctrl Pts',(-35.3155661014781,52.0365232441644,1.56));
#777=CARTESIAN_POINT('Ctrl Pts',(-35.3155661014781,52.0365232441644,4.56));
#778=CARTESIAN_POINT('Ctrl Pts',(-36.901709555839,53.8218799203292,1.56));
#779=CARTESIAN_POINT('Ctrl Pts',(-36.901709555839,53.8218799203292,4.56));
#780=CARTESIAN_POINT('Ctrl Pts',(-37.697731,54.709512,1.56));
#781=CARTESIAN_POINT('Ctrl Pts',(-37.697731,54.709512,4.56));
#782=CARTESIAN_POINT('',(-1.24155599999999,4.605591,1.56));
#783=CARTESIAN_POINT('Ctrl Pts',(-37.697731,54.709512,1.56));
#784=CARTESIAN_POINT('Ctrl Pts',(-36.901709555839,53.8218799203292,1.56));
#785=CARTESIAN_POINT('Ctrl Pts',(-35.3155661014781,52.0365232441644,1.56));
#786=CARTESIAN_POINT('Ctrl Pts',(-32.9540489816508,49.3282110903194,1.56));
#787=CARTESIAN_POINT('Ctrl Pts',(-29.8413400165165,45.6555741633015,1.56));
#788=CARTESIAN_POINT('Ctrl Pts',(-26.0144410647245,40.9553111560092,1.56));
#789=CARTESIAN_POINT('Ctrl Pts',(-22.2570500559356,36.1361367262463,1.56));
#790=CARTESIAN_POINT('Ctrl Pts',(-18.5745327266059,31.1888713856427,1.56));
#791=CARTESIAN_POINT('Ctrl Pts',(-14.9692489071213,26.1094780302969,1.56));
#792=CARTESIAN_POINT('Ctrl Pts',(-11.4375006039993,20.9042830402793,1.56));
#793=CARTESIAN_POINT('Ctrl Pts',(-7.97346724173508,15.5832440245042,1.56));
#794=CARTESIAN_POINT('Ctrl Pts',(-5.2518329603975,11.2415720932502,1.56));
#795=CARTESIAN_POINT('Ctrl Pts',(-3.23670969246496,7.94066312408446,1.56));
#796=CARTESIAN_POINT('Ctrl Pts',(-1.90470529250818,5.72053546839749,1.56));
#797=CARTESIAN_POINT('Ctrl Pts',(-1.24155599999999,4.605591,1.56));
#798=CARTESIAN_POINT('',(-1.24155599999999,4.605591,4.56));
#799=CARTESIAN_POINT('Ctrl Pts',(-1.24155599999999,4.605591,4.56));
#800=CARTESIAN_POINT('Ctrl Pts',(-1.90470529250818,5.72053546839749,4.56));
#801=CARTESIAN_POINT('Ctrl Pts',(-3.23670969246496,7.94066312408446,4.56));
#802=CARTESIAN_POINT('Ctrl Pts',(-5.2518329603975,11.2415720932502,4.56));
#803=CARTESIAN_POINT('Ctrl Pts',(-7.97346724173508,15.5832440245042,4.56));
#804=CARTESIAN_POINT('Ctrl Pts',(-11.4375006039993,20.9042830402793,4.56));
#805=CARTESIAN_POINT('Ctrl Pts',(-14.9692489071213,26.1094780302969,4.56));
#806=CARTESIAN_POINT('Ctrl Pts',(-18.5745327266059,31.1888713856427,4.56));
#807=CARTESIAN_POINT('Ctrl Pts',(-22.2570500559356,36.1361367262463,4.56));
#808=CARTESIAN_POINT('Ctrl Pts',(-26.0144410647245,40.9553111560092,4.56));
#809=CARTESIAN_POINT('Ctrl Pts',(-29.8413400165165,45.6555741633015,4.56));
#810=CARTESIAN_POINT('Ctrl Pts',(-32.9540489816508,49.3282110903194,4.56));
#811=CARTESIAN_POINT('Ctrl Pts',(-35.3155661014781,52.0365232441644,4.56));
#812=CARTESIAN_POINT('Ctrl Pts',(-36.901709555839,53.8218799203292,4.56));
#813=CARTESIAN_POINT('Ctrl Pts',(-37.697731,54.709512,4.56));
#814=CARTESIAN_POINT('',(-1.24155599999999,4.605591,1.56));
#815=CARTESIAN_POINT('Origin',(0.185747,3.407733,1.56));
#816=CARTESIAN_POINT('',(0.185747,3.407733,1.56));
#817=CARTESIAN_POINT('',(0.185747,3.407733,1.56));
#818=CARTESIAN_POINT('',(0.185747,3.407733,4.56));
#819=CARTESIAN_POINT('',(0.185747,3.407733,4.56));
#820=CARTESIAN_POINT('',(0.185747,3.407733,1.56));
#821=CARTESIAN_POINT('Origin',(1.61304999999999,4.605591,1.56));
#822=CARTESIAN_POINT('',(1.61304999999999,4.605591,1.56));
#823=CARTESIAN_POINT('',(1.61304999999999,4.605591,1.56));
#824=CARTESIAN_POINT('',(1.61304999999999,4.605591,4.56));
#825=CARTESIAN_POINT('',(1.61304999999999,4.605591,4.56));
#826=CARTESIAN_POINT('',(1.61304999999999,4.605591,1.56));
#827=CARTESIAN_POINT('Ctrl Pts',(38.069222,54.709512,1.56));
#828=CARTESIAN_POINT('Ctrl Pts',(38.069222,54.709512,4.56));
#829=CARTESIAN_POINT('Ctrl Pts',(37.2732007744158,53.8218798743122,1.56));
#830=CARTESIAN_POINT('Ctrl Pts',(37.2732007744158,53.8218798743122,4.56));
#831=CARTESIAN_POINT('Ctrl Pts',(35.6870577432915,52.0365231100556,1.56));
#832=CARTESIAN_POINT('Ctrl Pts',(35.6870577432915,52.0365231100556,4.56));
#833=CARTESIAN_POINT('Ctrl Pts',(33.3255412165693,49.3282108358986,1.56));
#834=CARTESIAN_POINT('Ctrl Pts',(33.3255412165693,49.3282108358986,4.56));
#835=CARTESIAN_POINT('Ctrl Pts',(30.2128329573608,45.6555737725121,1.56));
#836=CARTESIAN_POINT('Ctrl Pts',(30.2128329573608,45.6555737725121,4.56));
#837=CARTESIAN_POINT('Ctrl Pts',(26.3859347369682,40.9553106376257,1.56));
#838=CARTESIAN_POINT('Ctrl Pts',(26.3859347369682,40.9553106376257,4.56));
#839=CARTESIAN_POINT('Ctrl Pts',(22.6285442953089,36.1361361272367,1.56));
#840=CARTESIAN_POINT('Ctrl Pts',(22.6285442953089,36.1361361272367,4.56));
#841=CARTESIAN_POINT('Ctrl Pts',(18.9460273557955,31.1888707572247,1.56));
#842=CARTESIAN_POINT('Ctrl Pts',(18.9460273557955,31.1888707572247,4.56));
#843=CARTESIAN_POINT('Ctrl Pts',(15.3407437423527,26.1094774267975,1.56));
#844=CARTESIAN_POINT('Ctrl Pts',(15.3407437423527,26.1094774267975,4.56));
#845=CARTESIAN_POINT('Ctrl Pts',(11.8089954695739,20.9042825146624,1.56));
#846=CARTESIAN_POINT('Ctrl Pts',(11.8089954695739,20.9042825146624,4.56));
#847=CARTESIAN_POINT('Ctrl Pts',(8.34496197554387,15.5832436260852,1.56));
#848=CARTESIAN_POINT('Ctrl Pts',(8.34496197554387,15.5832436260852,4.56));
#849=CARTESIAN_POINT('Ctrl Pts',(5.62332746991441,11.2415718329726,1.56));
#850=CARTESIAN_POINT('Ctrl Pts',(5.62332746991441,11.2415718329726,4.56));
#851=CARTESIAN_POINT('Ctrl Pts',(3.60820397116806,7.94066298660364,1.56));
#852=CARTESIAN_POINT('Ctrl Pts',(3.60820397116806,7.94066298660364,4.56));
#853=CARTESIAN_POINT('Ctrl Pts',(2.27619938997025,5.72053542117206,1.56));
#854=CARTESIAN_POINT('Ctrl Pts',(2.27619938997025,5.72053542117206,4.56));
#855=CARTESIAN_POINT('Ctrl Pts',(1.61304999999999,4.605591,1.56));
#856=CARTESIAN_POINT('Ctrl Pts',(1.61304999999999,4.605591,4.56));
#857=CARTESIAN_POINT('',(38.069222,54.709512,1.56));
#858=CARTESIAN_POINT('Ctrl Pts',(38.069222,54.709512,1.56));
#859=CARTESIAN_POINT('Ctrl Pts',(37.2732007744158,53.8218798743122,1.56));
#860=CARTESIAN_POINT('Ctrl Pts',(35.6870577432915,52.0365231100556,1.56));
#861=CARTESIAN_POINT('Ctrl Pts',(33.3255412165693,49.3282108358986,1.56));
#862=CARTESIAN_POINT('Ctrl Pts',(30.2128329573608,45.6555737725121,1.56));
#863=CARTESIAN_POINT('Ctrl Pts',(26.3859347369682,40.9553106376257,1.56));
#864=CARTESIAN_POINT('Ctrl Pts',(22.6285442953089,36.1361361272367,1.56));
#865=CARTESIAN_POINT('Ctrl Pts',(18.9460273557955,31.1888707572247,1.56));
#866=CARTESIAN_POINT('Ctrl Pts',(15.3407437423527,26.1094774267975,1.56));
#867=CARTESIAN_POINT('Ctrl Pts',(11.8089954695739,20.9042825146624,1.56));
#868=CARTESIAN_POINT('Ctrl Pts',(8.34496197554387,15.5832436260852,1.56));
#869=CARTESIAN_POINT('Ctrl Pts',(5.62332746991441,11.2415718329726,1.56));
#870=CARTESIAN_POINT('Ctrl Pts',(3.60820397116806,7.94066298660364,1.56));
#871=CARTESIAN_POINT('Ctrl Pts',(2.27619938997025,5.72053542117206,1.56));
#872=CARTESIAN_POINT('Ctrl Pts',(1.61304999999999,4.605591,1.56));
#873=CARTESIAN_POINT('',(38.069222,54.709512,4.56));
#874=CARTESIAN_POINT('Ctrl Pts',(38.069222,54.709512,4.56));
#875=CARTESIAN_POINT('Ctrl Pts',(37.2732007744158,53.8218798743122,4.56));
#876=CARTESIAN_POINT('Ctrl Pts',(35.6870577432915,52.0365231100556,4.56));
#877=CARTESIAN_POINT('Ctrl Pts',(33.3255412165693,49.3282108358986,4.56));
#878=CARTESIAN_POINT('Ctrl Pts',(30.2128329573608,45.6555737725121,4.56));
#879=CARTESIAN_POINT('Ctrl Pts',(26.3859347369682,40.9553106376257,4.56));
#880=CARTESIAN_POINT('Ctrl Pts',(22.6285442953089,36.1361361272367,4.56));
#881=CARTESIAN_POINT('Ctrl Pts',(18.9460273557955,31.1888707572247,4.56));
#882=CARTESIAN_POINT('Ctrl Pts',(15.3407437423527,26.1094774267975,4.56));
#883=CARTESIAN_POINT('Ctrl Pts',(11.8089954695739,20.9042825146624,4.56));
#884=CARTESIAN_POINT('Ctrl Pts',(8.34496197554387,15.5832436260852,4.56));
#885=CARTESIAN_POINT('Ctrl Pts',(5.62332746991441,11.2415718329726,4.56));
#886=CARTESIAN_POINT('Ctrl Pts',(3.60820397116806,7.94066298660364,4.56));
#887=CARTESIAN_POINT('Ctrl Pts',(2.27619938997025,5.72053542117206,4.56));
#888=CARTESIAN_POINT('Ctrl Pts',(1.61304999999999,4.605591,4.56));
#889=CARTESIAN_POINT('',(38.069222,54.709512,1.56));
#890=CARTESIAN_POINT('Origin',(61.336537,30.837068,1.56));
#891=CARTESIAN_POINT('',(61.336537,30.837068,1.56));
#892=CARTESIAN_POINT('',(61.336537,30.837068,1.56));
#893=CARTESIAN_POINT('',(61.336537,30.837068,4.56));
#894=CARTESIAN_POINT('',(61.336537,30.837068,4.56));
#895=CARTESIAN_POINT('',(61.336537,30.837068,1.56));
#896=CARTESIAN_POINT('Ctrl Pts',(37.515251,-48.402544,1.56));
#897=CARTESIAN_POINT('Ctrl Pts',(37.515251,-48.402544,4.56));
#898=CARTESIAN_POINT('Ctrl Pts',(37.6276110177132,-47.4793339449765,1.56));
#899=CARTESIAN_POINT('Ctrl Pts',(37.6276110177132,-47.4793339449765,4.56));
#900=CARTESIAN_POINT('Ctrl Pts',(37.8795407964535,-45.5924534844489,1.56));
#901=CARTESIAN_POINT('Ctrl Pts',(37.8795407964535,-45.5924534844489,4.56));
#902=CARTESIAN_POINT('Ctrl Pts',(38.3390638762261,-42.640753095062,1.56));
#903=CARTESIAN_POINT('Ctrl Pts',(38.3390638762261,-42.640753095062,4.56));
#904=CARTESIAN_POINT('Ctrl Pts',(39.1162121389643,-38.4606163587081,1.56));
#905=CARTESIAN_POINT('Ctrl Pts',(39.1162121389643,-38.4606163587081,4.56));
#906=CARTESIAN_POINT('Ctrl Pts',(40.3660836475221,-32.8240301711182,1.56));
#907=CARTESIAN_POINT('Ctrl Pts',(40.3660836475221,-32.8240301711182,4.56));
#908=CARTESIAN_POINT('Ctrl Pts',(41.8949516975298,-26.7830761352625,1.56));
#909=CARTESIAN_POINT('Ctrl Pts',(41.8949516975298,-26.7830761352625,4.56));
#910=CARTESIAN_POINT('Ctrl Pts',(43.693500709334,-20.3675687236853,1.56));
#911=CARTESIAN_POINT('Ctrl Pts',(43.693500709334,-20.3675687236853,4.56));
#912=CARTESIAN_POINT('Ctrl Pts',(45.7358900447141,-13.6427969015134,1.56));
#913=CARTESIAN_POINT('Ctrl Pts',(45.7358900447141,-13.6427969015134,4.56));
#914=CARTESIAN_POINT('Ctrl Pts',(47.9713011615706,-6.72541530730981,1.56));
#915=CARTESIAN_POINT('Ctrl Pts',(47.9713011615706,-6.72541530730981,4.56));
#916=CARTESIAN_POINT('Ctrl Pts',(50.3165247335743,0.202966470441094,1.56));
#917=CARTESIAN_POINT('Ctrl Pts',(50.3165247335743,0.202966470441094,4.56));
#918=CARTESIAN_POINT('Ctrl Pts',(52.6688168087873,6.92120452195944,1.56));
#919=CARTESIAN_POINT('Ctrl Pts',(52.6688168087873,6.92120452195944,4.56));
#920=CARTESIAN_POINT('Ctrl Pts',(54.916535054612,13.1903106088789,1.56));
#921=CARTESIAN_POINT('Ctrl Pts',(54.916535054612,13.1903106088789,4.56));
#922=CARTESIAN_POINT('Ctrl Pts',(56.9498284433245,18.7756351395081,1.56));
#923=CARTESIAN_POINT('Ctrl Pts',(56.9498284433245,18.7756351395081,4.56));
#924=CARTESIAN_POINT('Ctrl Pts',(58.6722471581279,23.4717765993011,1.56));
#925=CARTESIAN_POINT('Ctrl Pts',(58.6722471581279,23.4717765993011,4.56));
#926=CARTESIAN_POINT('Ctrl Pts',(60.011181475956,27.1252329342992,1.56));
#927=CARTESIAN_POINT('Ctrl Pts',(60.011181475956,27.1252329342992,4.56));
#928=CARTESIAN_POINT('Ctrl Pts',(60.7501349392462,29.1630041005318,1.56));
#929=CARTESIAN_POINT('Ctrl Pts',(60.7501349392462,29.1630041005318,4.56));
#930=CARTESIAN_POINT('Ctrl Pts',(61.1160681082608,30.1926562125845,1.56));
#931=CARTESIAN_POINT('Ctrl Pts',(61.1160681082608,30.1926562125845,4.56));
#932=CARTESIAN_POINT('Ctrl Pts',(61.2768995424529,30.6589500804071,1.56));
#933=CARTESIAN_POINT('Ctrl Pts',(61.2768995424529,30.6589500804071,4.56));
#934=CARTESIAN_POINT('Ctrl Pts',(61.336537,30.837068,1.56));
#935=CARTESIAN_POINT('Ctrl Pts',(61.336537,30.837068,4.56));
#936=CARTESIAN_POINT('',(37.515251,-48.402544,1.56));
#937=CARTESIAN_POINT('Ctrl Pts',(37.515251,-48.402544,1.56));
#938=CARTESIAN_POINT('Ctrl Pts',(37.6276110177132,-47.4793339449765,1.56));
#939=CARTESIAN_POINT('Ctrl Pts',(37.8795407964535,-45.5924534844489,1.56));
#940=CARTESIAN_POINT('Ctrl Pts',(38.3390638762261,-42.640753095062,1.56));
#941=CARTESIAN_POINT('Ctrl Pts',(39.1162121389643,-38.4606163587081,1.56));
#942=CARTESIAN_POINT('Ctrl Pts',(40.3660836475221,-32.8240301711182,1.56));
#943=CARTESIAN_POINT('Ctrl Pts',(41.8949516975298,-26.7830761352625,1.56));
#944=CARTESIAN_POINT('Ctrl Pts',(43.693500709334,-20.3675687236853,1.56));
#945=CARTESIAN_POINT('Ctrl Pts',(45.7358900447141,-13.6427969015134,1.56));
#946=CARTESIAN_POINT('Ctrl Pts',(47.9713011615706,-6.72541530730981,1.56));
#947=CARTESIAN_POINT('Ctrl Pts',(50.3165247335743,0.202966470441094,1.56));
#948=CARTESIAN_POINT('Ctrl Pts',(52.6688168087873,6.92120452195944,1.56));
#949=CARTESIAN_POINT('Ctrl Pts',(54.916535054612,13.1903106088789,1.56));
#950=CARTESIAN_POINT('Ctrl Pts',(56.9498284433245,18.7756351395081,1.56));
#951=CARTESIAN_POINT('Ctrl Pts',(58.6722471581279,23.4717765993011,1.56));
#952=CARTESIAN_POINT('Ctrl Pts',(60.011181475956,27.1252329342992,1.56));
#953=CARTESIAN_POINT('Ctrl Pts',(60.7501349392462,29.1630041005318,1.56));
#954=CARTESIAN_POINT('Ctrl Pts',(61.1160681082608,30.1926562125845,1.56));
#955=CARTESIAN_POINT('Ctrl Pts',(61.2768995424529,30.6589500804071,1.56));
#956=CARTESIAN_POINT('Ctrl Pts',(61.336537,30.837068,1.56));
#957=CARTESIAN_POINT('',(37.515251,-48.402544,4.56));
#958=CARTESIAN_POINT('Ctrl Pts',(37.515251,-48.402544,4.56));
#959=CARTESIAN_POINT('Ctrl Pts',(37.6276110177132,-47.4793339449765,4.56));
#960=CARTESIAN_POINT('Ctrl Pts',(37.8795407964535,-45.5924534844489,4.56));
#961=CARTESIAN_POINT('Ctrl Pts',(38.3390638762261,-42.640753095062,4.56));
#962=CARTESIAN_POINT('Ctrl Pts',(39.1162121389643,-38.4606163587081,4.56));
#963=CARTESIAN_POINT('Ctrl Pts',(40.3660836475221,-32.8240301711182,4.56));
#964=CARTESIAN_POINT('Ctrl Pts',(41.8949516975298,-26.7830761352625,4.56));
#965=CARTESIAN_POINT('Ctrl Pts',(43.693500709334,-20.3675687236853,4.56));
#966=CARTESIAN_POINT('Ctrl Pts',(45.7358900447141,-13.6427969015134,4.56));
#967=CARTESIAN_POINT('Ctrl Pts',(47.9713011615706,-6.72541530730981,4.56));
#968=CARTESIAN_POINT('Ctrl Pts',(50.3165247335743,0.202966470441094,4.56));
#969=CARTESIAN_POINT('Ctrl Pts',(52.6688168087873,6.92120452195944,4.56));
#970=CARTESIAN_POINT('Ctrl Pts',(54.916535054612,13.1903106088789,4.56));
#971=CARTESIAN_POINT('Ctrl Pts',(56.9498284433245,18.7756351395081,4.56));
#972=CARTESIAN_POINT('Ctrl Pts',(58.6722471581279,23.4717765993011,4.56));
#973=CARTESIAN_POINT('Ctrl Pts',(60.011181475956,27.1252329342992,4.56));
#974=CARTESIAN_POINT('Ctrl Pts',(60.7501349392462,29.1630041005318,4.56));
#975=CARTESIAN_POINT('Ctrl Pts',(61.1160681082608,30.1926562125845,4.56));
#976=CARTESIAN_POINT('Ctrl Pts',(61.2768995424529,30.6589500804071,4.56));
#977=CARTESIAN_POINT('Ctrl Pts',(61.336537,30.837068,4.56));
#978=CARTESIAN_POINT('',(37.515251,-48.402544,1.56));
#979=CARTESIAN_POINT('Origin',(22.432451,-59.883497,1.56));
#980=CARTESIAN_POINT('',(22.432451,-59.883497,1.56));
#981=CARTESIAN_POINT('',(22.432451,-59.883497,1.56));
#982=CARTESIAN_POINT('',(22.432451,-59.883497,4.56));
#983=CARTESIAN_POINT('',(22.432451,-59.883497,4.56));
#984=CARTESIAN_POINT('',(22.432451,-59.883497,1.56));
#985=CARTESIAN_POINT('Ctrl Pts',(30.634018,8.426032,1.56));
#986=CARTESIAN_POINT('Ctrl Pts',(30.634018,8.426032,4.56));
#987=CARTESIAN_POINT('Ctrl Pts',(30.6524159945673,7.44858219351571,1.56));
#988=CARTESIAN_POINT('Ctrl Pts',(30.6524159945673,7.44858219351571,4.56));
#989=CARTESIAN_POINT('Ctrl Pts',(30.6721678031965,5.45736293968981,1.56));
#990=CARTESIAN_POINT('Ctrl Pts',(30.6721678031965,5.45736293968981,4.56));
#991=CARTESIAN_POINT('Ctrl Pts',(30.6506612767775,2.36157151841882,1.56));
#992=CARTESIAN_POINT('Ctrl Pts',(30.6506612767775,2.36157151841882,4.56));
#993=CARTESIAN_POINT('Ctrl Pts',(30.5180495473755,-1.98762956691938,1.56));
#994=CARTESIAN_POINT('Ctrl Pts',(30.5180495473755,-1.98762956691938,4.56));
#995=CARTESIAN_POINT('Ctrl Pts',(30.1684816561126,-7.81579934567594,1.56));
#996=CARTESIAN_POINT('Ctrl Pts',(30.1684816561126,-7.81579934567594,4.56));
#997=CARTESIAN_POINT('Ctrl Pts',(29.6227107302957,-14.0620604341308,1.56));
#998=CARTESIAN_POINT('Ctrl Pts',(29.6227107302957,-14.0620604341308,4.56));
#999=CARTESIAN_POINT('Ctrl Pts',(28.8717940249008,-20.7454690308258,1.56));
#1000=CARTESIAN_POINT('Ctrl Pts',(28.8717940249008,-20.7454690308258,4.56));
#1001=CARTESIAN_POINT('Ctrl Pts',(27.9218416547267,-27.8530050216618,1.56));
#1002=CARTESIAN_POINT('Ctrl Pts',(27.9218416547267,-27.8530050216618,4.56));
#1003=CARTESIAN_POINT('Ctrl Pts',(26.7895266288675,-35.3491396992374,1.56));
#1004=CARTESIAN_POINT('Ctrl Pts',(26.7895266288675,-35.3491396992374,4.56));
#1005=CARTESIAN_POINT('Ctrl Pts',(25.4931761760644,-43.1948193604235,1.56));
#1006=CARTESIAN_POINT('Ctrl Pts',(25.4931761760644,-43.1948193604235,4.56));
#1007=CARTESIAN_POINT('Ctrl Pts',(24.3375575473562,-49.7239576488759,1.56));
#1008=CARTESIAN_POINT('Ctrl Pts',(24.3375575473562,-49.7239576488759,4.56));
#1009=CARTESIAN_POINT('Ctrl Pts',(23.4087540699917,-54.753118609485,1.56));
#1010=CARTESIAN_POINT('Ctrl Pts',(23.4087540699917,-54.753118609485,4.56));
#1011=CARTESIAN_POINT('Ctrl Pts',(22.7624093392522,-58.1637306631404,1.56));
#1012=CARTESIAN_POINT('Ctrl Pts',(22.7624093392522,-58.1637306631404,4.56));
#1013=CARTESIAN_POINT('Ctrl Pts',(22.432451,-59.883497,1.56));
#1014=CARTESIAN_POINT('Ctrl Pts',(22.432451,-59.883497,4.56));
#1015=CARTESIAN_POINT('',(30.634018,8.426032,1.56));
#1016=CARTESIAN_POINT('Ctrl Pts',(22.432451,-59.883497,1.56));
#1017=CARTESIAN_POINT('Ctrl Pts',(22.7624093392522,-58.1637306631404,1.56));
#1018=CARTESIAN_POINT('Ctrl Pts',(23.4087540699917,-54.753118609485,1.56));
#1019=CARTESIAN_POINT('Ctrl Pts',(24.3375575473562,-49.7239576488759,1.56));
#1020=CARTESIAN_POINT('Ctrl Pts',(25.4931761760644,-43.1948193604235,1.56));
#1021=CARTESIAN_POINT('Ctrl Pts',(26.7895266288675,-35.3491396992374,1.56));
#1022=CARTESIAN_POINT('Ctrl Pts',(27.9218416547267,-27.8530050216618,1.56));
#1023=CARTESIAN_POINT('Ctrl Pts',(28.8717940249008,-20.7454690308258,1.56));
#1024=CARTESIAN_POINT('Ctrl Pts',(29.6227107302957,-14.0620604341308,1.56));
#1025=CARTESIAN_POINT('Ctrl Pts',(30.1684816561126,-7.81579934567594,1.56));
#1026=CARTESIAN_POINT('Ctrl Pts',(30.5180495473755,-1.98762956691938,1.56));
#1027=CARTESIAN_POINT('Ctrl Pts',(30.6506612767775,2.36157151841882,1.56));
#1028=CARTESIAN_POINT('Ctrl Pts',(30.6721678031965,5.45736293968981,1.56));
#1029=CARTESIAN_POINT('Ctrl Pts',(30.6524159945673,7.44858219351571,1.56));
#1030=CARTESIAN_POINT('Ctrl Pts',(30.634018,8.426032,1.56));
#1031=CARTESIAN_POINT('',(30.634018,8.426032,4.56));
#1032=CARTESIAN_POINT('Ctrl Pts',(30.634018,8.426032,4.56));
#1033=CARTESIAN_POINT('Ctrl Pts',(30.6524159945673,7.44858219351571,4.56));
#1034=CARTESIAN_POINT('Ctrl Pts',(30.6721678031965,5.45736293968981,4.56));
#1035=CARTESIAN_POINT('Ctrl Pts',(30.6506612767775,2.36157151841882,4.56));
#1036=CARTESIAN_POINT('Ctrl Pts',(30.5180495473755,-1.98762956691938,4.56));
#1037=CARTESIAN_POINT('Ctrl Pts',(30.1684816561126,-7.81579934567594,4.56));
#1038=CARTESIAN_POINT('Ctrl Pts',(29.6227107302957,-14.0620604341308,4.56));
#1039=CARTESIAN_POINT('Ctrl Pts',(28.8717940249008,-20.7454690308258,4.56));
#1040=CARTESIAN_POINT('Ctrl Pts',(27.9218416547267,-27.8530050216618,4.56));
#1041=CARTESIAN_POINT('Ctrl Pts',(26.7895266288675,-35.3491396992374,4.56));
#1042=CARTESIAN_POINT('Ctrl Pts',(25.4931761760644,-43.1948193604235,4.56));
#1043=CARTESIAN_POINT('Ctrl Pts',(24.3375575473562,-49.7239576488759,4.56));
#1044=CARTESIAN_POINT('Ctrl Pts',(23.4087540699917,-54.753118609485,4.56));
#1045=CARTESIAN_POINT('Ctrl Pts',(22.7624093392522,-58.1637306631404,4.56));
#1046=CARTESIAN_POINT('Ctrl Pts',(22.432451,-59.883497,4.56));
#1047=CARTESIAN_POINT('',(30.634018,8.426032,1.56));
#1048=CARTESIAN_POINT('Origin',(0.928336999999996,-10.068965,1.56));
#1049=CARTESIAN_POINT('',(0.928336999999996,-10.068965,1.56));
#1050=CARTESIAN_POINT('',(0.928336999999996,-10.068965,1.56));
#1051=CARTESIAN_POINT('',(0.928336999999996,-10.068965,4.56));
#1052=CARTESIAN_POINT('',(0.928336999999996,-10.068965,4.56));
#1053=CARTESIAN_POINT('',(0.928336999999996,-10.068965,1.56));
#1054=CARTESIAN_POINT('Origin',(-0.556842999999987,-10.068965,1.56));
#1055=CARTESIAN_POINT('',(-0.556842999999987,-10.068965,1.56));
#1056=CARTESIAN_POINT('',(-0.556842999999987,-10.068965,1.56));
#1057=CARTESIAN_POINT('',(-0.556842999999987,-10.068965,4.56));
#1058=CARTESIAN_POINT('',(-0.556842999999987,-10.068965,4.56));
#1059=CARTESIAN_POINT('',(-0.556842999999987,-10.068965,1.56));
#1060=CARTESIAN_POINT('Origin',(-30.262524,8.426032,1.56));
#1061=CARTESIAN_POINT('',(-30.262524,8.426032,1.56));
#1062=CARTESIAN_POINT('',(-30.262524,8.426032,1.56));
#1063=CARTESIAN_POINT('',(-30.262524,8.426032,4.56));
#1064=CARTESIAN_POINT('',(-30.262524,8.426032,4.56));
#1065=CARTESIAN_POINT('',(-30.262524,8.426032,1.56));
#1066=CARTESIAN_POINT('Ctrl Pts',(-22.061475,-59.883497,1.56));
#1067=CARTESIAN_POINT('Ctrl Pts',(-22.061475,-59.883497,4.56));
#1068=CARTESIAN_POINT('Ctrl Pts',(-22.3914069572104,-58.1637295580128,1.56));
#1069=CARTESIAN_POINT('Ctrl Pts',(-22.3914069572104,-58.1637295580128,4.56));
#1070=CARTESIAN_POINT('Ctrl Pts',(-23.0377002317311,-54.7531153901508,1.56));
#1071=CARTESIAN_POINT('Ctrl Pts',(-23.0377002317311,-54.7531153901508,4.56));
#1072=CARTESIAN_POINT('Ctrl Pts',(-23.966430448153,-49.7239515463474,1.56));
#1073=CARTESIAN_POINT('Ctrl Pts',(-23.966430448153,-49.7239515463474,4.56));
#1074=CARTESIAN_POINT('Ctrl Pts',(-25.1219593732566,-43.1948099996064,1.56));
#1075=CARTESIAN_POINT('Ctrl Pts',(-25.1219593732566,-43.1948099996064,4.56));
#1076=CARTESIAN_POINT('Ctrl Pts',(-26.4182119778543,-35.3491273086697,1.56));
#1077=CARTESIAN_POINT('Ctrl Pts',(-26.4182119778543,-35.3491273086697,4.56));
#1078=CARTESIAN_POINT('Ctrl Pts',(-27.550444972435,-27.8529907417478,1.56));
#1079=CARTESIAN_POINT('Ctrl Pts',(-27.550444972435,-27.8529907417478,4.56));
#1080=CARTESIAN_POINT('Ctrl Pts',(-28.5003329106067,-20.7454540970605,1.56));
#1081=CARTESIAN_POINT('Ctrl Pts',(-28.5003329106067,-20.7454540970605,4.56));
#1082=CARTESIAN_POINT('Ctrl Pts',(-29.2512044136691,-14.0620461495065,1.56));
#1083=CARTESIAN_POINT('Ctrl Pts',(-29.2512044136691,-14.0620461495065,4.56));
#1084=CARTESIAN_POINT('Ctrl Pts',(-29.7969500018767,-7.81578695785656,1.56));
#1085=CARTESIAN_POINT('Ctrl Pts',(-29.7969500018767,-7.81578695785656,4.56));
#1086=CARTESIAN_POINT('Ctrl Pts',(-30.1465115810971,-1.98762021208237,1.56));
#1087=CARTESIAN_POINT('Ctrl Pts',(-30.1465115810971,-1.98762021208237,4.56));
#1088=CARTESIAN_POINT('Ctrl Pts',(-30.2791325284462,2.36157761465003,1.56));
#1089=CARTESIAN_POINT('Ctrl Pts',(-30.2791325284462,2.36157761465003,4.56));
#1090=CARTESIAN_POINT('Ctrl Pts',(-30.3006535340592,5.4573661550526,1.56));
#1091=CARTESIAN_POINT('Ctrl Pts',(-30.3006535340592,5.4573661550526,4.56));
#1092=CARTESIAN_POINT('Ctrl Pts',(-30.2809146867796,7.44858329715651,1.56));
#1093=CARTESIAN_POINT('Ctrl Pts',(-30.2809146867796,7.44858329715651,4.56));
#1094=CARTESIAN_POINT('Ctrl Pts',(-30.262524,8.426032,1.56));
#1095=CARTESIAN_POINT('Ctrl Pts',(-30.262524,8.426032,4.56));
#1096=CARTESIAN_POINT('Ctrl Pts',(-22.061475,-59.883497,1.56));
#1097=CARTESIAN_POINT('Ctrl Pts',(-22.3914069572104,-58.1637295580128,1.56));
#1098=CARTESIAN_POINT('Ctrl Pts',(-23.0377002317311,-54.7531153901508,1.56));
#1099=CARTESIAN_POINT('Ctrl Pts',(-23.966430448153,-49.7239515463474,1.56));
#1100=CARTESIAN_POINT('Ctrl Pts',(-25.1219593732566,-43.1948099996064,1.56));
#1101=CARTESIAN_POINT('Ctrl Pts',(-26.4182119778543,-35.3491273086697,1.56));
#1102=CARTESIAN_POINT('Ctrl Pts',(-27.550444972435,-27.8529907417478,1.56));
#1103=CARTESIAN_POINT('Ctrl Pts',(-28.5003329106067,-20.7454540970605,1.56));
#1104=CARTESIAN_POINT('Ctrl Pts',(-29.2512044136691,-14.0620461495065,1.56));
#1105=CARTESIAN_POINT('Ctrl Pts',(-29.7969500018767,-7.81578695785656,1.56));
#1106=CARTESIAN_POINT('Ctrl Pts',(-30.1465115810971,-1.98762021208237,1.56));
#1107=CARTESIAN_POINT('Ctrl Pts',(-30.2791325284462,2.36157761465003,1.56));
#1108=CARTESIAN_POINT('Ctrl Pts',(-30.3006535340592,5.4573661550526,1.56));
#1109=CARTESIAN_POINT('Ctrl Pts',(-30.2809146867796,7.44858329715651,1.56));
#1110=CARTESIAN_POINT('Ctrl Pts',(-30.262524,8.426032,1.56));
#1111=CARTESIAN_POINT('Ctrl Pts',(-22.061475,-59.883497,4.56));
#1112=CARTESIAN_POINT('Ctrl Pts',(-22.3914069572104,-58.1637295580128,4.56));
#1113=CARTESIAN_POINT('Ctrl Pts',(-23.0377002317311,-54.7531153901508,4.56));
#1114=CARTESIAN_POINT('Ctrl Pts',(-23.966430448153,-49.7239515463474,4.56));
#1115=CARTESIAN_POINT('Ctrl Pts',(-25.1219593732566,-43.1948099996064,4.56));
#1116=CARTESIAN_POINT('Ctrl Pts',(-26.4182119778543,-35.3491273086697,4.56));
#1117=CARTESIAN_POINT('Ctrl Pts',(-27.550444972435,-27.8529907417478,4.56));
#1118=CARTESIAN_POINT('Ctrl Pts',(-28.5003329106067,-20.7454540970605,4.56));
#1119=CARTESIAN_POINT('Ctrl Pts',(-29.2512044136691,-14.0620461495065,4.56));
#1120=CARTESIAN_POINT('Ctrl Pts',(-29.7969500018767,-7.81578695785656,4.56));
#1121=CARTESIAN_POINT('Ctrl Pts',(-30.1465115810971,-1.98762021208237,4.56));
#1122=CARTESIAN_POINT('Ctrl Pts',(-30.2791325284462,2.36157761465003,4.56));
#1123=CARTESIAN_POINT('Ctrl Pts',(-30.3006535340592,5.4573661550526,4.56));
#1124=CARTESIAN_POINT('Ctrl Pts',(-30.2809146867796,7.44858329715651,4.56));
#1125=CARTESIAN_POINT('Ctrl Pts',(-30.262524,8.426032,4.56));
#1126=CARTESIAN_POINT('Origin',(0.185746500000003,-2.58699250000001,4.56));
#1127=CARTESIAN_POINT('Origin',(0.185746500000003,-2.58699250000001,1.56));
#1128=CARTESIAN_POINT('',(0.,0.,0.));
#1129=UNCERTAINTY_MEASURE_WITH_UNIT(LENGTH_MEASURE(0.01),#1135,
'DISTANCE_ACCURACY_VALUE',
'Maximum model space distance between geometric entities at asserted c
onnectivities');
#1130=UNCERTAINTY_MEASURE_WITH_UNIT(LENGTH_MEASURE(0.01),#1135,
'DISTANCE_ACCURACY_VALUE',
'Maximum model space distance between geometric entities at asserted c
onnectivities');
#1131=UNCERTAINTY_MEASURE_WITH_UNIT(LENGTH_MEASURE(0.01),#1135,
'DISTANCE_ACCURACY_VALUE',
'Maximum model space distance between geometric entities at asserted c
onnectivities');
#1132=(
GEOMETRIC_REPRESENTATION_CONTEXT(3)
GLOBAL_UNCERTAINTY_ASSIGNED_CONTEXT((#1129))
GLOBAL_UNIT_ASSIGNED_CONTEXT((#1135,#1137,#1138))
REPRESENTATION_CONTEXT('','3D')
);
#1133=(
GEOMETRIC_REPRESENTATION_CONTEXT(3)
GLOBAL_UNCERTAINTY_ASSIGNED_CONTEXT((#1130))
GLOBAL_UNIT_ASSIGNED_CONTEXT((#1135,#1137,#1138))
REPRESENTATION_CONTEXT('','3D')
);
#1134=(
GEOMETRIC_REPRESENTATION_CONTEXT(3)
GLOBAL_UNCERTAINTY_ASSIGNED_CONTEXT((#1131))
GLOBAL_UNIT_ASSIGNED_CONTEXT((#1135,#1137,#1138))
REPRESENTATION_CONTEXT('','3D')
);
#1135=(
LENGTH_UNIT()
NAMED_UNIT(*)
SI_UNIT(.MILLI.,.METRE.)
);
#1136=(
LENGTH_UNIT()
NAMED_UNIT(*)
SI_UNIT($,.METRE.)
);
#1137=(
NAMED_UNIT(*)
PLANE_ANGLE_UNIT()
SI_UNIT($,.RADIAN.)
);
#1138=(
NAMED_UNIT(*)
SI_UNIT($,.STERADIAN.)
SOLID_ANGLE_UNIT()
);
#1139=SHAPE_DEFINITION_REPRESENTATION(#1141,#1144);
#1140=SHAPE_DEFINITION_REPRESENTATION(#1142,#1145);
#1141=PRODUCT_DEFINITION_SHAPE('',$,#1147);
#1142=PRODUCT_DEFINITION_SHAPE('',$,#1148);
#1143=PRODUCT_DEFINITION_SHAPE($,$,#14);
#1144=SHAPE_REPRESENTATION('',(#481,#512),#1132);
#1145=SHAPE_REPRESENTATION('',(#482),#1133);
#1146=PRODUCT_DEFINITION_CONTEXT('part definition',#1154,'design');
#1147=PRODUCT_DEFINITION('Swadge-HW 1','Pulse-Swadge-01 v13',#1149,#1146);
#1148=PRODUCT_DEFINITION('Acrylic','Acrylic',#1150,#1146);
#1149=PRODUCT_DEFINITION_FORMATION('',$,#1156);
#1150=PRODUCT_DEFINITION_FORMATION('',$,#1157);
#1151=PRODUCT_RELATED_PRODUCT_CATEGORY('Pulse-Swadge-01 v13',
'Pulse-Swadge-01 v13',(#1156));
#1152=PRODUCT_RELATED_PRODUCT_CATEGORY('Acrylic','Acrylic',(#1157));
#1153=APPLICATION_PROTOCOL_DEFINITION('international standard',
'automotive_design',2009,#1154);
#1154=APPLICATION_CONTEXT(
'Core Data for Automotive Mechanical Design Process');
#1155=PRODUCT_CONTEXT('part definition',#1154,'mechanical');
#1156=PRODUCT('Swadge-HW 1','Pulse-Swadge-01 v13',
'KiCad electronic assembly',(#1155));
#1157=PRODUCT('Acrylic','Acrylic',$,(#1155));
#1158=PRESENTATION_STYLE_ASSIGNMENT((#1160));
#1159=PRESENTATION_STYLE_ASSIGNMENT((#1161));
#1160=SURFACE_STYLE_USAGE(.BOTH.,#1162);
#1161=SURFACE_STYLE_USAGE(.BOTH.,#1163);
#1162=SURFACE_SIDE_STYLE('',(#1164));
#1163=SURFACE_SIDE_STYLE('',(#1165));
#1164=SURFACE_STYLE_FILL_AREA(#1166);
#1165=SURFACE_STYLE_FILL_AREA(#1167);
#1166=FILL_AREA_STYLE('Steel - Satin',(#1168));
#1167=FILL_AREA_STYLE('Acrylic (Clear)',(#1169));
#1168=FILL_AREA_STYLE_COLOUR('Steel - Satin',#1170);
#1169=FILL_AREA_STYLE_COLOUR('Acrylic (Clear)',#1171);
#1170=COLOUR_RGB('Steel - Satin',0.627450980392157,0.627450980392157,0.627450980392157);
#1171=COLOUR_RGB('Acrylic (Clear)',0.964705882352941,0.964705882352941,
0.952941176470588);
ENDSEC;
END-ISO-10303-21;
